<?xml version="1.0" standalone="no"?>
<!DOCTYPE svg PUBLIC "-//W3C//DTD SVG 1.1//EN" "http://www.w3.org/Graphics/SVG/1.1/DTD/svg11.dtd" >
<svg xmlns="http://www.w3.org/2000/svg" xmlns:xlink="http://www.w3.org/1999/xlink" version="1.1">
<metadata>
Created by FontForge 20170731 at Sat Feb  5 19:03:40 2022
 By Aleksey,,,
2013 published by FontShop International GmbH
</metadata>
<defs>
<font id="MarkPro-LightItalic" horiz-adv-x="1" >
  <font-face 
    font-family="MarkPro-LightItalic"
    font-weight="350"
    font-style="italic"
    font-stretch="normal"
    units-per-em="2048"
    panose-1="2 11 5 4 2 1 1 1 1 2"
    ascent="1638"
    descent="-410"
    x-height="964"
    cap-height="1434"
    bbox="-1359 -484 3004 2256"
    underline-thickness="105"
    underline-position="-370"
    slope="-12"
    unicode-range="U+000D-FEFF"
  />
<missing-glyph horiz-adv-x="1204" 
d="M76 0v1434h1052v-1434h-1052zM181 105h842v1223h-842v-1223z" />
    <glyph glyph-name=".notdef" horiz-adv-x="1204" 
d="M76 0v1434h1052v-1434h-1052zM181 105h842v1223h-842v-1223z" />
    <glyph glyph-name=".null" horiz-adv-x="0" 
 />
    <glyph glyph-name=".null" horiz-adv-x="0" 
 />
    <glyph glyph-name="nonmarkingreturn" horiz-adv-x="682" 
 />
    <glyph glyph-name="CR" unicode="&#xd;" horiz-adv-x="542" 
 />
    <glyph glyph-name="space" unicode=" " horiz-adv-x="542" 
 />
    <glyph glyph-name="exclam" unicode="!" horiz-adv-x="516" 
d="M531 1434l-229 -989h-100l187 989h142zM179 182q39 0 68 -29t29 -68q0 -40 -29 -69.5t-68 -29.5t-68.5 29.5t-29.5 69.5q0 39 29.5 68t68.5 29z" />
    <glyph glyph-name="quotedbl" unicode="&#x22;" horiz-adv-x="1008" 
d="M498 1475h116l-105 -496h-117zM817 1475h117l-106 -496h-116z" />
    <glyph glyph-name="numbersign" unicode="#" horiz-adv-x="1420" 
d="M324 1050h240l129 384h110l-129 -384h398l129 384h110l-129 -384h236l-35 -105h-237l-151 -450h237l-35 -104h-236l-132 -391h-109l131 391h-398l-131 -391h-110l131 391h-240l35 104h240l151 450h-240zM638 945l-151 -450h399l151 450h-399z" />
    <glyph glyph-name="dollar" unicode="$" horiz-adv-x="1433" 
d="M1353 1265l-68 -96q-142 106 -320 135l-114 -538l13 -2q176 -30 277.5 -113.5t101.5 -225.5q0 -86 -35.5 -161.5t-102 -133.5t-170.5 -91.5t-232 -33.5h-14l-42 -200h-108l44 208q-253 36 -418 175l71 97q144 -126 370 -159l115 542l-29 5q-361 64 -361 339
q0 79 30.5 151.5t90 133t158.5 97t224 36.5q15 0 49 -2l41 195h108l-44 -206q209 -33 365 -152zM458 1027q0 -98 68 -157.5t213 -84.5l6 -1l113 531q-11 1 -33 1q-94 0 -167 -26t-115.5 -68.5t-63.5 -92t-21 -102.5zM1118 412q0 95 -73 152.5t-220 83.5l-111 -529
q190 1 297 85.5t107 207.5z" />
    <glyph glyph-name="percent" unicode="%" horiz-adv-x="1994" 
d="M604 1449q146 0 240 -93.5t94 -239.5q0 -160 -109.5 -274t-270.5 -114q-147 0 -241 93t-94 239q0 160 109.5 274.5t271.5 114.5zM598 1346q-114 0 -189.5 -82t-75.5 -198q0 -103 65 -169t165 -66q114 0 189.5 82t75.5 198q0 103 -64.5 169t-165.5 66zM1654 1434
l-1081 -1434h-130l1081 1434h130zM1538 705q146 0 240 -93t94 -239q0 -160 -109.5 -274.5t-270.5 -114.5q-147 0 -241 93t-94 239q0 160 109.5 274.5t271.5 114.5zM1532 601q-114 0 -189.5 -81.5t-75.5 -197.5q0 -103 65 -169t165 -66q114 0 189.5 82t75.5 198
q0 103 -64.5 168.5t-165.5 65.5z" />
    <glyph glyph-name="ampersand" unicode="&#x26;" horiz-adv-x="1390" 
d="M1206 756l84 -62l-306 -372l257 -322h-151l-183 230q-103 -116 -209 -180.5t-239 -64.5q-165 0 -271 89.5t-106 236.5q0 67 23 127t57 105t90 91t104 76.5t118 70.5q-78 105 -111 177t-33 147q0 142 94 243t259 101q138 0 228.5 -79.5t90.5 -198.5q0 -56 -21 -107.5
t-51.5 -90.5t-83 -81t-96.5 -70t-110 -67l278 -349zM471 90q105 0 189 55.5t181 167.5l-302 383q-61 -35 -102.5 -62t-89 -64.5t-75.5 -72.5t-47 -80.5t-19 -94.5q0 -101 75 -166.5t190 -65.5zM451 1103q0 -54 27.5 -111t98.5 -153q57 32 95 55.5t81.5 56.5t68.5 63t42 68
t17 78q0 79 -55.5 130t-148.5 51q-104 0 -165 -69t-61 -169z" />
    <glyph glyph-name="quotesingle" unicode="'" horiz-adv-x="689" 
d="M498 1475h116l-105 -496h-117z" />
    <glyph glyph-name="parenleft" unicode="(" horiz-adv-x="754" 
d="M802 1453l39 -104q-125 -37 -233 -133t-181 -224.5t-114 -281t-41 -304.5q0 -188 66.5 -339t192.5 -251l-61 -100q-158 119 -240.5 294.5t-82.5 392.5q0 228 80 446.5t231.5 383t343.5 220.5z" />
    <glyph glyph-name="parenright" unicode=")" horiz-adv-x="754" 
d="M-4 -288l-39 105q167 49 298.5 197.5t200.5 344.5t69 401q0 188 -66.5 339t-192.5 251l62 99q158 -119 240 -294.5t82 -392.5q0 -170 -47.5 -339.5t-131 -312.5t-207.5 -249.5t-268 -148.5z" />
    <glyph glyph-name="asterisk" unicode="*" horiz-adv-x="870" 
d="M295 1315l242 -113l58 273h91l-60 -283l276 58l10 -89l-278 -58l106 -223l-80 -45l-106 224l-200 -199l-62 61l200 198l-241 113z" />
    <glyph glyph-name="plus" unicode="+" horiz-adv-x="1228" 
d="M573 105h-108l81 381h-379l21 106h380l83 386h108l-82 -386h384l-22 -106h-385z" />
    <glyph glyph-name="comma" unicode="," horiz-adv-x="487" 
d="M153 240h135l-196 -495h-108z" />
    <glyph glyph-name="hyphen" unicode="-" horiz-adv-x="833" 
d="M714 592l-23 -106h-546l22 106h547z" />
    <glyph glyph-name="period" unicode="." horiz-adv-x="515" 
d="M176 181q39 0 68.5 -29t29.5 -69q0 -39 -29.5 -68.5t-68.5 -29.5t-68.5 29.5t-29.5 68.5q0 40 29.5 69t68.5 29z" />
    <glyph glyph-name="slash" unicode="/" horiz-adv-x="1007" 
d="M1116 1577l-1088 -1782h-133l1088 1782h133z" />
    <glyph glyph-name="zero" unicode="0" horiz-adv-x="1441" 
d="M877 1449q225 0 358 -152.5t133 -404.5q0 -125 -30 -253.5t-91 -245.5t-143.5 -208t-196 -145.5t-241.5 -54.5q-225 0 -359 153t-134 404q0 125 30.5 253t91 245t143.5 208.5t197 146t242 54.5zM870 1334q-106 0 -199 -48t-159.5 -128t-115.5 -182t-72.5 -211t-23.5 -214
q0 -208 102 -330t270 -122q106 0 199 48t159.5 128t115 182t72 211.5t23.5 214.5q0 209 -101.5 330t-269.5 121z" />
    <glyph glyph-name="one" unicode="1" horiz-adv-x="849" 
d="M836 1448l-310 -1448h-122l271 1268l-475 -172l27 131z" />
    <glyph glyph-name="two" unicode="2" horiz-adv-x="1111" 
d="M324 1142l-79 75q68 97 182 164.5t251 67.5q97 0 174.5 -31t125.5 -83t73 -117t25 -137q0 -132 -74 -246t-222 -246l-535 -474h692l-25 -115h-873l18 94l637 566q134 120 195.5 214t61.5 197q0 108 -73 185.5t-207 77.5q-107 0 -196.5 -54t-150.5 -138z" />
    <glyph glyph-name="three" unicode="3" horiz-adv-x="1103" 
d="M307 1164l-76 82q170 203 445 203q182 0 293.5 -95t111.5 -242q0 -128 -82 -236t-230 -156q92 -40 144.5 -116.5t52.5 -175.5q0 -88 -34.5 -167.5t-99 -141t-165.5 -98t-225 -36.5q-139 0 -250.5 46.5t-172.5 125.5l82 80q55 -66 146.5 -103t196.5 -37q99 0 177 27.5
t125.5 74.5t72 104.5t24.5 122.5q0 110 -83 176.5t-217 66.5h-191l24 110h180q91 0 168 28t127 73.5t77.5 102t27.5 115.5q0 104 -81.5 171t-209.5 67q-211 0 -358 -172z" />
    <glyph glyph-name="four" unicode="4" horiz-adv-x="1162" 
d="M924 837l-87 -409h259l-25 -114h-259l-67 -314h-120l66 314h-672l21 98l702 1021h142l-691 -1005h523l87 409h121z" />
    <glyph glyph-name="five" unicode="5" horiz-adv-x="1146" 
d="M1124 1434l-23 -114h-623l-118 -469h184q110 0 196.5 -26t140 -70.5t87.5 -105t39 -128.5t-6 -141q-37 -192 -179.5 -293.5t-337.5 -101.5q-140 0 -256.5 55.5t-190.5 163.5l90 70q124 -175 362 -175q153 0 259 79t130 211q10 44 6 87t-16 81.5t-41.5 71.5t-70.5 56.5
t-103 37t-138 13.5h-294l169 698h734z" />
    <glyph glyph-name="six" unicode="6" horiz-adv-x="1174" 
d="M885 1434l-439 -557q79 30 170 30q128 0 234 -54t168 -152.5t62 -220.5q0 -204 -149 -348t-374 -144q-205 0 -341 119.5t-136 309.5q0 172 131 342l522 675h152zM598 796q-171 0 -282 -108.5t-111 -265.5q0 -142 100.5 -232.5t257.5 -90.5q170 0 280.5 109t110.5 266
q0 144 -100.5 233t-255.5 89z" />
    <glyph glyph-name="seven" unicode="7" horiz-adv-x="1101" 
d="M1219 1434l-19 -100l-841 -1334h-143l840 1320h-809l24 114h948z" />
    <glyph glyph-name="eight" unicode="8" horiz-adv-x="1252" 
d="M801 1449q113 0 211 -41t160.5 -121.5t62.5 -185.5q0 -130 -90.5 -234t-247.5 -151q101 -41 159 -117.5t58 -174.5q0 -188 -157.5 -313.5t-410.5 -125.5q-124 0 -227.5 40t-168 120.5t-64.5 186.5q0 141 93.5 249t260.5 152q-86 41 -135 111.5t-49 162.5q0 88 37.5 168
t105.5 141t172.5 97t229.5 36zM648 671q-196 0 -315 -93.5t-119 -233.5q0 -114 97.5 -181t240.5 -67q195 0 316 93t121 233q0 112 -96.5 180.5t-244.5 68.5zM793 1336q-189 0 -300 -93t-111 -229q0 -107 85.5 -172.5t221.5 -65.5q186 0 302.5 92t116.5 224
q0 111 -92.5 177.5t-222.5 66.5z" />
    <glyph glyph-name="nine" unicode="9" horiz-adv-x="1174" 
d="M390 0l438 557q-82 -31 -171 -31q-196 0 -329 121t-133 306q0 133 66 245.5t187 180t270 67.5q205 0 341 -119.5t136 -309.5q0 -170 -132 -342l-521 -675h-152zM676 638q172 0 283 108.5t111 265.5q0 142 -100.5 232t-258.5 90q-170 0 -281 -109t-111 -266
q0 -143 101 -232t256 -89z" />
    <glyph glyph-name="colon" unicode=":" horiz-adv-x="515" 
d="M343 979q39 0 68 -29t29 -69q0 -39 -29 -69t-68 -30t-68.5 30t-29.5 69q0 40 29 69t69 29zM173 182q39 0 68.5 -29t29.5 -68q0 -40 -29.5 -69.5t-68.5 -29.5t-68.5 29.5t-29.5 69.5q0 39 29.5 68t68.5 29z" />
    <glyph glyph-name="semicolon" unicode=";" horiz-adv-x="487" 
d="M313 979q40 0 69.5 -29t29.5 -69q0 -39 -29.5 -69t-69.5 -30q-39 0 -68.5 30t-29.5 69q0 40 29.5 69t68.5 29zM153 240h135l-196 -495h-108z" />
    <glyph glyph-name="less" unicode="&#x3c;" horiz-adv-x="1228" 
d="M218 482l25 116l869 377l-29 -133l-734 -311l602 -310l-24 -116z" />
    <glyph glyph-name="equal" unicode="=" horiz-adv-x="1228" 
d="M1036 413l-23 -107h-873l24 107h872zM1113 772l-23 -105h-873l24 105h872z" />
    <glyph glyph-name="greater" unicode="&#x3e;" horiz-adv-x="1228" 
d="M1046 598l-25 -116l-869 -377l28 134l734 310l-602 310l25 116z" />
    <glyph glyph-name="question" unicode="?" horiz-adv-x="846" 
d="M319 445h-106l67 318h64q193 0 295.5 80.5t102.5 217.5q0 124 -106 195.5t-271 71.5q-10 0 -64 -3l5 120q35 3 80 3q212 0 350 -102t138 -270q0 -185 -130 -299t-373 -125zM197 181q40 0 69 -29t29 -69q0 -39 -29 -68.5t-69 -29.5q-39 0 -69 29.5t-30 68.5t30 68.5
t69 29.5z" />
    <glyph glyph-name="at" unicode="@" horiz-adv-x="1965" 
d="M1328 -94l48 -76q-198 -144 -465 -144q-208 0 -377 90t-268 258.5t-99 384.5q0 183 70 350.5t190 290.5t291 196t363 73q157 0 293.5 -49.5t235 -137.5t155 -216.5t56.5 -280.5q0 -153 -46 -278t-130 -197t-189 -72q-86 0 -140.5 46.5t-70.5 114.5q-58 -72 -138.5 -112.5
t-174.5 -40.5q-157 0 -257.5 98.5t-100.5 252.5q0 121 58 227t159.5 170t221.5 64q106 0 184.5 -47t117.5 -132l36 165h99l-104 -489q-10 -48 -10 -78q0 -70 35.5 -108.5t92.5 -38.5q109 0 180 130t71 323q0 176 -82.5 311.5t-228 208.5t-331.5 73q-169 0 -318.5 -65.5
t-254 -175.5t-165.5 -259t-61 -313q0 -146 50.5 -268t137.5 -203.5t205 -126.5t253 -45q234 0 408 126zM1017 821q-141 0 -239.5 -107t-98.5 -251q0 -117 72.5 -189.5t187.5 -72.5q142 0 241.5 106t99.5 253q0 116 -73.5 188.5t-189.5 72.5z" />
    <glyph glyph-name="A" unicode="A" horiz-adv-x="1439" 
d="M997 1434l292 -1434h-128l-84 419h-735l-260 -419h-136l898 1434h153zM898 1310l-482 -772h637z" />
    <glyph glyph-name="B" unicode="B" horiz-adv-x="1405" 
d="M408 1434h524q198 0 319 -85t121 -244q0 -132 -81 -237t-232 -142q120 -38 178 -136.5t29 -230.5q-23 -105 -72.5 -176.5t-128 -111t-173.5 -55.5t-225 -16h-565zM804 672h-432l-118 -554h431q199 0 310 56t141 193q33 152 -57 228.5t-275 76.5zM909 1316h-400l-112 -528
h411q115 0 201.5 24.5t136.5 68t74 97t24 116.5q0 77 -46 128t-119 72.5t-170 21.5z" />
    <glyph glyph-name="C" unicode="C" horiz-adv-x="1528" 
d="M1304 319l82 -79q-99 -122 -240.5 -189t-302.5 -67q-191 0 -344.5 84.5t-241 237.5t-87.5 346q0 167 60 315t164.5 254t251 167t312.5 61q52 0 104 -6t120 -26t127 -51t118.5 -86.5t100.5 -127.5l-96 -76q-50 90 -134.5 149t-170 81.5t-176.5 22.5q-182 0 -331.5 -88
t-234 -240.5t-84.5 -337.5q0 -245 156.5 -402t393.5 -157q133 0 252 57t201 158z" />
    <glyph glyph-name="D" unicode="D" horiz-adv-x="1596" 
d="M408 1434h463q314 0 490.5 -160t176.5 -431q0 -177 -61 -330t-175.5 -267.5t-291.5 -180t-397 -65.5h-511zM858 1315h-349l-255 -1196h373q186 0 335.5 54.5t245.5 151t147 225.5t51 281q0 223 -140.5 353.5t-407.5 130.5z" />
    <glyph glyph-name="E" unicode="E" horiz-adv-x="1328" 
d="M1208 780l-25 -116h-812l-117 -546h844l-26 -118h-970l306 1434h958l-25 -118h-832l-114 -536h813z" />
    <glyph glyph-name="F" unicode="F" horiz-adv-x="1278" 
d="M1203 781l-25 -118h-808l-141 -663h-127l306 1434h951l-26 -119h-824l-114 -534h808z" />
    <glyph glyph-name="G" unicode="G" horiz-adv-x="1651" 
d="M1485 1204l-94 -85q-84 109 -203 158.5t-243 49.5q-133 0 -252 -51t-205.5 -139t-137.5 -213.5t-51 -268.5q0 -245 156 -397t400 -152q234 0 389 141.5t193 387.5h-483l26 116h602q0 -19 -4 -59q-38 -317 -238 -511.5t-496 -194.5q-192 0 -346 83.5t-242 234t-88 339.5
q0 170 61.5 320t166.5 256t250.5 167.5t308.5 61.5q59 0 120 -10t135.5 -34.5t147 -75.5t127.5 -124z" />
    <glyph glyph-name="H" unicode="H" horiz-adv-x="1573" 
d="M535 1434l-140 -653h910l139 653h128l-306 -1434h-127l140 663h-909l-141 -663h-127l306 1434h127z" />
    <glyph glyph-name="I" unicode="I" horiz-adv-x="536" 
d="M535 1434l-306 -1434h-127l306 1434h127z" />
    <glyph glyph-name="J" unicode="J" horiz-adv-x="1126" 
d="M1129 1434l-196 -951q-104 -498 -527 -498q-128 0 -238.5 55t-172.5 145l91 82q49 -69 136.5 -116t188.5 -47q317 0 400 407l191 923h127z" />
    <glyph glyph-name="K" unicode="K" horiz-adv-x="1366" 
d="M535 1434l-140 -654h174l724 654h168l-797 -711l582 -723h-152l-533 662h-191l-141 -662h-127l306 1434h127z" />
    <glyph glyph-name="L" unicode="L" horiz-adv-x="1202" 
d="M535 1434l-281 -1315h829l-24 -119h-957l306 1434h127z" />
    <glyph glyph-name="M" unicode="M" horiz-adv-x="1856" 
d="M1855 1434l-305 -1434h-127l273 1280l-753 -1110h-132l-308 1113l-274 -1283h-127l306 1434h181l308 -1121l765 1121h193z" />
    <glyph glyph-name="N" unicode="N" horiz-adv-x="1576" 
d="M1575 1434l-306 -1434h-116l-660 1237l-264 -1237h-127l306 1434h117l659 -1237l263 1237h128z" />
    <glyph glyph-name="O" unicode="O" horiz-adv-x="1701" 
d="M953 1449q143 0 267.5 -47t216 -132t144 -210t52.5 -273q0 -162 -58.5 -309.5t-160.5 -256t-249.5 -173t-315.5 -64.5q-143 0 -268 47t-216.5 132t-144 210t-52.5 273q0 217 99.5 400.5t280.5 293t405 109.5zM943 1329q-139 0 -260.5 -55t-204.5 -147t-131 -215t-48 -257
q0 -165 74 -291.5t200.5 -193t285.5 -66.5q139 0 260 54.5t204.5 147t131 215.5t47.5 257q0 249 -158.5 400t-400.5 151z" />
    <glyph glyph-name="P" unicode="P" horiz-adv-x="1317" 
d="M741 584h-388l-124 -584h-127l306 1434h478q210 0 327.5 -98t117.5 -267q0 -102 -36.5 -189.5t-108 -154t-185.5 -104t-260 -37.5zM874 1316h-365l-130 -614h367q117 0 206 27.5t142.5 77t80 113t26.5 138.5q0 124 -85.5 191t-241.5 67z" />
    <glyph glyph-name="Q" unicode="Q" horiz-adv-x="1712" 
d="M953 1449q143 0 267.5 -47t216 -132t144 -210t52.5 -273q0 -296 -178 -518l193 -269h-142l-133 182q-104 -94 -237.5 -146t-286.5 -52q-143 0 -268 47t-216.5 132t-144 210t-52.5 273q0 217 99.5 400.5t280.5 293t405 109.5zM943 1329q-139 0 -260.5 -55t-204.5 -147
t-131 -215t-48 -257q0 -165 74 -291.5t200.5 -193t285.5 -66.5q259 0 441 180l-298 416h144l232 -324q124 179 124 402q0 249 -158.5 400t-400.5 151z" />
    <glyph glyph-name="R" unicode="R" horiz-adv-x="1348" 
d="M408 1434h506q207 0 321 -95t114 -250q0 -90 -32.5 -169.5t-97 -144t-173 -102t-248.5 -37.5h-92l473 -636h-150l-462 636h-202l-136 -636h-127zM902 1315h-393l-121 -565h414q210 0 313 89.5t103 235.5q0 110 -82 175t-234 65z" />
    <glyph glyph-name="S" unicode="S" horiz-adv-x="1349" 
d="M1329 1281l-69 -100q-200 149 -474 149q-102 0 -181.5 -26.5t-125 -70t-68.5 -94.5t-23 -105q0 -100 72 -161t224 -86l130 -21q187 -32 293.5 -117.5t106.5 -232.5q0 -89 -37.5 -166.5t-107.5 -137t-180.5 -94t-246.5 -34.5q-132 0 -287 45t-274 143l75 101
q100 -88 238 -129.5t253 -41.5q206 0 321 86.5t115 212.5q0 98 -77.5 157.5t-233.5 86.5l-132 23q-188 32 -286 120.5t-98 230.5q0 81 32.5 156t96 137t169.5 99.5t240 37.5q315 0 535 -168z" />
    <glyph glyph-name="T" unicode="T" horiz-adv-x="1216" 
d="M1378 1434l-25 -119h-500l-280 -1315h-128l280 1315h-507l26 119h1134z" />
    <glyph glyph-name="U" unicode="U" horiz-adv-x="1504" 
d="M1522 1434l-187 -881q-61 -287 -233 -427.5t-425 -140.5q-103 0 -191 26.5t-155.5 78t-106 135.5t-38.5 193q0 72 18 156l183 860h128l-183 -857q-16 -74 -16 -139q0 -169 102.5 -251.5t272.5 -82.5q195 0 332 114.5t186 343.5l185 872h128z" />
    <glyph glyph-name="V" unicode="V" horiz-adv-x="1420" 
d="M1575 1434l-879 -1434h-153l-292 1434h127l262 -1312l801 1312h134z" />
    <glyph glyph-name="W" unicode="W" horiz-adv-x="2251" 
d="M2378 1434l-773 -1434h-150l-158 1266l-675 -1266h-155l-187 1434h127l163 -1298l691 1300h136l157 -1296l692 1294h132z" />
    <glyph glyph-name="X" unicode="X" horiz-adv-x="1386" 
d="M1486 1434l-671 -707l393 -727h-139l-342 632l-596 -632h-157l693 733l-373 701h139l323 -606l573 606h157z" />
    <glyph glyph-name="Y" unicode="Y" horiz-adv-x="1278" 
d="M1467 1434l-737 -821l-130 -613h-127l132 625l-388 809h135l336 -697l621 697h158z" />
    <glyph glyph-name="Z" unicode="Z" horiz-adv-x="1341" 
d="M1403 1434l-21 -100l-1139 -1215h919l-25 -119h-1088l24 105l1137 1210h-910l26 119h1077z" />
    <glyph glyph-name="bracketleft" unicode="[" horiz-adv-x="742" 
d="M523 -161l-23 -108h-455l363 1703h454l-22 -109h-336l-317 -1486h336z" />
    <glyph glyph-name="backslash" unicode="\" horiz-adv-x="1765" 
d="M1446 -205l-1089 1782h133l1089 -1782h-133z" />
    <glyph glyph-name="bracketright" unicode="]" horiz-adv-x="742" 
d="M262 1325l24 109h454l-362 -1703h-455l23 108h335l316 1486h-335z" />
    <glyph glyph-name="asciicircum" unicode="^" horiz-adv-x="1228" 
d="M387 672h-124l365 762h114l365 -762h-127l-297 641z" />
    <glyph glyph-name="underscore" unicode="_" horiz-adv-x="957" 
d="M827 -154l-21 -105h-969l23 105h967z" />
    <glyph glyph-name="grave" unicode="`" horiz-adv-x="925" 
d="M762 1108h-116l-257 307h148z" />
    <glyph glyph-name="a" unicode="a" horiz-adv-x="1239" 
d="M640 979q135 0 229 -66t130 -174l49 225h115l-205 -964h-115l31 146q-145 -161 -367 -161q-181 0 -299 120.5t-118 304.5q0 151 72 281.5t199.5 209t278.5 78.5zM527 94q158 0 277.5 108t145.5 271q26 167 -63.5 281.5t-249.5 114.5q-177 0 -302 -132t-125 -316
q0 -142 86.5 -234.5t230.5 -92.5z" />
    <glyph glyph-name="b" unicode="b" horiz-adv-x="1241" 
d="M600 -15q-135 0 -229.5 65t-129.5 173l-48 -223h-117l313 1475h117l-138 -649q143 153 358 153q185 0 304.5 -120.5t119.5 -304.5q0 -151 -72 -281.5t-199.5 -209t-278.5 -78.5zM713 869q-158 0 -277.5 -108t-145.5 -271q-26 -167 63.5 -281.5t249.5 -114.5
q177 0 302 132t125 317q0 141 -86.5 233.5t-230.5 92.5z" />
    <glyph glyph-name="c" unicode="c" horiz-adv-x="1032" 
d="M1005 799l-92 -66q-105 135 -286 135q-172 0 -291.5 -124.5t-119.5 -300.5q0 -151 95.5 -249t239.5 -98q167 0 283 114l67 -77q-68 -70 -160.5 -108t-194.5 -38q-199 0 -324.5 128t-125.5 321q0 110 41 210t112 173t171 116t212 43q250 0 373 -179z" />
    <glyph glyph-name="d" unicode="d" horiz-adv-x="1240" 
d="M640 979q135 -1 229.5 -66.5t129.5 -173.5l157 736h117l-314 -1475h-115l30 148q-143 -163 -367 -163q-181 0 -299 120.5t-118 304.5q0 151 72 281.5t199.5 209t278.5 78.5zM527 94q158 0 277.5 108t145.5 271q26 167 -63.5 281.5t-249.5 114.5q-177 0 -302 -132
t-125 -316q0 -142 86.5 -234.5t230.5 -92.5z" />
    <glyph glyph-name="e" unicode="e" horiz-adv-x="1103" 
d="M853 214l58 -81q-85 -76 -178.5 -112.5t-215.5 -36.5q-199 0 -314 116.5t-115 298.5q0 105 38 207.5t106 186t173 135t228 51.5q176 0 284 -104t108 -276q0 -80 -26 -160h-792q-1 -12 -1 -36q0 -142 86.5 -229.5t236.5 -87.5q187 0 324 128zM628 876q-79 0 -148 -27.5
t-119 -75.5t-84.5 -107t-52.5 -126h681q4 25 4 56q0 128 -77 204t-204 76z" />
    <glyph glyph-name="f" unicode="f" horiz-adv-x="859" 
d="M897 964l-23 -107h-391l-182 -857h-118l183 857h-232l22 107h232l42 196q34 162 123 246t226 84q69 0 131.5 -21t104.5 -57l-58 -91q-73 59 -179 59q-87 0 -147.5 -58t-85.5 -177l-39 -181h391z" />
    <glyph glyph-name="g" unicode="g" horiz-adv-x="1240" 
d="M1163 964l-191 -906q-49 -229 -191.5 -352.5t-336.5 -123.5q-251 0 -414 151l67 87q138 -132 349 -132q151 0 264 100t147 278l17 88q-140 -156 -352 -156q-191 0 -310.5 118.5t-119.5 299.5q0 114 43 218t115.5 179.5t174 120.5t213.5 45q137 0 231 -66t130 -175l49 226
h115zM527 106q166 0 285.5 111.5t137.5 284.5q17 156 -72.5 261.5t-240.5 105.5q-179 0 -301.5 -127t-122.5 -315q0 -140 87.5 -230.5t226.5 -90.5z" />
    <glyph glyph-name="h" unicode="h" horiz-adv-x="1204" 
d="M706 979q166 0 261 -92t95 -241q0 -46 -13 -108l-115 -538h-117l116 543q10 52 10 89q0 107 -66 171.5t-191 64.5q-141 0 -243.5 -87.5t-134.5 -236.5l-115 -544h-117l313 1475h117l-137 -646q131 150 337 150z" />
    <glyph glyph-name="i" unicode="i" horiz-adv-x="474" 
d="M398 964l-205 -964h-117l205 964h117zM412 1395q35 0 59.5 -25t24.5 -60t-24.5 -59t-59.5 -24t-59 24t-24 59t24 60t59 25z" />
    <glyph glyph-name="j" unicode="j" horiz-adv-x="479" 
d="M403 964l-244 -1151q-24 -116 -90 -175.5t-164 -59.5q-86 0 -146 42l44 95q42 -27 95 -27q57 0 94.5 35.5t51.5 104.5l242 1136h117zM417 1395q35 0 59.5 -25t24.5 -60t-24.5 -59t-59.5 -24t-59 24t-24 59t24 60t59 25z" />
    <glyph glyph-name="k" unicode="k" horiz-adv-x="1037" 
d="M506 1475l-196 -918h153l456 407h153l-530 -466l358 -498h-132l-321 452h-159l-95 -452h-117l313 1475h117z" />
    <glyph glyph-name="l" unicode="l" horiz-adv-x="473" 
d="M506 1475l-313 -1475h-117l313 1475h117z" />
    <glyph glyph-name="m" unicode="m" horiz-adv-x="1947" 
d="M1448 979q166 0 261 -92t95 -241q0 -51 -12 -108l-117 -538h-116l115 543q10 44 10 89q0 107 -65.5 171.5t-191.5 64.5q-141 0 -242.5 -87t-133.5 -237l-117 -544h-117l116 543q30 140 -32 232t-215 92q-141 0 -243.5 -87.5t-134.5 -236.5l-115 -544h-117l205 964h115
l-28 -135q67 76 154.5 113.5t183.5 37.5q132 0 217.5 -58t118.5 -158q71 109 178.5 162.5t227.5 53.5z" />
    <glyph glyph-name="n" unicode="n" horiz-adv-x="1204" 
d="M706 979q166 0 261 -92t95 -241q0 -46 -13 -108l-115 -538h-117l116 543q10 52 10 89q0 107 -66 171.5t-191 64.5q-141 0 -243.5 -87.5t-134.5 -236.5l-115 -544h-117l205 964h115l-28 -137q132 152 338 152z" />
    <glyph glyph-name="o" unicode="o" horiz-adv-x="1189" 
d="M637 979q201 0 329.5 -127.5t128.5 -322.5q0 -147 -70.5 -272t-195.5 -199t-276 -74q-201 0 -329.5 127t-128.5 323q0 147 70.5 272t195.5 199t276 74zM628 869q-115 0 -210 -58.5t-149 -157t-54 -213.5q0 -152 97 -249.5t248 -97.5q175 0 295.5 126.5t120.5 303.5
q0 151 -97.5 248.5t-250.5 97.5z" />
    <glyph glyph-name="p" unicode="p" horiz-adv-x="1241" 
d="M599 -15q-135 0 -229 65t-130 173l-135 -633h-116l292 1374h115l-31 -149q146 164 367 164q182 0 300 -120.5t118 -304.5q0 -150 -72.5 -281t-200 -209.5t-278.5 -78.5zM712 869q-158 0 -277.5 -108t-144.5 -271q-26 -167 63 -281.5t249 -114.5q178 0 303 132t125 317
q0 141 -87 233.5t-231 92.5z" />
    <glyph glyph-name="q" unicode="q" horiz-adv-x="1239" 
d="M640 979q135 -1 229.5 -66.5t129.5 -173.5l49 225h115l-292 -1374h-117l116 544q-142 -149 -356 -149q-185 0 -304.5 120.5t-119.5 304.5q0 151 72 281.5t199.5 209t278.5 78.5zM527 94q158 0 277.5 108t145.5 271q26 167 -63.5 281.5t-249.5 114.5q-177 0 -302 -132
t-125 -316q0 -142 86.5 -234.5t230.5 -92.5z" />
    <glyph glyph-name="r" unicode="r" horiz-adv-x="806" 
d="M396 964l-26 -126q120 142 301 142q105 0 179 -44l-52 -106q-59 38 -148 38q-124 0 -217 -87t-126 -240l-114 -541h-117l205 964h115z" />
    <glyph glyph-name="s" unicode="s" horiz-adv-x="972" 
d="M930 869l-62 -89q-56 41 -146.5 69t-180.5 28q-111 0 -185 -43t-83 -117q-9 -72 38 -114t152 -59l97 -15q151 -24 221.5 -94t58.5 -178q-15 -126 -125.5 -199t-279.5 -73q-112 0 -226 37t-189 97l66 86q64 -52 156.5 -85.5t190.5 -33.5q122 0 200 44t87 126
q15 136 -192 169l-99 15q-155 24 -221.5 95t-54.5 177q15 126 121 196.5t268 70.5q117 0 218.5 -30.5t169.5 -79.5z" />
    <glyph glyph-name="t" unicode="t" horiz-adv-x="909" 
d="M915 964l-22 -107h-423l-106 -504q-28 -128 21 -193.5t145 -65.5q117 0 222 77l49 -90q-127 -96 -284 -96q-155 0 -232 96.5t-39 274.5l106 501h-219l23 107h219l67 314h117l-66 -314h422z" />
    <glyph glyph-name="u" unicode="u" horiz-adv-x="1192" 
d="M1127 964l-120 -571q-42 -201 -176 -304.5t-319 -103.5q-162 0 -265.5 87t-103.5 245q0 47 13 110l114 537h118l-116 -543q-11 -52 -11 -91q0 -116 73 -176t191 -60q136 0 235.5 82.5t132.5 237.5l117 550h117z" />
    <glyph glyph-name="v" unicode="v" horiz-adv-x="1041" 
d="M1111 964l-619 -966h-136l-221 966h119l188 -853l542 853h127z" />
    <glyph glyph-name="w" unicode="w" horiz-adv-x="1739" 
d="M1010 964l161 -842l495 842h128l-572 -964h-139l-155 841l-459 -841h-136l-181 964h117l153 -841l459 841h129z" />
    <glyph glyph-name="x" unicode="x" horiz-adv-x="1003" 
d="M1036 964l-468 -480l297 -484h-129l-252 406l-390 -406h-140l476 494l-292 470h130l242 -396l385 396h141z" />
    <glyph glyph-name="y" unicode="y" horiz-adv-x="1036" 
d="M1122 964l-998 -1377h-133l471 643l-337 734h124l288 -629l452 629h133z" />
    <glyph glyph-name="z" unicode="z" horiz-adv-x="1047" 
d="M1017 964l-20 -90l-781 -769h644l-22 -105h-803l18 91l787 766h-635l23 107h789z" />
    <glyph glyph-name="braceleft" unicode="{" horiz-adv-x="849" 
d="M949 1434l-22 -109h-47q-122 0 -193.5 -61t-92.5 -210l-21 -144q-20 -145 -88 -224t-179 -108q92 -35 126.5 -119.5t1.5 -204.5l-41 -149q-35 -130 13 -197.5t157 -67.5h68l-23 -108h-67q-167 0 -237.5 111t-22.5 290l36 134q34 128 -17 194.5t-167 66.5l23 109
q128 0 201.5 64.5t94.5 207.5l22 155q52 370 418 370h57z" />
    <glyph glyph-name="bar" unicode="|" horiz-adv-x="690" 
d="M606 1434l-362 -1705h-117l362 1705h117z" />
    <glyph glyph-name="braceright" unicode="}" horiz-adv-x="849" 
d="M-56 -268l22 108h47q121 0 193 61t93 211l20 143q38 273 267 333q-91 35 -125.5 118.5t-1.5 204.5l41 149q35 130 -13 197.5t-157 67.5h-68l23 109h67q167 0 237.5 -111.5t22.5 -290.5l-37 -134q-34 -128 17 -194.5t168 -66.5l-23 -109q-128 0 -201.5 -64.5t-94.5 -207.5
l-22 -155q-52 -369 -418 -369h-57z" />
    <glyph glyph-name="asciitilde" unicode="~" horiz-adv-x="1228" 
d="M1017 635l52 -79q-66 -58 -130.5 -85.5t-141.5 -27.5q-60 0 -110 14.5t-79.5 32.5t-75.5 32.5t-98 14.5q-56 0 -102 -22t-101 -70l-53 79q130 113 273 113q60 0 110 -14.5t79.5 -32t75 -32t97.5 -14.5q56 0 103 22t101 69z" />
    <glyph glyph-name="uni00A0" unicode="&#xa0;" horiz-adv-x="542" 
 />
    <glyph glyph-name="exclamdown" unicode="&#xa1;" horiz-adv-x="516" 
d="M-15 -470l229 988h100l-187 -988h-142zM337 781q-39 0 -68 29.5t-29 68.5q0 40 29 69.5t68 29.5t68.5 -29.5t29.5 -69.5q0 -39 -29.5 -68.5t-68.5 -29.5z" />
    <glyph glyph-name="cent" unicode="&#xa2;" horiz-adv-x="1433" 
d="M1262 1034l-88 -65q-85 103 -215 127l-163 -767h7q171 0 290 113l64 -75q-69 -70 -162.5 -108.5t-195.5 -38.5q-18 0 -26 1l-47 -221h-109l51 237q-149 39 -237.5 157t-88.5 277q0 109 41 207.5t111.5 171.5t170 116.5t211.5 44.5l47 223h108l-49 -231q176 -29 280 -169z
M460 678q0 -120 63.5 -209.5t167.5 -122.5l161 757q-166 -10 -279 -133.5t-113 -291.5z" />
    <glyph glyph-name="sterling" unicode="&#xa3;" horiz-adv-x="1433" 
d="M1177 115l-25 -115h-1028l24 115h188l116 549h-187l23 106h186l48 225q32 151 107.5 255.5t172.5 151.5t211 47q121 0 212.5 -47t142.5 -138l-100 -66q-82 136 -263 136q-63 0 -118 -20t-104 -62.5t-87 -115t-59 -170.5l-42 -196h539l-23 -106h-539l-115 -549h720z" />
    <glyph glyph-name="currency" unicode="&#xa4;" horiz-adv-x="1433" 
d="M1253 1183l59 -74l-172 -141q81 -122 63 -275q-19 -155 -137 -270l99 -125l-79 -65l-99 125q-126 -81 -272 -74q-156 9 -261 111l-172 -143l-59 74l171 140q-79 122 -61 274q20 157 135 269l-99 126l77 65l101 -127q127 83 274 76q150 -9 259 -111zM726 380
q141 -7 251.5 86t128.5 233q17 140 -69.5 243.5t-227.5 110.5t-251.5 -86t-127.5 -233q-18 -140 68 -243.5t228 -110.5z" />
    <glyph glyph-name="yen" unicode="&#xa5;" horiz-adv-x="1433" 
d="M1179 443l-21 -97h-410l-74 -346h-120l73 346h-410l22 97h408l48 226h-409l21 97h358l-335 668h135l310 -629l578 629h148l-613 -668h359l-21 -97h-410l-48 -226h411z" />
    <glyph glyph-name="brokenbar" unicode="&#xa6;" horiz-adv-x="690" 
d="M606 1434l-151 -711h-117l151 711h117zM395 439l-151 -710h-117l152 710h116z" />
    <glyph glyph-name="section" unicode="&#xa7;" horiz-adv-x="1276" 
d="M1277 1299l-72 -90q-156 130 -384 130q-152 0 -260.5 -61.5t-126.5 -152.5q-22 -107 45 -163.5t215 -73.5l116 -12q178 -19 275.5 -109t68.5 -228q-35 -160 -212 -244q125 -94 92 -259q-30 -150 -175 -239t-350 -89q-142 0 -273 47.5t-205 119.5l77 88q64 -60 172.5 -103
t234.5 -43q160 0 270 60.5t130 159.5q21 107 -53 162t-224 73l-122 15q-177 21 -266 105t-61 217q36 165 212 249q-123 89 -87 264q29 143 172 235t340 92q141 0 258 -41.5t193 -108.5zM624 783q-67 7 -124 26q-77 -29 -128.5 -80.5t-64.5 -111.5q-23 -100 49.5 -155
t231.5 -72l115 -12q79 -9 145 -33q77 30 128.5 78t63.5 106q22 104 -60.5 165.5t-234.5 76.5z" />
    <glyph glyph-name="dieresis" unicode="&#xa8;" horiz-adv-x="935" 
d="M430 1341q35 0 59.5 -25t24.5 -60t-24.5 -58.5t-59.5 -23.5t-59 23.5t-24 58.5t24 60t59 25zM849 1341q35 0 60 -25t25 -60t-24.5 -58.5t-60.5 -23.5q-35 0 -59 23.5t-24 58.5t24 60t59 25z" />
    <glyph glyph-name="copyright" unicode="&#xa9;" horiz-adv-x="1933" 
d="M962 -88q-124 0 -240 36t-211 104.5t-166.5 160t-111 208.5t-39.5 245q0 167 68.5 325t184.5 277.5t281 191.5t347 72q155 0 295.5 -57t244.5 -156t165.5 -240t61.5 -301q0 -167 -68.5 -325t-184.5 -277t-280.5 -191.5t-346.5 -72.5zM1067 1430q-158 0 -302 -63.5
t-244.5 -168.5t-160 -243t-59.5 -283q0 -139 53.5 -262.5t144.5 -209.5t213.5 -136t256.5 -50q159 0 302.5 64t244.5 168.5t160.5 242.5t59.5 283q0 140 -54 263t-144.5 209t-213.5 136t-257 50zM1428 959l-94 -54q-41 76 -116 113t-153 37q-152 0 -252 -106.5t-100 -257.5
q0 -134 87 -217.5t215 -83.5q82 0 154 35.5t118 99.5l72 -65q-61 -82 -152 -127t-197 -45q-172 0 -290 109.5t-118 287.5q0 127 59 235t167 172.5t242 64.5q117 0 214 -53.5t144 -144.5z" />
    <glyph glyph-name="ordfeminine" unicode="&#xaa;" horiz-adv-x="758" 
d="M519 1329q120 0 189.5 -60t69.5 -166q0 -33 -8 -76l-81 -378h-94l18 88q-102 -99 -240 -99q-98 0 -158 48.5t-60 129.5q0 94 73 156.5t218 62.5h228q7 28 7 58q0 72 -46.5 111t-132.5 39q-107 0 -211 -66l-28 78q117 74 256 74zM399 719q64 0 126 28t106 78l28 138h-205
q-100 0 -148.5 -39.5t-48.5 -96.5q0 -51 38 -79.5t104 -28.5z" />
    <glyph glyph-name="guillemotleft" unicode="&#xab;" horiz-adv-x="1021" 
d="M939 912l-287 -385l116 -360h-119l-119 373l277 372h132zM551 912l-287 -385l116 -360h-119l-119 373l277 372h132z" />
    <glyph glyph-name="logicalnot" unicode="&#xac;" horiz-adv-x="1228" 
d="M969 162h-109l69 324h-764l22 106h873z" />
    <glyph glyph-name="uni00AD" unicode="&#xad;" horiz-adv-x="833" 
d="M714 592l-23 -106h-546l22 106h547z" />
    <glyph glyph-name="registered" unicode="&#xae;" horiz-adv-x="960" 
d="M634 1465q154 0 262 -104t108 -262q0 -108 -55 -204.5t-153 -155.5t-214 -59q-154 0 -263.5 104.5t-109.5 262.5q0 82 33 158.5t89.5 133.5t135.5 91.5t167 34.5zM585 752q142 0 241 104t99 239q0 130 -86.5 214.5t-208.5 84.5q-142 0 -242.5 -103t-100.5 -240
q0 -130 87.5 -214.5t210.5 -84.5zM509 1266h151q67 0 102.5 -38t23.5 -89q-22 -97 -151 -103l110 -147h-73l-105 147h-43l-30 -147h-65zM654 1209h-93l-25 -120h92q79 0 93 55q7 28 -11.5 46.5t-55.5 18.5z" />
    <glyph glyph-name="macron" unicode="&#xaf;" horiz-adv-x="925" 
d="M323 1208l20 96h599l-20 -96h-599z" />
    <glyph glyph-name="degree" unicode="&#xb0;" horiz-adv-x="779" 
d="M499 773q-134 0 -225.5 91t-91.5 222q0 146 105 253.5t260 107.5q134 0 225.5 -91t91.5 -222q0 -145 -106 -253t-259 -108zM505 868q104 0 180.5 77.5t76.5 181.5q0 94 -64 160t-156 66q-105 0 -181.5 -78t-76.5 -182q0 -94 64 -159.5t157 -65.5z" />
    <glyph glyph-name="plusminus" unicode="&#xb1;" horiz-adv-x="1228" 
d="M626 305h-108l71 333h-380l22 106h380l79 370h108l-79 -370h385l-23 -106h-385zM984 180l-23 -106h-872l23 106h872z" />
    <glyph glyph-name="twosuperior" unicode="&#xb2;" horiz-adv-x="672" 
d="M307 1256l-59 59q42 54 106 90.5t145 36.5q110 0 169.5 -61.5t59.5 -147.5q0 -74 -41 -136.5t-129 -138.5l-255 -220h357l-18 -89h-499l17 76l336 290q70 60 102 107.5t32 98.5q0 54 -38 92t-106 38q-101 0 -179 -95z" />
    <glyph glyph-name="threesuperior" unicode="&#xb3;" horiz-adv-x="660" 
d="M285 1269l-49 66q99 107 252 107q104 0 169.5 -54.5t65.5 -134.5q0 -70 -48 -130t-131 -83q55 -20 85 -62t30 -97q0 -101 -77.5 -171t-217.5 -70q-167 0 -242 99l64 60q59 -72 180 -72q97 0 146.5 45t49.5 111q0 55 -42.5 88t-110.5 33h-102l18 83h99q91 0 145 46t54 106
q0 51 -41.5 83.5t-106.5 32.5q-111 0 -190 -86z" />
    <glyph glyph-name="acute" unicode="&#xb4;" horiz-adv-x="925" 
d="M550 1108h-121l259 307h152z" />
    <glyph glyph-name="mu" unicode="&#xb5;" horiz-adv-x="1205" 
d="M95 -410h-118l294 1374h117l-116 -543q-10 -52 -10 -89q0 -107 66 -172t191 -65q141 0 243.5 87.5t134.5 237.5l116 544h116l-204 -964h-116l29 136q-131 -151 -338 -151q-97 0 -173.5 35t-118.5 100z" />
    <glyph glyph-name="paragraph" unicode="&#xb6;" horiz-adv-x="1132" 
d="M449 0l162 767q-157 4 -247.5 88t-90.5 217q0 51 12.5 99.5t44.5 97t80 84.5t125.5 58.5t174.5 22.5h137l-305 -1434h-93zM650 0l305 1434h94l-306 -1434h-93z" />
    <glyph glyph-name="periodcentered" unicode="&#xb7;" horiz-adv-x="734" 
d="M386 638q39 0 68 -29t29 -69q0 -39 -29 -69t-68 -30t-68.5 30t-29.5 69q0 40 29.5 69t68.5 29z" />
    <glyph glyph-name="cedilla" unicode="&#xb8;" horiz-adv-x="1024" 
d="M551 5l-172 -336h-130l182 337z" />
    <glyph glyph-name="onesuperior" unicode="&#xb9;" horiz-adv-x="529" 
d="M582 1441l-168 -792h-96l141 659l-247 -86l20 99z" />
    <glyph glyph-name="ordmasculine" unicode="&#xba;" horiz-adv-x="857" 
d="M563 1329q140 0 230.5 -88.5t90.5 -224.5q0 -156 -109 -267t-268 -111q-139 0 -229.5 88t-90.5 225q0 156 108.5 267t267.5 111zM556 1239q-114 0 -191.5 -83t-77.5 -200q0 -100 63 -164t163 -64q114 0 192.5 83t78.5 200q0 99 -64 163.5t-164 64.5z" />
    <glyph glyph-name="guillemotright" unicode="&#xbb;" horiz-adv-x="1021" 
d="M108 167l286 385l-115 360h118l119 -372l-276 -373h-132zM496 167l286 385l-115 360h118l119 -372l-276 -373h-132z" />
    <glyph glyph-name="onequarter" unicode="&#xbc;" horiz-adv-x="1555" 
d="M1360 1434l-1080 -1434h-124l1080 1434h124zM1382 471l-47 -220h132l-18 -89h-133l-34 -162h-95l35 162h-365l15 77l370 543h110l-361 -531h249l47 220h95zM582 1441l-168 -792h-96l141 659l-247 -86l20 99z" />
    <glyph glyph-name="onehalf" unicode="&#xbd;" horiz-adv-x="1642" 
d="M1360 1434l-1080 -1434h-124l1080 1434h124zM1138 607l-60 59q42 54 106 90.5t145 36.5q110 0 170 -61.5t60 -147.5q0 -74 -41 -136.5t-129 -138.5l-255 -220h357l-18 -89h-499l16 76l336 290q70 60 102 107t32 98q0 54 -37.5 92t-105.5 38q-102 0 -179 -94zM582 1441
l-168 -792h-96l141 659l-247 -86l20 99z" />
    <glyph glyph-name="threequarters" unicode="&#xbe;" horiz-adv-x="1677" 
d="M1481 1434l-1081 -1434h-124l1081 1434h124zM1504 471l-47 -220h132l-18 -89h-133l-34 -162h-95l34 162h-364l15 77l370 543h110l-361 -531h249l47 220h95zM285 1269l-49 66q99 107 252 107q104 0 169.5 -54.5t65.5 -134.5q0 -70 -48 -130t-131 -83q55 -20 85 -62t30 -97
q0 -101 -77.5 -171t-217.5 -70q-167 0 -242 99l64 60q59 -72 180 -72q97 0 146.5 45t49.5 111q0 55 -42.5 88t-110.5 33h-102l18 83h99q91 0 145 46t54 106q0 51 -41.5 83.5t-106.5 32.5q-111 0 -190 -86z" />
    <glyph glyph-name="questiondown" unicode="&#xbf;" horiz-adv-x="846" 
d="M527 518h107l-67 -317h-64q-193 0 -296 -80.5t-103 -217.5q0 -124 106.5 -196t271.5 -72q14 0 38 2t26 2l-5 -120q-35 -3 -80 -3q-213 0 -351 101.5t-138 269.5q0 184 130.5 298t373.5 125zM650 782q-40 0 -69 29.5t-29 69.5q0 39 29 68.5t69 29.5q39 0 69 -29.5
t30 -68.5q0 -40 -30 -69.5t-69 -29.5z" />
    <glyph glyph-name="Agrave" unicode="&#xc0;" horiz-adv-x="1439" 
d="M997 1434l292 -1434h-128l-84 419h-735l-260 -419h-136l898 1434h153zM898 1310l-482 -772h637zM946 1533l-257 307h148l225 -307h-116z" />
    <glyph glyph-name="Aacute" unicode="&#xc1;" horiz-adv-x="1439" 
d="M997 1434l292 -1434h-128l-84 419h-735l-260 -419h-136l898 1434h153zM898 1310l-482 -772h637zM900 1533h-121l259 307h152z" />
    <glyph glyph-name="Acircumflex" unicode="&#xc2;" horiz-adv-x="1439" 
d="M997 1434l292 -1434h-128l-84 419h-735l-260 -419h-136l898 1434h153zM898 1310l-482 -772h637zM1246 1539h-123l-157 218l-245 -218h-132l309 289h154z" />
    <glyph glyph-name="Atilde" unicode="&#xc3;" horiz-adv-x="1439" 
d="M997 1434l292 -1434h-128l-84 419h-735l-260 -419h-136l898 1434h153zM898 1310l-482 -772h637zM675 1604l-67 69q51 58 103 84.5t118 26.5q47 0 86.5 -14t62 -30t53 -30t61.5 -14q77 0 153 79l67 -70q-51 -58 -103 -84.5t-118 -26.5q-47 0 -86 14t-61.5 30.5t-53 30.5
t-62.5 14q-76 0 -153 -79z" />
    <glyph glyph-name="Adieresis" unicode="&#xc4;" horiz-adv-x="1439" 
d="M997 1434l292 -1434h-128l-84 419h-735l-260 -419h-136l898 1434h153zM898 1310l-482 -772h637zM757 1766q35 0 59.5 -25t24.5 -60t-24.5 -59t-59.5 -24t-59 24t-24 59t24 60t59 25zM1176 1766q35 0 60 -25t25 -60t-25 -59t-60 -24t-59 24t-24 59t24 60t59 25z" />
    <glyph glyph-name="Aring" unicode="&#xc5;" horiz-adv-x="1439" 
d="M997 1434l292 -1434h-128l-84 419h-735l-260 -419h-136l898 1434h153zM898 1310l-482 -772h637zM950 1517q-91 0 -155.5 63.5t-64.5 154.5q0 90 64.5 154t155.5 64t155.5 -64t64.5 -154q0 -91 -64.5 -154.5t-155.5 -63.5zM950 1591q59 0 100.5 42t41.5 102
q0 59 -41.5 100.5t-100.5 41.5t-100 -41.5t-41 -100.5q0 -60 41 -102t100 -42z" />
    <glyph glyph-name="AE" unicode="&#xc6;" horiz-adv-x="2294" 
d="M2064 118l-25 -118h-970l85 399h-674l-384 -399h-159l1382 1434h1014l-25 -118h-832l-114 -536h813l-26 -116h-812l-116 -546h843zM595 518h584l166 778z" />
    <glyph glyph-name="Ccedilla" unicode="&#xc7;" horiz-adv-x="1528" 
d="M1304 319l82 -79q-92 -115 -222.5 -181t-281.5 -74l-161 -316h-135l172 320q-259 28 -423.5 210t-164.5 453q0 167 60 315t164.5 254t251 167t312.5 61q52 0 104 -6t120 -26t127 -51t118.5 -86.5t100.5 -127.5l-96 -76q-50 90 -134.5 149t-170 81.5t-176.5 22.5
q-182 0 -331.5 -88t-234 -240.5t-84.5 -337.5q0 -245 156.5 -402t393.5 -157q133 0 252 57t201 158z" />
    <glyph glyph-name="Egrave" unicode="&#xc8;" horiz-adv-x="1328" 
d="M1208 780l-25 -116h-812l-117 -546h844l-26 -118h-970l306 1434h958l-25 -118h-832l-114 -536h813zM913 1533l-257 307h148l225 -307h-116z" />
    <glyph glyph-name="Eacute" unicode="&#xc9;" horiz-adv-x="1328" 
d="M1208 780l-25 -116h-812l-117 -546h844l-26 -118h-970l306 1434h958l-25 -118h-832l-114 -536h813zM867 1533h-121l260 307h151z" />
    <glyph glyph-name="Ecircumflex" unicode="&#xca;" horiz-adv-x="1328" 
d="M1208 780l-25 -116h-812l-117 -546h844l-26 -118h-970l306 1434h958l-25 -118h-832l-114 -536h813zM1213 1539h-122l-158 218l-245 -218h-132l309 289h154z" />
    <glyph glyph-name="Edieresis" unicode="&#xcb;" horiz-adv-x="1328" 
d="M1208 780l-25 -116h-812l-117 -546h844l-26 -118h-970l306 1434h958l-25 -118h-832l-114 -536h813zM724 1766q35 0 59.5 -25t24.5 -60t-24.5 -59t-59.5 -24t-59 24t-24 59t24 60t59 25zM1143 1766q35 0 60 -25t25 -60t-25 -59t-60 -24t-59 24t-24 59t24 60t59 25z" />
    <glyph glyph-name="Igrave" unicode="&#xcc;" horiz-adv-x="536" 
d="M535 1434l-306 -1434h-127l306 1434h127zM498 1533l-257 307h147l225 -307h-115z" />
    <glyph glyph-name="Iacute" unicode="&#xcd;" horiz-adv-x="536" 
d="M535 1434l-306 -1434h-127l306 1434h127zM452 1533h-121l259 307h151z" />
    <glyph glyph-name="Icircumflex" unicode="&#xce;" horiz-adv-x="536" 
d="M535 1434l-306 -1434h-127l306 1434h127zM798 1539h-123l-158 218l-245 -218h-132l310 289h153z" />
    <glyph glyph-name="Idieresis" unicode="&#xcf;" horiz-adv-x="536" 
d="M535 1434l-306 -1434h-127l306 1434h127zM308 1766q35 0 59.5 -25t24.5 -60t-24.5 -59t-59.5 -24t-59 24t-24 59t24 60t59 25zM727 1766q35 0 60 -25t25 -60t-25 -59t-60 -24t-59 24t-24 59t24 60t59 25z" />
    <glyph glyph-name="Eth" unicode="&#xd0;" horiz-adv-x="1774" 
d="M586 1434h464q314 0 490 -160t176 -431q0 -178 -61 -330.5t-175 -267t-291 -180t-397 -65.5h-511l140 663h-259l25 118h259zM994 781l-25 -118h-421l-116 -544h373q186 0 335.5 54.5t245.5 151t147 225.5t51 281q0 223 -140.5 353.5t-407.5 130.5h-349l-114 -534h421z
" />
    <glyph glyph-name="Ntilde" unicode="&#xd1;" horiz-adv-x="1576" 
d="M1575 1434l-306 -1434h-116l-660 1237l-264 -1237h-127l306 1434h117l659 -1237l263 1237h128zM737 1604l-66 69q51 58 103 84.5t118 26.5q47 0 86.5 -14t62 -30t52.5 -30t61 -14q78 0 154 79l66 -70q-51 -58 -103 -84.5t-118 -26.5q-47 0 -86 14t-61 30.5t-52.5 30.5
t-62.5 14q-77 0 -154 -79z" />
    <glyph glyph-name="Ograve" unicode="&#xd2;" horiz-adv-x="1701" 
d="M953 1449q143 0 267.5 -47t216 -132t144 -210t52.5 -273q0 -162 -58.5 -309.5t-160.5 -256t-249.5 -173t-315.5 -64.5q-143 0 -268 47t-216.5 132t-144 210t-52.5 273q0 217 99.5 400.5t280.5 293t405 109.5zM943 1329q-139 0 -260.5 -55t-204.5 -147t-131 -215t-48 -257
q0 -165 74 -291.5t200.5 -193t285.5 -66.5q139 0 260 54.5t204.5 147t131 215.5t47.5 257q0 249 -158.5 400t-400.5 151zM1006 1533l-257 307h147l225 -307h-115z" />
    <glyph glyph-name="Oacute" unicode="&#xd3;" horiz-adv-x="1701" 
d="M953 1449q143 0 267.5 -47t216 -132t144 -210t52.5 -273q0 -162 -58.5 -309.5t-160.5 -256t-249.5 -173t-315.5 -64.5q-143 0 -268 47t-216.5 132t-144 210t-52.5 273q0 217 99.5 400.5t280.5 293t405 109.5zM943 1329q-139 0 -260.5 -55t-204.5 -147t-131 -215t-48 -257
q0 -165 74 -291.5t200.5 -193t285.5 -66.5q139 0 260 54.5t204.5 147t131 215.5t47.5 257q0 249 -158.5 400t-400.5 151zM959 1533h-120l259 307h151z" />
    <glyph glyph-name="Ocircumflex" unicode="&#xd4;" horiz-adv-x="1701" 
d="M953 1449q143 0 267.5 -47t216 -132t144 -210t52.5 -273q0 -162 -58.5 -309.5t-160.5 -256t-249.5 -173t-315.5 -64.5q-143 0 -268 47t-216.5 132t-144 210t-52.5 273q0 217 99.5 400.5t280.5 293t405 109.5zM943 1329q-139 0 -260.5 -55t-204.5 -147t-131 -215t-48 -257
q0 -165 74 -291.5t200.5 -193t285.5 -66.5q139 0 260 54.5t204.5 147t131 215.5t47.5 257q0 249 -158.5 400t-400.5 151zM1306 1539h-123l-158 218l-245 -218h-132l309 289h154z" />
    <glyph glyph-name="Otilde" unicode="&#xd5;" horiz-adv-x="1701" 
d="M953 1449q143 0 267.5 -47t216 -132t144 -210t52.5 -273q0 -162 -58.5 -309.5t-160.5 -256t-249.5 -173t-315.5 -64.5q-143 0 -268 47t-216.5 132t-144 210t-52.5 273q0 217 99.5 400.5t280.5 293t405 109.5zM943 1329q-139 0 -260.5 -55t-204.5 -147t-131 -215t-48 -257
q0 -165 74 -291.5t200.5 -193t285.5 -66.5q139 0 260 54.5t204.5 147t131 215.5t47.5 257q0 249 -158.5 400t-400.5 151zM734 1604l-66 69q51 58 103 84.5t118 26.5q47 0 86.5 -14t62 -30t52.5 -30t61 -14q78 0 154 79l66 -70q-51 -58 -103 -84.5t-118 -26.5q-47 0 -86 14
t-61 30.5t-52.5 30.5t-62.5 14q-77 0 -154 -79z" />
    <glyph glyph-name="Odieresis" unicode="&#xd6;" horiz-adv-x="1701" 
d="M953 1449q143 0 267.5 -47t216 -132t144 -210t52.5 -273q0 -162 -58.5 -309.5t-160.5 -256t-249.5 -173t-315.5 -64.5q-143 0 -268 47t-216.5 132t-144 210t-52.5 273q0 217 99.5 400.5t280.5 293t405 109.5zM943 1329q-139 0 -260.5 -55t-204.5 -147t-131 -215t-48 -257
q0 -165 74 -291.5t200.5 -193t285.5 -66.5q139 0 260 54.5t204.5 147t131 215.5t47.5 257q0 249 -158.5 400t-400.5 151zM816 1766q35 0 59.5 -25t24.5 -60t-24.5 -59t-59.5 -24t-59 24t-24 59t24 60t59 25zM1235 1766q35 0 60 -25t25 -60t-25 -59t-60 -24t-59 24t-24 59
t24 60t59 25z" />
    <glyph glyph-name="multiply" unicode="&#xd7;" horiz-adv-x="1228" 
d="M931 230l-83 -68l-238 302l-378 -311l-64 81l370 306l-241 305l83 68l235 -299l382 316l66 -82l-375 -308z" />
    <glyph glyph-name="Oslash" unicode="&#xd8;" horiz-adv-x="1701" 
d="M953 1449q145 0 271.5 -48t218.5 -137l209 186l75 -84l-210 -188q116 -163 116 -391q0 -162 -58.5 -309.5t-160.5 -256t-249.5 -173t-315.5 -64.5q-288 0 -478 174l-197 -174l-75 84l196 174q-127 171 -127 404q0 217 99.5 400.5t280.5 293t405 109.5zM943 1329
q-139 0 -260.5 -55t-204.5 -147t-131 -215t-48 -257q0 -186 95 -325l952 847q-155 152 -403 152zM1502 778q0 176 -86 311l-948 -844q155 -141 391 -141q139 0 260 54.5t204.5 147t131 215.5t47.5 257z" />
    <glyph glyph-name="Ugrave" unicode="&#xd9;" horiz-adv-x="1504" 
d="M1522 1434l-187 -881q-61 -287 -233 -427.5t-425 -140.5q-103 0 -191 26.5t-155.5 78t-106 135.5t-38.5 193q0 72 18 156l183 860h128l-183 -857q-16 -74 -16 -139q0 -169 102.5 -251.5t272.5 -82.5q195 0 332 114.5t186 343.5l185 872h128zM981 1533l-257 307h147
l226 -307h-116z" />
    <glyph glyph-name="Uacute" unicode="&#xda;" horiz-adv-x="1504" 
d="M1522 1434l-187 -881q-61 -287 -233 -427.5t-425 -140.5q-103 0 -191 26.5t-155.5 78t-106 135.5t-38.5 193q0 72 18 156l183 860h128l-183 -857q-16 -74 -16 -139q0 -169 102.5 -251.5t272.5 -82.5q195 0 332 114.5t186 343.5l185 872h128zM935 1533h-121l259 307h152z
" />
    <glyph glyph-name="Ucircumflex" unicode="&#xdb;" horiz-adv-x="1504" 
d="M1522 1434l-187 -881q-61 -287 -233 -427.5t-425 -140.5q-103 0 -191 26.5t-155.5 78t-106 135.5t-38.5 193q0 72 18 156l183 860h128l-183 -857q-16 -74 -16 -139q0 -169 102.5 -251.5t272.5 -82.5q195 0 332 114.5t186 343.5l185 872h128zM1281 1539h-123l-158 218
l-244 -218h-132l309 289h153z" />
    <glyph glyph-name="Udieresis" unicode="&#xdc;" horiz-adv-x="1504" 
d="M1522 1434l-187 -881q-61 -287 -233 -427.5t-425 -140.5q-103 0 -191 26.5t-155.5 78t-106 135.5t-38.5 193q0 72 18 156l183 860h128l-183 -857q-16 -74 -16 -139q0 -169 102.5 -251.5t272.5 -82.5q195 0 332 114.5t186 343.5l185 872h128zM792 1766q35 0 59.5 -25
t24.5 -60t-24.5 -59t-59.5 -24t-59 24t-24 59t24 60t59 25zM1210 1766q35 0 60 -25t25 -60t-25 -59t-60 -24t-59 24t-24 59t24 60t59 25z" />
    <glyph glyph-name="Yacute" unicode="&#xdd;" horiz-adv-x="1278" 
d="M1467 1434l-737 -821l-130 -613h-127l132 625l-388 809h135l336 -697l621 697h158zM811 1533h-121l259 307h152z" />
    <glyph glyph-name="Thorn" unicode="&#xde;" horiz-adv-x="1331" 
d="M535 1434l-60 -277h366q210 0 327.5 -97.5t117.5 -266.5q0 -102 -36.5 -189.5t-108 -154t-185.5 -104.5t-260 -38h-401l-66 -307h-127l306 1434h127zM829 1039h-378l-132 -613h382q117 0 206 27.5t142.5 76.5t80 112.5t26.5 138.5q0 124 -85.5 191t-241.5 67z" />
    <glyph glyph-name="germandbls" unicode="&#xdf;" horiz-adv-x="1217" 
d="M67 0l221 1039q48 223 185.5 337t338.5 114q171 0 282.5 -97t111.5 -245q0 -135 -84.5 -249t-223.5 -155q111 -35 169 -146t32 -239q-25 -124 -96.5 -209.5t-168.5 -125t-214 -39.5q-163 0 -256 58l50 98q77 -48 201 -48q143 0 242 72.5t125 203.5q27 138 -49.5 231.5
t-229.5 93.5h-85l24 106h46q158 0 261 73q64 45 101 118.5t37 145.5q0 108 -81 175.5t-199 67.5q-72 0 -134.5 -20t-117 -61t-94 -110.5t-59.5 -162.5l-218 -1026h-117z" />
    <glyph glyph-name="agrave" unicode="&#xe0;" horiz-adv-x="1239" 
d="M640 979q135 0 229 -66t130 -174l49 225h115l-205 -964h-115l31 146q-145 -161 -367 -161q-181 0 -299 120.5t-118 304.5q0 151 72 281.5t199.5 209t278.5 78.5zM527 94q158 0 277.5 108t145.5 271q26 167 -63.5 281.5t-249.5 114.5q-177 0 -302 -132t-125 -316
q0 -142 86.5 -234.5t230.5 -92.5zM699 1108l-257 307h148l225 -307h-116z" />
    <glyph glyph-name="aacute" unicode="&#xe1;" horiz-adv-x="1239" 
d="M640 979q135 0 229 -66t130 -174l49 225h115l-205 -964h-115l31 146q-145 -161 -367 -161q-181 0 -299 120.5t-118 304.5q0 151 72 281.5t199.5 209t278.5 78.5zM527 94q158 0 277.5 108t145.5 271q26 167 -63.5 281.5t-249.5 114.5q-177 0 -302 -132t-125 -316
q0 -142 86.5 -234.5t230.5 -92.5zM692 1109h-121l259 307h152z" />
    <glyph glyph-name="acircumflex" unicode="&#xe2;" horiz-adv-x="1239" 
d="M640 979q135 0 229 -66t130 -174l49 225h115l-205 -964h-115l31 146q-145 -161 -367 -161q-181 0 -299 120.5t-118 304.5q0 151 72 281.5t199.5 209t278.5 78.5zM527 94q158 0 277.5 108t145.5 271q26 167 -63.5 281.5t-249.5 114.5q-177 0 -302 -132t-125 -316
q0 -142 86.5 -234.5t230.5 -92.5zM1020 1114h-123l-158 218l-244 -218h-133l310 289h153z" />
    <glyph glyph-name="atilde" unicode="&#xe3;" horiz-adv-x="1239" 
d="M640 979q135 0 229 -66t130 -174l49 225h115l-205 -964h-115l31 146q-145 -161 -367 -161q-181 0 -299 120.5t-118 304.5q0 151 72 281.5t199.5 209t278.5 78.5zM527 94q158 0 277.5 108t145.5 271q26 167 -63.5 281.5t-249.5 114.5q-177 0 -302 -132t-125 -316
q0 -142 86.5 -234.5t230.5 -92.5zM428 1179l-67 69q51 57 103.5 84t118.5 27q47 0 86.5 -13.5t62 -30.5t52.5 -30.5t61 -13.5q77 0 153 79l67 -70q-51 -58 -103 -84.5t-118 -26.5q-47 0 -86 14t-61 30.5t-52.5 30.5t-62.5 14q-77 0 -154 -79z" />
    <glyph glyph-name="adieresis" unicode="&#xe4;" horiz-adv-x="1239" 
d="M640 979q135 0 229 -66t130 -174l49 225h115l-205 -964h-115l31 146q-145 -161 -367 -161q-181 0 -299 120.5t-118 304.5q0 151 72 281.5t199.5 209t278.5 78.5zM527 94q158 0 277.5 108t145.5 271q26 167 -63.5 281.5t-249.5 114.5q-177 0 -302 -132t-125 -316
q0 -142 86.5 -234.5t230.5 -92.5zM518 1341q35 0 59.5 -25t24.5 -60t-24.5 -58.5t-59.5 -23.5t-59 23.5t-24 58.5t24 60t59 25zM937 1341q35 0 60 -25t25 -60t-24.5 -58.5t-60.5 -23.5q-35 0 -59 23.5t-24 58.5t24 60t59 25z" />
    <glyph glyph-name="aring" unicode="&#xe5;" horiz-adv-x="1239" 
d="M640 979q135 0 229 -66t130 -174l49 225h115l-205 -964h-115l31 146q-145 -161 -367 -161q-181 0 -299 120.5t-118 304.5q0 151 72 281.5t199.5 209t278.5 78.5zM527 94q158 0 277.5 108t145.5 271q26 167 -63.5 281.5t-249.5 114.5q-177 0 -302 -132t-125 -316
q0 -142 86.5 -234.5t230.5 -92.5zM705 1092q-91 0 -156 64t-65 154t65 154t156 64t155.5 -64t64.5 -154q0 -91 -64.5 -154.5t-155.5 -63.5zM705 1166q59 0 100 42t41 102q0 59 -41 100.5t-100 41.5t-100.5 -41.5t-41.5 -100.5q0 -60 41.5 -102t100.5 -42z" />
    <glyph glyph-name="ae" unicode="&#xe6;" horiz-adv-x="1826" 
d="M1576 214l58 -81q-85 -76 -178.5 -112.5t-215.5 -36.5q-136 0 -234.5 56.5t-148.5 155.5q-91 -101 -207 -156t-246 -55q-147 0 -237.5 69.5t-90.5 184.5q0 129 103.5 215t305.5 86h343l2 10q13 63 13 95q0 109 -71 168.5t-199 59.5q-153 0 -300 -94l-44 92
q165 108 364 108q135 0 222.5 -56t119.5 -163q69 101 176.5 160t244.5 59q176 0 284 -104t108 -276q0 -84 -27 -160h-791q-1 -12 -1 -36q0 -142 86.5 -229.5t236.5 -87.5q187 0 324 128zM1351 876q-154 0 -260 -97t-144 -239h681q4 25 4 56q0 128 -77 204t-204 76zM419 87
q109 0 216 52.5t188 149.5q-12 52 -12 110q0 15 2 43h-320q-148 0 -219.5 -56.5t-71.5 -135.5q0 -77 58.5 -120t158.5 -43z" />
    <glyph glyph-name="ccedilla" unicode="&#xe7;" horiz-adv-x="1032" 
d="M1005 799l-92 -66q-105 135 -286 135q-172 0 -291.5 -124.5t-119.5 -300.5q0 -151 95.5 -249t239.5 -98q167 0 283 114l67 -77q-127 -131 -317 -144l-163 -320h-130l175 324q-167 26 -268.5 148t-101.5 295q0 110 41 210t112 173t171 116t212 43q250 0 373 -179z" />
    <glyph glyph-name="egrave" unicode="&#xe8;" horiz-adv-x="1103" 
d="M853 214l58 -81q-85 -76 -178.5 -112.5t-215.5 -36.5q-199 0 -314 116.5t-115 298.5q0 105 38 207.5t106 186t173 135t228 51.5q176 0 284 -104t108 -276q0 -80 -26 -160h-792q-1 -12 -1 -36q0 -142 86.5 -229.5t236.5 -87.5q187 0 324 128zM628 876q-79 0 -148 -27.5
t-119 -75.5t-84.5 -107t-52.5 -126h681q4 25 4 56q0 128 -77 204t-204 76zM665 1108l-257 307h147l225 -307h-115z" />
    <glyph glyph-name="eacute" unicode="&#xe9;" horiz-adv-x="1103" 
d="M853 214l58 -81q-85 -76 -178.5 -112.5t-215.5 -36.5q-199 0 -314 116.5t-115 298.5q0 105 38 207.5t106 186t173 135t228 51.5q176 0 284 -104t108 -276q0 -80 -26 -160h-792q-1 -12 -1 -36q0 -142 86.5 -229.5t236.5 -87.5q187 0 324 128zM628 876q-79 0 -148 -27.5
t-119 -75.5t-84.5 -107t-52.5 -126h681q4 25 4 56q0 128 -77 204t-204 76zM657 1109h-120l259 307h151z" />
    <glyph glyph-name="ecircumflex" unicode="&#xea;" horiz-adv-x="1103" 
d="M853 214l58 -81q-85 -76 -178.5 -112.5t-215.5 -36.5q-199 0 -314 116.5t-115 298.5q0 105 38 207.5t106 186t173 135t228 51.5q176 0 284 -104t108 -276q0 -80 -26 -160h-792q-1 -12 -1 -36q0 -142 86.5 -229.5t236.5 -87.5q187 0 324 128zM628 876q-79 0 -148 -27.5
t-119 -75.5t-84.5 -107t-52.5 -126h681q4 25 4 56q0 128 -77 204t-204 76zM985 1114h-123l-157 218l-245 -218h-132l309 289h154z" />
    <glyph glyph-name="edieresis" unicode="&#xeb;" horiz-adv-x="1103" 
d="M853 214l58 -81q-85 -76 -178.5 -112.5t-215.5 -36.5q-199 0 -314 116.5t-115 298.5q0 105 38 207.5t106 186t173 135t228 51.5q176 0 284 -104t108 -276q0 -80 -26 -160h-792q-1 -12 -1 -36q0 -142 86.5 -229.5t236.5 -87.5q187 0 324 128zM628 876q-79 0 -148 -27.5
t-119 -75.5t-84.5 -107t-52.5 -126h681q4 25 4 56q0 128 -77 204t-204 76zM483 1341q35 0 59.5 -25t24.5 -60t-24.5 -58.5t-59.5 -23.5t-59 23.5t-24 58.5t24 60t59 25zM902 1341q35 0 60 -25t25 -60t-24.5 -58.5t-60.5 -23.5q-35 0 -59 23.5t-24 58.5t24 60t59 25z" />
    <glyph glyph-name="igrave" unicode="&#xec;" horiz-adv-x="474" 
d="M398 964l-205 -964h-117l205 964h117zM373 1108l-257 307h147l225 -307h-115z" />
    <glyph glyph-name="iacute" unicode="&#xed;" horiz-adv-x="474" 
d="M398 964l-205 -964h-117l205 964h117zM366 1109h-121l259 307h151z" />
    <glyph glyph-name="icircumflex" unicode="&#xee;" horiz-adv-x="474" 
d="M398 964l-205 -964h-117l205 964h117zM693 1114h-123l-157 218l-245 -218h-132l309 289h154z" />
    <glyph glyph-name="idieresis" unicode="&#xef;" horiz-adv-x="474" 
d="M398 964l-205 -964h-117l205 964h117zM191 1341q35 0 59.5 -25t24.5 -60t-24.5 -58.5t-59.5 -23.5t-58.5 23.5t-23.5 58.5q0 36 23.5 60.5t58.5 24.5zM610 1341q35 0 60 -25t25 -60t-24.5 -58.5t-60.5 -23.5q-35 0 -59 23.5t-24 58.5t24 60t59 25z" />
    <glyph glyph-name="eth" unicode="&#xf0;" horiz-adv-x="1195" 
d="M1025 1449l42 -79l-236 -129q134 -131 205 -295t71 -343q0 -77 -14 -159q-33 -200 -183 -329.5t-347 -129.5q-204 0 -336.5 127t-132.5 319q0 105 41 202.5t111 170t168 116t206 43.5q121 0 215.5 -50.5t150.5 -140.5q-49 235 -254 416l-255 -139l-41 78l221 121
q-121 88 -264 145l53 92q179 -70 315 -180zM628 852q-94 0 -173.5 -36.5t-131 -96t-80 -133.5t-28.5 -150q0 -149 99 -245.5t256 -96.5q93 0 172.5 36t131.5 95t81 133t29 152q0 150 -99.5 246t-256.5 96z" />
    <glyph glyph-name="ntilde" unicode="&#xf1;" horiz-adv-x="1204" 
d="M706 979q166 0 261 -92t95 -241q0 -46 -13 -108l-115 -538h-117l116 543q10 52 10 89q0 107 -66 171.5t-191 64.5q-141 0 -243.5 -87.5t-134.5 -236.5l-115 -544h-117l205 964h115l-28 -137q132 152 338 152zM459 1179l-67 69q51 58 103 84.5t118 26.5q47 0 86.5 -13.5
t62 -30.5t53 -30.5t61.5 -13.5q77 0 153 79l67 -70q-51 -57 -103.5 -84t-118.5 -27q-47 0 -86 14t-61 30.5t-52.5 30.5t-62.5 14q-76 0 -153 -79z" />
    <glyph glyph-name="ograve" unicode="&#xf2;" horiz-adv-x="1189" 
d="M637 979q201 0 329.5 -127.5t128.5 -322.5q0 -147 -70.5 -272t-195.5 -199t-276 -74q-201 0 -329.5 127t-128.5 323q0 147 70.5 272t195.5 199t276 74zM628 869q-115 0 -210 -58.5t-149 -157t-54 -213.5q0 -152 97 -249.5t248 -97.5q175 0 295.5 126.5t120.5 303.5
q0 151 -97.5 248.5t-250.5 97.5zM695 1108l-257 307h148l225 -307h-116z" />
    <glyph glyph-name="oacute" unicode="&#xf3;" horiz-adv-x="1189" 
d="M637 979q201 0 329.5 -127.5t128.5 -322.5q0 -147 -70.5 -272t-195.5 -199t-276 -74q-201 0 -329.5 127t-128.5 323q0 147 70.5 272t195.5 199t276 74zM628 869q-115 0 -210 -58.5t-149 -157t-54 -213.5q0 -152 97 -249.5t248 -97.5q175 0 295.5 126.5t120.5 303.5
q0 151 -97.5 248.5t-250.5 97.5zM688 1109h-121l259 307h152z" />
    <glyph glyph-name="ocircumflex" unicode="&#xf4;" horiz-adv-x="1189" 
d="M637 979q201 0 329.5 -127.5t128.5 -322.5q0 -147 -70.5 -272t-195.5 -199t-276 -74q-201 0 -329.5 127t-128.5 323q0 147 70.5 272t195.5 199t276 74zM628 869q-115 0 -210 -58.5t-149 -157t-54 -213.5q0 -152 97 -249.5t248 -97.5q175 0 295.5 126.5t120.5 303.5
q0 151 -97.5 248.5t-250.5 97.5zM1016 1114h-123l-158 218l-245 -218h-132l310 289h153z" />
    <glyph glyph-name="otilde" unicode="&#xf5;" horiz-adv-x="1189" 
d="M637 979q201 0 329.5 -127.5t128.5 -322.5q0 -147 -70.5 -272t-195.5 -199t-276 -74q-201 0 -329.5 127t-128.5 323q0 147 70.5 272t195.5 199t276 74zM628 869q-115 0 -210 -58.5t-149 -157t-54 -213.5q0 -152 97 -249.5t248 -97.5q175 0 295.5 126.5t120.5 303.5
q0 151 -97.5 248.5t-250.5 97.5zM424 1179l-67 69q51 57 103.5 84t118.5 27q47 0 86.5 -13.5t62 -30.5t52.5 -30.5t61 -13.5q77 0 153 79l67 -70q-51 -58 -103 -84.5t-118 -26.5q-47 0 -86 14t-61 30.5t-52.5 30.5t-62.5 14q-77 0 -154 -79z" />
    <glyph glyph-name="odieresis" unicode="&#xf6;" horiz-adv-x="1189" 
d="M637 979q201 0 329.5 -127.5t128.5 -322.5q0 -147 -70.5 -272t-195.5 -199t-276 -74q-201 0 -329.5 127t-128.5 323q0 147 70.5 272t195.5 199t276 74zM628 869q-115 0 -210 -58.5t-149 -157t-54 -213.5q0 -152 97 -249.5t248 -97.5q175 0 295.5 126.5t120.5 303.5
q0 151 -97.5 248.5t-250.5 97.5zM514 1341q35 0 59.5 -25t24.5 -60t-24.5 -58.5t-59.5 -23.5t-59 23.5t-24 58.5t24 60t59 25zM933 1341q35 0 60 -25t25 -60t-24.5 -58.5t-60.5 -23.5q-35 0 -59 23.5t-24 58.5t24 60t59 25z" />
    <glyph glyph-name="divide" unicode="&#xf7;" horiz-adv-x="1228" 
d="M1074 592l-22 -106h-873l23 106h872zM688 940q33 0 58 -24.5t25 -57.5t-25 -58t-58 -25q-32 0 -57 25t-25 58t25 57.5t57 24.5zM571 303q33 0 57.5 -24t24.5 -58q0 -33 -24.5 -57.5t-57.5 -24.5t-57.5 24.5t-24.5 57.5q0 34 24.5 58t57.5 24z" />
    <glyph glyph-name="oslash" unicode="&#xf8;" horiz-adv-x="1189" 
d="M637 979q190 0 318 -117l145 129l64 -71l-146 -132q77 -113 77 -259q0 -147 -70.5 -272t-195.5 -199t-276 -74q-188 0 -313 111l-140 -124l-64 72l139 125q-80 115 -80 266q0 147 70.5 272t195.5 199t276 74zM628 869q-115 0 -210 -58.5t-149 -157t-54 -213.5
q0 -109 51 -191l600 534q-96 86 -238 86zM976 523q0 105 -49 185l-598 -533q93 -82 231 -82q175 0 295.5 126.5t120.5 303.5z" />
    <glyph glyph-name="ugrave" unicode="&#xf9;" horiz-adv-x="1192" 
d="M1127 964l-120 -571q-42 -201 -176 -304.5t-319 -103.5q-162 0 -265.5 87t-103.5 245q0 47 13 110l114 537h118l-116 -543q-11 -52 -11 -91q0 -116 73 -176t191 -60q136 0 235.5 82.5t132.5 237.5l117 550h117zM727 1108l-257 307h147l226 -307h-116z" />
    <glyph glyph-name="uacute" unicode="&#xfa;" horiz-adv-x="1192" 
d="M1127 964l-120 -571q-42 -201 -176 -304.5t-319 -103.5q-162 0 -265.5 87t-103.5 245q0 47 13 110l114 537h118l-116 -543q-11 -52 -11 -91q0 -116 73 -176t191 -60q136 0 235.5 82.5t132.5 237.5l117 550h117zM720 1109h-121l259 307h152z" />
    <glyph glyph-name="ucircumflex" unicode="&#xfb;" horiz-adv-x="1192" 
d="M1127 964l-120 -571q-42 -201 -176 -304.5t-319 -103.5q-162 0 -265.5 87t-103.5 245q0 47 13 110l114 537h118l-116 -543q-11 -52 -11 -91q0 -116 73 -176t191 -60q136 0 235.5 82.5t132.5 237.5l117 550h117zM1048 1114h-123l-158 218l-245 -218h-132l309 289h154z" />
    <glyph glyph-name="udieresis" unicode="&#xfc;" horiz-adv-x="1192" 
d="M1127 964l-120 -571q-42 -201 -176 -304.5t-319 -103.5q-162 0 -265.5 87t-103.5 245q0 47 13 110l114 537h118l-116 -543q-11 -52 -11 -91q0 -116 73 -176t191 -60q136 0 235.5 82.5t132.5 237.5l117 550h117zM546 1341q35 0 59.5 -25t24.5 -60t-24.5 -58.5t-59.5 -23.5
t-59 23.5t-24 58.5t24 60t59 25zM965 1341q35 0 60 -25t25 -60t-24.5 -58.5t-60.5 -23.5q-35 0 -59 23.5t-24 58.5t24 60t59 25z" />
    <glyph glyph-name="yacute" unicode="&#xfd;" horiz-adv-x="1036" 
d="M1122 964l-998 -1377h-133l471 643l-337 734h124l288 -629l452 629h133zM623 1109h-121l259 307h151z" />
    <glyph glyph-name="thorn" unicode="&#xfe;" horiz-adv-x="1241" 
d="M599 -15q-135 0 -228.5 64.5t-129.5 172.5l-136 -632h-116l400 1885h117l-137 -648q144 152 356 152q185 0 305 -120.5t120 -304.5q0 -150 -72.5 -281t-200 -209.5t-278.5 -78.5zM712 869q-158 0 -277.5 -108t-144.5 -271q-26 -167 63 -281.5t249 -114.5q178 0 303 132
t125 317q0 141 -87 233.5t-231 92.5z" />
    <glyph glyph-name="ydieresis" unicode="&#xff;" horiz-adv-x="1036" 
d="M1122 964l-998 -1377h-133l471 643l-337 734h124l288 -629l452 629h133zM449 1341q35 0 59 -25t24 -60t-24 -58.5t-59 -23.5t-59 23.5t-24 58.5t24 60t59 25zM867 1341q35 0 60 -25t25 -60t-24.5 -58.5t-60.5 -23.5q-35 0 -59 23.5t-24 58.5t24 60t59 25z" />
    <glyph glyph-name="Amacron" unicode="&#x100;" horiz-adv-x="1439" 
d="M997 1434l292 -1434h-128l-84 419h-735l-260 -419h-136l898 1434h153zM898 1310l-482 -772h637zM652 1633l21 96h599l-21 -96h-599z" />
    <glyph glyph-name="amacron" unicode="&#x101;" horiz-adv-x="1239" 
d="M640 979q135 0 229 -66t130 -174l49 225h115l-205 -964h-115l31 146q-145 -161 -367 -161q-181 0 -299 120.5t-118 304.5q0 151 72 281.5t199.5 209t278.5 78.5zM527 94q158 0 277.5 108t145.5 271q26 167 -63.5 281.5t-249.5 114.5q-177 0 -302 -132t-125 -316
q0 -142 86.5 -234.5t230.5 -92.5zM418 1208l20 96h599l-20 -96h-599z" />
    <glyph glyph-name="Abreve" unicode="&#x102;" horiz-adv-x="1439" 
d="M997 1434l292 -1434h-128l-84 419h-735l-260 -419h-136l898 1434h153zM898 1310l-482 -772h637zM655 1814l96 28q5 -100 58.5 -153t139.5 -53q166 0 264 206l94 -28q-131 -277 -368 -277q-122 0 -199.5 72.5t-84.5 204.5z" />
    <glyph glyph-name="abreve" unicode="&#x103;" horiz-adv-x="1239" 
d="M640 979q135 0 229 -66t130 -174l49 225h115l-205 -964h-115l31 146q-145 -161 -367 -161q-181 0 -299 120.5t-118 304.5q0 151 72 281.5t199.5 209t278.5 78.5zM527 94q158 0 277.5 108t145.5 271q26 167 -63.5 281.5t-249.5 114.5q-177 0 -302 -132t-125 -316
q0 -142 86.5 -234.5t230.5 -92.5zM415 1389l95 28q5 -100 59 -153t140 -53q166 0 264 206l93 -28q-131 -277 -368 -277q-122 0 -199 72.5t-84 204.5z" />
    <glyph glyph-name="Aogonek" unicode="&#x104;" horiz-adv-x="1439" 
d="M1196 -266l54 -76q-87 -80 -189 -80q-87 0 -141 43.5t-54 115.5q0 84 69.5 150t221.5 131l-80 401h-735l-260 -419h-136l898 1436h153l292 -1436h-39q-271 -112 -271 -237q0 -39 27 -62t71 -23q61 0 119 56zM898 1312l-482 -774h637z" />
    <glyph glyph-name="aogonek" unicode="&#x105;" horiz-adv-x="1239" 
d="M904 -266l54 -76q-87 -80 -189 -80q-87 0 -141 43.5t-54 115.5q0 81 65 145t206 127l29 137q-145 -161 -367 -161q-181 0 -299 120.5t-118 304.5q0 151 72 281.5t199.5 209t278.5 78.5q135 0 229 -66t130 -174l49 225h115l-205 -964q-271 -112 -271 -237q0 -39 27 -62
t71 -23q61 0 119 56zM527 94q158 0 277.5 108t145.5 271q26 167 -63.5 281.5t-249.5 114.5q-177 0 -302 -132t-125 -316q0 -142 86.5 -234.5t230.5 -92.5z" />
    <glyph glyph-name="Cacute" unicode="&#x106;" horiz-adv-x="1528" 
d="M1304 319l82 -79q-99 -122 -240.5 -189t-302.5 -67q-191 0 -344.5 84.5t-241 237.5t-87.5 346q0 167 60 315t164.5 254t251 167t312.5 61q52 0 104 -6t120 -26t127 -51t118.5 -86.5t100.5 -127.5l-96 -76q-50 90 -134.5 149t-170 81.5t-176.5 22.5q-182 0 -331.5 -88
t-234 -240.5t-84.5 -337.5q0 -245 156.5 -402t393.5 -157q133 0 252 57t201 158zM948 1533h-121l259 307h152z" />
    <glyph glyph-name="cacute" unicode="&#x107;" horiz-adv-x="1032" 
d="M1005 799l-92 -66q-105 135 -286 135q-172 0 -291.5 -124.5t-119.5 -300.5q0 -151 95.5 -249t239.5 -98q167 0 283 114l67 -77q-68 -70 -160.5 -108t-194.5 -38q-199 0 -324.5 128t-125.5 321q0 110 41 210t112 173t171 116t212 43q250 0 373 -179zM655 1109h-120
l259 307h151z" />
    <glyph glyph-name="Ccircumflex" unicode="&#x108;" horiz-adv-x="1528" 
d="M1304 319l82 -79q-99 -122 -240.5 -189t-302.5 -67q-191 0 -344.5 84.5t-241 237.5t-87.5 346q0 167 60 315t164.5 254t251 167t312.5 61q52 0 104 -6t120 -26t127 -51t118.5 -86.5t100.5 -127.5l-96 -76q-50 90 -134.5 149t-170 81.5t-176.5 22.5q-182 0 -331.5 -88
t-234 -240.5t-84.5 -337.5q0 -245 156.5 -402t393.5 -157q133 0 252 57t201 158zM1294 1539h-123l-157 218l-245 -218h-132l309 289h154z" />
    <glyph glyph-name="ccircumflex" unicode="&#x109;" horiz-adv-x="1032" 
d="M1005 799l-92 -66q-105 135 -286 135q-172 0 -291.5 -124.5t-119.5 -300.5q0 -151 95.5 -249t239.5 -98q167 0 283 114l67 -77q-68 -70 -160.5 -108t-194.5 -38q-199 0 -324.5 128t-125.5 321q0 110 41 210t112 173t171 116t212 43q250 0 373 -179zM983 1114h-123
l-158 218l-244 -218h-132l309 289h153z" />
    <glyph glyph-name="Cdotaccent" unicode="&#x10a;" horiz-adv-x="1528" 
d="M1304 319l82 -79q-99 -122 -240.5 -189t-302.5 -67q-191 0 -344.5 84.5t-241 237.5t-87.5 346q0 167 60 315t164.5 254t251 167t312.5 61q52 0 104 -6t120 -26t127 -51t118.5 -86.5t100.5 -127.5l-96 -76q-50 90 -134.5 149t-170 81.5t-176.5 22.5q-182 0 -331.5 -88
t-234 -240.5t-84.5 -337.5q0 -245 156.5 -402t393.5 -157q133 0 252 57t201 158zM1002 1776q37 0 63 -26t26 -63t-26 -62.5t-63 -25.5t-62 25.5t-25 62.5t25 63t62 26z" />
    <glyph glyph-name="cdotaccent" unicode="&#x10b;" horiz-adv-x="1032" 
d="M1005 799l-92 -66q-105 135 -286 135q-172 0 -291.5 -124.5t-119.5 -300.5q0 -151 95.5 -249t239.5 -98q167 0 283 114l67 -77q-68 -70 -160.5 -108t-194.5 -38q-199 0 -324.5 128t-125.5 321q0 110 41 210t112 173t171 116t212 43q250 0 373 -179zM701 1395
q35 0 59.5 -25t24.5 -60t-24.5 -59t-59.5 -24t-59 24t-24 59t24 60t59 25z" />
    <glyph glyph-name="Ccaron" unicode="&#x10c;" horiz-adv-x="1528" 
d="M1304 319l82 -79q-99 -122 -240.5 -189t-302.5 -67q-191 0 -344.5 84.5t-241 237.5t-87.5 346q0 167 60 315t164.5 254t251 167t312.5 61q52 0 104 -6t120 -26t127 -51t118.5 -86.5t100.5 -127.5l-96 -76q-50 90 -134.5 149t-170 81.5t-176.5 22.5q-182 0 -331.5 -88
t-234 -240.5t-84.5 -337.5q0 -245 156.5 -402t393.5 -157q133 0 252 57t201 158zM709 1825h122l157 -218l246 218h133l-310 -288h-153z" />
    <glyph glyph-name="ccaron" unicode="&#x10d;" horiz-adv-x="1032" 
d="M1005 799l-92 -66q-105 135 -286 135q-172 0 -291.5 -124.5t-119.5 -300.5q0 -151 95.5 -249t239.5 -98q167 0 283 114l67 -77q-68 -70 -160.5 -108t-194.5 -38q-199 0 -324.5 128t-125.5 321q0 110 41 210t112 173t171 116t212 43q250 0 373 -179zM385 1400h123
l157 -218l245 218h133l-310 -288h-152z" />
    <glyph glyph-name="Dcaron" unicode="&#x10e;" horiz-adv-x="1596" 
d="M408 1434h463q314 0 490.5 -160t176.5 -431q0 -177 -61 -330t-175.5 -267.5t-291.5 -180t-397 -65.5h-511zM858 1315h-349l-255 -1196h373q186 0 335.5 54.5t245.5 151t147 225.5t51 281q0 223 -140.5 353.5t-407.5 130.5zM669 1825h123l156 -218l246 218h133l-310 -288
h-153z" />
    <glyph glyph-name="dcaron" unicode="&#x10f;" horiz-adv-x="1298" 
d="M640 979q135 -1 229.5 -66.5t129.5 -173.5l157 736h117l-314 -1475h-115l30 148q-143 -163 -367 -163q-181 0 -299 120.5t-118 304.5q0 151 72 281.5t199.5 209t278.5 78.5zM527 94q158 0 277.5 108t145.5 271q26 167 -63.5 281.5t-249.5 114.5q-177 0 -302 -132
t-125 -316q0 -142 86.5 -234.5t230.5 -92.5zM1428 1076h-97l94 399h130z" />
    <glyph glyph-name="Dcroat" unicode="&#x110;" horiz-adv-x="1774" 
d="M586 1434h464q314 0 490 -160t176 -431q0 -178 -61 -330.5t-175 -267t-291 -180t-397 -65.5h-511l140 663h-259l25 118h259zM994 781l-25 -118h-421l-116 -544h373q186 0 335.5 54.5t245.5 151t147 225.5t51 281q0 223 -140.5 353.5t-407.5 130.5h-349l-114 -534h421z
" />
    <glyph glyph-name="dcroat" unicode="&#x111;" horiz-adv-x="1240" 
d="M1413 1257l-21 -105h-188l-245 -1152h-115l30 148q-143 -163 -367 -163q-181 0 -299 120.5t-118 304.5q0 151 72 281.5t199.5 209t278.5 78.5q135 0 229 -66t130 -174l88 413h-413l21 105h415l46 218h117l-46 -218h186zM527 94q158 0 277.5 108t145.5 271
q26 167 -63.5 281.5t-249.5 114.5q-177 0 -302 -132t-125 -316q0 -142 86.5 -234.5t230.5 -92.5z" />
    <glyph glyph-name="Emacron" unicode="&#x112;" horiz-adv-x="1328" 
d="M1208 780l-25 -116h-812l-117 -546h844l-26 -118h-970l306 1434h958l-25 -118h-832l-114 -536h813zM620 1633l20 96h599l-20 -96h-599z" />
    <glyph glyph-name="emacron" unicode="&#x113;" horiz-adv-x="1103" 
d="M853 214l58 -81q-85 -76 -178.5 -112.5t-215.5 -36.5q-199 0 -314 116.5t-115 298.5q0 105 38 207.5t106 186t173 135t228 51.5q176 0 284 -104t108 -276q0 -80 -26 -160h-792q-1 -12 -1 -36q0 -142 86.5 -229.5t236.5 -87.5q187 0 324 128zM628 876q-79 0 -148 -27.5
t-119 -75.5t-84.5 -107t-52.5 -126h681q4 25 4 56q0 128 -77 204t-204 76zM383 1208l20 96h599l-20 -96h-599z" />
    <glyph glyph-name="Ebreve" unicode="&#x114;" horiz-adv-x="1328" 
d="M1208 780l-25 -116h-812l-117 -546h844l-26 -118h-970l306 1434h958l-25 -118h-832l-114 -536h813zM623 1814l95 28q5 -100 58.5 -153t139.5 -53q167 0 265 206l93 -28q-131 -277 -368 -277q-122 0 -199 72.5t-84 204.5z" />
    <glyph glyph-name="ebreve" unicode="&#x115;" horiz-adv-x="1103" 
d="M853 214l58 -81q-85 -76 -178.5 -112.5t-215.5 -36.5q-199 0 -314 116.5t-115 298.5q0 105 38 207.5t106 186t173 135t228 51.5q176 0 284 -104t108 -276q0 -80 -26 -160h-792q-1 -12 -1 -36q0 -142 86.5 -229.5t236.5 -87.5q187 0 324 128zM628 876q-79 0 -148 -27.5
t-119 -75.5t-84.5 -107t-52.5 -126h681q4 25 4 56q0 128 -77 204t-204 76zM380 1389l95 28q5 -100 59 -153t140 -53q166 0 264 206l93 -28q-131 -277 -367 -277q-122 0 -199.5 72.5t-84.5 204.5z" />
    <glyph glyph-name="Edotaccent" unicode="&#x116;" horiz-adv-x="1328" 
d="M1208 780l-25 -116h-812l-117 -546h844l-26 -118h-970l306 1434h958l-25 -118h-832l-114 -536h813zM922 1776q37 0 62.5 -26t25.5 -63t-25.5 -62.5t-62.5 -25.5t-62 25.5t-25 62.5t25 63t62 26z" />
    <glyph glyph-name="edotaccent" unicode="&#x117;" horiz-adv-x="1103" 
d="M853 214l58 -81q-85 -76 -178.5 -112.5t-215.5 -36.5q-199 0 -314 116.5t-115 298.5q0 105 38 207.5t106 186t173 135t228 51.5q176 0 284 -104t108 -276q0 -80 -26 -160h-792q-1 -12 -1 -36q0 -142 86.5 -229.5t236.5 -87.5q187 0 324 128zM628 876q-79 0 -148 -27.5
t-119 -75.5t-84.5 -107t-52.5 -126h681q4 25 4 56q0 128 -77 204t-204 76zM703 1395q35 0 59.5 -25t24.5 -60t-24.5 -59t-59.5 -24t-58.5 24t-23.5 59q0 36 23.5 60.5t58.5 24.5z" />
    <glyph glyph-name="Eogonek" unicode="&#x118;" horiz-adv-x="1328" 
d="M1208 780l-25 -116h-812l-117 -546h844l-26 -118h-163q-206 -94 -206 -214q0 -47 37.5 -77.5t99.5 -30.5q84 0 155 57l46 -81q-99 -75 -220 -75q-107 0 -172 51.5t-65 132.5q0 71 45.5 129t150.5 108h-678l306 1434h958l-25 -118h-832l-114 -536h813z" />
    <glyph glyph-name="eogonek" unicode="&#x119;" horiz-adv-x="1103" 
d="M788 -266l55 -78q-93 -78 -214 -78q-111 0 -178.5 55t-67.5 142q0 121 139 209h-5q-199 0 -314 116.5t-115 298.5q0 105 38 207.5t106 186t173 135t228 51.5q176 0 284 -104t108 -276q0 -80 -26 -160h-792q-1 -12 -1 -36q0 -142 86.5 -229.5t236.5 -87.5q187 0 324 128
l58 -81q-87 -79 -184 -116q-117 -44 -172.5 -103.5t-55.5 -121.5q0 -52 36.5 -83.5t99.5 -31.5q82 0 153 57zM628 876q-79 0 -148 -27.5t-119 -75.5t-84.5 -107t-52.5 -126h681q4 25 4 56q0 128 -77 204t-204 76z" />
    <glyph glyph-name="Ecaron" unicode="&#x11a;" horiz-adv-x="1328" 
d="M1208 780l-25 -116h-812l-117 -546h844l-26 -118h-970l306 1434h958l-25 -118h-832l-114 -536h813zM628 1825h123l156 -218l246 218h133l-310 -288h-153z" />
    <glyph glyph-name="ecaron" unicode="&#x11b;" horiz-adv-x="1103" 
d="M853 214l58 -81q-85 -76 -178.5 -112.5t-215.5 -36.5q-199 0 -314 116.5t-115 298.5q0 105 38 207.5t106 186t173 135t228 51.5q176 0 284 -104t108 -276q0 -80 -26 -160h-792q-1 -12 -1 -36q0 -142 86.5 -229.5t236.5 -87.5q187 0 324 128zM628 876q-79 0 -148 -27.5
t-119 -75.5t-84.5 -107t-52.5 -126h681q4 25 4 56q0 128 -77 204t-204 76zM387 1400h123l157 -218l245 218h134l-311 -288h-152z" />
    <glyph glyph-name="Gcircumflex" unicode="&#x11c;" horiz-adv-x="1651" 
d="M1485 1204l-94 -85q-84 109 -203 158.5t-243 49.5q-133 0 -252 -51t-205.5 -139t-137.5 -213.5t-51 -268.5q0 -245 156 -397t400 -152q234 0 389 141.5t193 387.5h-483l26 116h602q0 -19 -4 -59q-38 -317 -238 -511.5t-496 -194.5q-192 0 -346 83.5t-242 234t-88 339.5
q0 170 61.5 320t166.5 256t250.5 167.5t308.5 61.5q59 0 120 -10t135.5 -34.5t147 -75.5t127.5 -124zM1281 1539h-123l-158 218l-244 -218h-132l309 289h153z" />
    <glyph glyph-name="gcircumflex" unicode="&#x11d;" horiz-adv-x="1240" 
d="M1163 964l-191 -906q-49 -229 -191.5 -352.5t-336.5 -123.5q-251 0 -414 151l67 87q138 -132 349 -132q151 0 264 100t147 278l17 88q-140 -156 -352 -156q-191 0 -310.5 118.5t-119.5 299.5q0 114 43 218t115.5 179.5t174 120.5t213.5 45q137 0 231 -66t130 -175l49 226
h115zM527 106q166 0 285.5 111.5t137.5 284.5q17 156 -72.5 261.5t-240.5 105.5q-179 0 -301.5 -127t-122.5 -315q0 -140 87.5 -230.5t226.5 -90.5zM1016 1114h-123l-158 218l-245 -218h-132l310 289h153z" />
    <glyph glyph-name="Gbreve" unicode="&#x11e;" horiz-adv-x="1651" 
d="M1485 1204l-94 -85q-84 109 -203 158.5t-243 49.5q-133 0 -252 -51t-205.5 -139t-137.5 -213.5t-51 -268.5q0 -245 156 -397t400 -152q234 0 389 141.5t193 387.5h-483l26 116h602q0 -19 -4 -59q-38 -317 -238 -511.5t-496 -194.5q-192 0 -346 83.5t-242 234t-88 339.5
q0 170 61.5 320t166.5 256t250.5 167.5t308.5 61.5q59 0 120 -10t135.5 -34.5t147 -75.5t127.5 -124zM690 1814l95 28q5 -100 59 -153t140 -53q166 0 264 206l93 -28q-131 -277 -367 -277q-122 0 -199.5 72.5t-84.5 204.5z" />
    <glyph glyph-name="gbreve" unicode="&#x11f;" horiz-adv-x="1240" 
d="M1163 964l-191 -906q-49 -229 -191.5 -352.5t-336.5 -123.5q-251 0 -414 151l67 87q138 -132 349 -132q151 0 264 100t147 278l17 88q-140 -156 -352 -156q-191 0 -310.5 118.5t-119.5 299.5q0 114 43 218t115.5 179.5t174 120.5t213.5 45q137 0 231 -66t130 -175l49 226
h115zM527 106q166 0 285.5 111.5t137.5 284.5q17 156 -72.5 261.5t-240.5 105.5q-179 0 -301.5 -127t-122.5 -315q0 -140 87.5 -230.5t226.5 -90.5zM411 1389l95 28q5 -100 59 -153t140 -53q166 0 264 206l93 -28q-131 -277 -368 -277q-122 0 -199 72.5t-84 204.5z" />
    <glyph glyph-name="Gdotaccent" unicode="&#x120;" horiz-adv-x="1651" 
d="M1485 1204l-94 -85q-84 109 -203 158.5t-243 49.5q-133 0 -252 -51t-205.5 -139t-137.5 -213.5t-51 -268.5q0 -245 156 -397t400 -152q234 0 389 141.5t193 387.5h-483l26 116h602q0 -19 -4 -59q-38 -317 -238 -511.5t-496 -194.5q-192 0 -346 83.5t-242 234t-88 339.5
q0 170 61.5 320t166.5 256t250.5 167.5t308.5 61.5q59 0 120 -10t135.5 -34.5t147 -75.5t127.5 -124zM989 1776q37 0 62.5 -26t25.5 -63t-25.5 -62.5t-62.5 -25.5t-62 25.5t-25 62.5t25 63t62 26z" />
    <glyph glyph-name="gdotaccent" unicode="&#x121;" horiz-adv-x="1240" 
d="M1163 964l-191 -906q-49 -229 -191.5 -352.5t-336.5 -123.5q-251 0 -414 151l67 87q138 -132 349 -132q151 0 264 100t147 278l17 88q-140 -156 -352 -156q-191 0 -310.5 118.5t-119.5 299.5q0 114 43 218t115.5 179.5t174 120.5t213.5 45q137 0 231 -66t130 -175l49 226
h115zM527 106q166 0 285.5 111.5t137.5 284.5q17 156 -72.5 261.5t-240.5 105.5q-179 0 -301.5 -127t-122.5 -315q0 -140 87.5 -230.5t226.5 -90.5zM734 1395q35 0 59.5 -25t24.5 -60t-24.5 -59t-59.5 -24t-59 24t-24 59t24 60t59 25z" />
    <glyph glyph-name="Gcommaaccent" unicode="&#x122;" horiz-adv-x="1651" 
d="M1485 1204l-94 -85q-84 109 -203 158.5t-243 49.5q-133 0 -252 -51t-205.5 -139t-137.5 -213.5t-51 -268.5q0 -245 156 -397t400 -152q234 0 389 141.5t193 387.5h-483l26 116h602q0 -19 -4 -59q-38 -317 -238 -511.5t-496 -194.5q-192 0 -346 83.5t-242 234t-88 339.5
q0 170 61.5 320t166.5 256t250.5 167.5t308.5 61.5q59 0 120 -10t135.5 -34.5t147 -75.5t127.5 -124zM750 -90h130l-139 -349h-110z" />
    <glyph glyph-name="gcommaaccent" unicode="&#x123;" horiz-adv-x="1240" 
d="M1163 964l-191 -906q-49 -229 -191.5 -352.5t-336.5 -123.5q-251 0 -414 151l67 87q138 -132 349 -132q151 0 264 100t147 278l17 88q-140 -156 -352 -156q-191 0 -310.5 118.5t-119.5 299.5q0 114 43 218t115.5 179.5t174 120.5t213.5 45q137 0 231 -66t130 -175l49 226
h115zM527 106q166 0 285.5 111.5t137.5 284.5q17 156 -72.5 261.5t-240.5 105.5q-179 0 -301.5 -127t-122.5 -315q0 -140 87.5 -230.5t226.5 -90.5zM757 1108h-130l138 348h111z" />
    <glyph glyph-name="Hcircumflex" unicode="&#x124;" horiz-adv-x="1573" 
d="M535 1434l-140 -653h910l139 653h128l-306 -1434h-127l140 663h-909l-141 -663h-127l306 1434h127zM1319 1539h-123l-158 218l-244 -218h-132l309 289h153z" />
    <glyph glyph-name="hcircumflex" unicode="&#x125;" horiz-adv-x="1204" 
d="M706 979q166 0 261 -92t95 -241q0 -46 -13 -108l-115 -538h-117l116 543q10 52 10 89q0 107 -66 171.5t-191 64.5q-141 0 -243.5 -87.5t-134.5 -236.5l-115 -544h-117l313 1475h117l-137 -646q131 150 337 150zM1140 1584h-123l-158 218l-245 -218h-132l310 289h153z" />
    <glyph glyph-name="Hbar" unicode="&#x126;" horiz-adv-x="1632" 
d="M1711 1152l-20 -105h-173l-224 -1047h-127l141 663h-910l-140 -663h-127l222 1047h-171l22 105h172l60 282h127l-60 -282h909l61 282h128l-61 -282h171zM424 781h909l57 266h-910z" />
    <glyph glyph-name="hbar" unicode="&#x127;" horiz-adv-x="1204" 
d="M884 1257l-22 -105h-425l-68 -323q131 150 337 150q166 0 261 -92t95 -241q0 -46 -13 -108l-115 -538h-117l116 543q10 52 10 89q0 107 -66 171.5t-191 64.5q-141 0 -243.5 -87.5t-134.5 -236.5l-115 -544h-117l245 1152h-177l22 105h177l46 218h117l-46 -218h424z" />
    <glyph glyph-name="Itilde" unicode="&#x128;" horiz-adv-x="536" 
d="M535 1434l-306 -1434h-127l306 1434h127zM226 1604l-66 69q51 58 103 84.5t118 26.5q47 0 86.5 -14t62 -30t52.5 -30t61 -14q78 0 154 79l66 -70q-51 -58 -103 -84.5t-118 -26.5q-47 0 -86 14t-61 30.5t-52.5 30.5t-62.5 14q-77 0 -154 -79z" />
    <glyph glyph-name="itilde" unicode="&#x129;" horiz-adv-x="474" 
d="M398 964l-205 -964h-117l205 964h117zM101 1179l-66 69q51 58 103 84.5t118 26.5q47 0 86.5 -13.5t62 -30.5t52.5 -30.5t61 -13.5q78 0 154 79l66 -70q-51 -58 -103 -84.5t-118 -26.5q-47 0 -86 14t-61 30.5t-52.5 30.5t-62.5 14q-77 0 -154 -79z" />
    <glyph glyph-name="Imacron" unicode="&#x12a;" horiz-adv-x="536" 
d="M535 1434l-306 -1434h-127l306 1434h127zM204 1633l20 96h599l-20 -96h-599z" />
    <glyph glyph-name="imacron" unicode="&#x12b;" horiz-adv-x="474" 
d="M398 964l-205 -964h-117l205 964h117zM91 1208l21 96h599l-21 -96h-599z" />
    <glyph glyph-name="Ibreve" unicode="&#x12c;" horiz-adv-x="536" 
d="M535 1434l-306 -1434h-127l306 1434h127zM207 1814l95 28q5 -100 59 -153t140 -53q166 0 264 206l93 -28q-131 -277 -368 -277q-122 0 -199 72.5t-84 204.5z" />
    <glyph glyph-name="ibreve" unicode="&#x12d;" horiz-adv-x="474" 
d="M398 964l-205 -964h-117l205 964h117zM88 1389l95 28q5 -100 59 -153t140 -53q166 0 264 206l93 -28q-131 -277 -367 -277q-122 0 -199.5 72.5t-84.5 204.5z" />
    <glyph glyph-name="Iogonek" unicode="&#x12e;" horiz-adv-x="536" 
d="M260 -269l54 -78q-81 -75 -178 -75q-91 0 -148 45.5t-57 119.5q0 70 43.5 129.5t152.5 127.5h-25l306 1434h127l-306 -1434q-103 -72 -144.5 -127.5t-41.5 -108.5q0 -39 28 -63t74 -24q59 0 115 54z" />
    <glyph glyph-name="iogonek" unicode="&#x12f;" horiz-adv-x="474" 
d="M398 964l-205 -964q-103 -75 -144 -129t-41 -107q0 -39 28.5 -63t74.5 -24q58 0 114 54l55 -78q-81 -75 -179 -75q-90 0 -147 45.5t-57 119.5q0 70 43 129.5t152 127.5h-16l205 964h117zM412 1395q35 0 59.5 -25t24.5 -60t-24.5 -59t-59.5 -24t-59 24t-24 59t24 60t59 25
z" />
    <glyph glyph-name="Idotaccent" unicode="&#x130;" horiz-adv-x="536" 
d="M535 1434l-306 -1434h-127l306 1434h127zM506 1776q37 0 62.5 -26t25.5 -63t-25.5 -62.5t-62.5 -25.5t-62 25.5t-25 62.5t25 63t62 26z" />
    <glyph glyph-name="dotlessi" unicode="&#x131;" horiz-adv-x="474" 
d="M398 964l-205 -964h-117l205 964h117z" />
    <glyph glyph-name="IJ" unicode="&#x132;" horiz-adv-x="1662" 
d="M535 1434l-306 -1434h-127l306 1434h127zM1666 1434l-197 -951q-104 -498 -527 -498q-128 0 -238.5 55t-172.5 145l92 82q49 -70 136 -116.5t188 -46.5q318 0 401 407l191 923h127z" />
    <glyph glyph-name="ij" unicode="&#x133;" horiz-adv-x="953" 
d="M878 964l-245 -1151q-24 -116 -90 -175.5t-164 -59.5q-86 0 -146 42l45 95q42 -27 94 -27q57 0 94.5 35.5t51.5 104.5l242 1136h118zM891 1395q35 0 59.5 -25t24.5 -60t-24.5 -59t-59.5 -24t-59 24t-24 59t24 60t59 25zM398 964l-205 -964h-117l205 964h117zM412 1395
q35 0 59.5 -25t24.5 -60t-24.5 -59t-59.5 -24t-59 24t-24 59t24 60t59 25z" />
    <glyph glyph-name="Jcircumflex" unicode="&#x134;" horiz-adv-x="1126" 
d="M1129 1434l-196 -951q-104 -498 -527 -498q-128 0 -238.5 55t-172.5 145l91 82q49 -69 136.5 -116t188.5 -47q317 0 400 407l191 923h127zM1393 1539h-123l-158 218l-245 -218h-132l309 289h154z" />
    <glyph glyph-name="jcircumflex" unicode="&#x135;" horiz-adv-x="479" 
d="M403 964l-244 -1151q-24 -116 -90 -175.5t-164 -59.5q-86 0 -146 42l44 95q42 -27 95 -27q57 0 94.5 35.5t51.5 104.5l242 1136h117zM698 1114h-123l-157 218l-245 -218h-132l309 289h154z" />
    <glyph glyph-name="Kcommaaccent" unicode="&#x136;" horiz-adv-x="1366" 
d="M535 1434l-140 -654h174l724 654h168l-797 -711l582 -723h-152l-533 662h-191l-141 -662h-127l306 1434h127zM580 -90h130l-139 -349h-110z" />
    <glyph glyph-name="kcommaaccent" unicode="&#x137;" horiz-adv-x="1037" 
d="M506 1475l-196 -918h153l456 407h153l-530 -466l358 -498h-132l-321 452h-159l-95 -452h-117l313 1475h117zM396 -90h130l-138 -349h-110z" />
    <glyph glyph-name="kgreenlandic" unicode="&#x138;" horiz-adv-x="1036" 
d="M541 498l358 -498h-131l-322 452h-157l-96 -452h-117l205 964h117l-87 -407h151l457 407h152z" />
    <glyph glyph-name="Lacute" unicode="&#x139;" horiz-adv-x="1202" 
d="M535 1434l-281 -1315h829l-24 -119h-957l306 1434h127zM452 1533h-121l259 307h151z" />
    <glyph glyph-name="lacute" unicode="&#x13a;" horiz-adv-x="473" 
d="M506 1475l-313 -1475h-117l313 1475h117zM419 1533h-121l259 307h152z" />
    <glyph glyph-name="Lcommaaccent" unicode="&#x13b;" horiz-adv-x="1202" 
d="M535 1434l-281 -1315h829l-24 -119h-957l306 1434h127zM530 -90h130l-138 -349h-110z" />
    <glyph glyph-name="lcommaaccent" unicode="&#x13c;" horiz-adv-x="473" 
d="M506 1475l-313 -1475h-117l313 1475h117zM63 -90h131l-139 -349h-110z" />
    <glyph glyph-name="Lcaron" unicode="&#x13d;" horiz-adv-x="1202" 
d="M535 1434l-281 -1315h829l-24 -119h-957l306 1434h127zM822 1035h-97l94 399h130z" />
    <glyph glyph-name="lcaron" unicode="&#x13e;" horiz-adv-x="530" 
d="M506 1475l-313 -1475h-117l313 1475h117zM660 1076h-97l94 399h130z" />
    <glyph glyph-name="Ldot" unicode="&#x13f;" horiz-adv-x="1202" 
d="M535 1434l-281 -1315h829l-24 -119h-957l306 1434h127zM878 812q37 0 62.5 -26t25.5 -63t-25.5 -62t-62.5 -25t-62 25t-25 62t25 63t62 26z" />
    <glyph glyph-name="ldot" unicode="&#x140;" horiz-adv-x="568" 
d="M506 1475l-313 -1475h-117l313 1475h117zM574 833q35 0 59.5 -25t24.5 -60t-24.5 -59t-59.5 -24t-58.5 24t-23.5 59q0 36 23.5 60.5t58.5 24.5z" />
    <glyph glyph-name="Lslash" unicode="&#x141;" horiz-adv-x="1349" 
d="M682 1434l-144 -675l560 281l-29 -139l-561 -283l-107 -499h830l-25 -119h-956l117 547l-256 -128l28 139l257 129l159 747h127z" />
    <glyph glyph-name="lslash" unicode="&#x142;" horiz-adv-x="654" 
d="M585 1475l-127 -596l261 158l-28 -128l-260 -158l-160 -751h-116l142 669l-235 -143l28 129l234 143l144 677h117z" />
    <glyph glyph-name="Nacute" unicode="&#x143;" horiz-adv-x="1576" 
d="M1575 1434l-306 -1434h-116l-660 1237l-264 -1237h-127l306 1434h117l659 -1237l263 1237h128zM963 1533h-121l259 307h151z" />
    <glyph glyph-name="nacute" unicode="&#x144;" horiz-adv-x="1204" 
d="M706 979q166 0 261 -92t95 -241q0 -46 -13 -108l-115 -538h-117l116 543q10 52 10 89q0 107 -66 171.5t-191 64.5q-141 0 -243.5 -87.5t-134.5 -236.5l-115 -544h-117l205 964h115l-28 -137q132 152 338 152zM723 1109h-121l259 307h152z" />
    <glyph glyph-name="Ncommaaccent" unicode="&#x145;" horiz-adv-x="1576" 
d="M1575 1434l-306 -1434h-116l-660 1237l-264 -1237h-127l306 1434h117l659 -1237l263 1237h128zM634 -90h130l-138 -349h-111z" />
    <glyph glyph-name="ncommaaccent" unicode="&#x146;" horiz-adv-x="1204" 
d="M706 979q166 0 261 -92t95 -241q0 -46 -13 -108l-115 -538h-117l116 543q10 52 10 89q0 107 -66 171.5t-191 64.5q-141 0 -243.5 -87.5t-134.5 -236.5l-115 -544h-117l205 964h115l-28 -137q132 152 338 152zM434 -90h130l-138 -349h-111z" />
    <glyph glyph-name="Ncaron" unicode="&#x147;" horiz-adv-x="1576" 
d="M1575 1434l-306 -1434h-116l-660 1237l-264 -1237h-127l306 1434h117l659 -1237l263 1237h128zM723 1825h123l156 -218l246 218h133l-310 -288h-152z" />
    <glyph glyph-name="ncaron" unicode="&#x148;" horiz-adv-x="1204" 
d="M706 979q166 0 261 -92t95 -241q0 -46 -13 -108l-115 -538h-117l116 543q10 52 10 89q0 107 -66 171.5t-191 64.5q-141 0 -243.5 -87.5t-134.5 -236.5l-115 -544h-117l205 964h115l-28 -137q132 152 338 152zM453 1400h122l157 -218l246 218h133l-310 -288h-153z" />
    <glyph glyph-name="napostrophe" unicode="&#x149;" horiz-adv-x="1489" 
d="M415 1475h135l-196 -495h-108zM991 979q167 0 262 -92t95 -241q0 -42 -14 -108l-114 -538h-117l116 543q10 52 10 89q0 107 -66 171.5t-191 64.5q-141 0 -243.5 -87.5t-134.5 -236.5l-116 -544h-117l205 964h116l-29 -137q132 152 338 152z" />
    <glyph glyph-name="Eng" unicode="&#x14a;" horiz-adv-x="1576" 
d="M1575 1434l-319 -1495q-76 -361 -392 -361q-167 0 -264 76l59 103q83 -59 205 -59q115 0 180 67t93 200l9 45l-653 1229l-264 -1239h-127l306 1436h117l659 -1241l263 1239h128z" />
    <glyph glyph-name="eng" unicode="&#x14b;" horiz-adv-x="1205" 
d="M706 979q166 0 261 -92t95 -241q0 -46 -13 -108l-136 -638q-25 -117 -90.5 -176.5t-163.5 -59.5q-85 0 -145 42l44 96q41 -28 94 -28q56 0 94.5 36t52.5 104l134 629q10 52 10 89q0 107 -66 171.5t-191 64.5q-141 0 -243.5 -87.5t-134.5 -236.5l-115 -544h-117l205 964
h115l-28 -137q132 152 338 152z" />
    <glyph glyph-name="Omacron" unicode="&#x14c;" horiz-adv-x="1701" 
d="M953 1449q143 0 267.5 -47t216 -132t144 -210t52.5 -273q0 -162 -58.5 -309.5t-160.5 -256t-249.5 -173t-315.5 -64.5q-143 0 -268 47t-216.5 132t-144 210t-52.5 273q0 217 99.5 400.5t280.5 293t405 109.5zM943 1329q-139 0 -260.5 -55t-204.5 -147t-131 -215t-48 -257
q0 -165 74 -291.5t200.5 -193t285.5 -66.5q139 0 260 54.5t204.5 147t131 215.5t47.5 257q0 249 -158.5 400t-400.5 151zM712 1633l20 96h599l-20 -96h-599z" />
    <glyph glyph-name="omacron" unicode="&#x14d;" horiz-adv-x="1189" 
d="M637 979q201 0 329.5 -127.5t128.5 -322.5q0 -147 -70.5 -272t-195.5 -199t-276 -74q-201 0 -329.5 127t-128.5 323q0 147 70.5 272t195.5 199t276 74zM628 869q-115 0 -210 -58.5t-149 -157t-54 -213.5q0 -152 97 -249.5t248 -97.5q175 0 295.5 126.5t120.5 303.5
q0 151 -97.5 248.5t-250.5 97.5zM414 1208l20 96h599l-20 -96h-599z" />
    <glyph glyph-name="Obreve" unicode="&#x14e;" horiz-adv-x="1701" 
d="M953 1449q143 0 267.5 -47t216 -132t144 -210t52.5 -273q0 -162 -58.5 -309.5t-160.5 -256t-249.5 -173t-315.5 -64.5q-143 0 -268 47t-216.5 132t-144 210t-52.5 273q0 217 99.5 400.5t280.5 293t405 109.5zM943 1329q-139 0 -260.5 -55t-204.5 -147t-131 -215t-48 -257
q0 -165 74 -291.5t200.5 -193t285.5 -66.5q139 0 260 54.5t204.5 147t131 215.5t47.5 257q0 249 -158.5 400t-400.5 151zM715 1814l95 28q5 -100 59 -153t140 -53q166 0 264 206l93 -28q-131 -277 -368 -277q-122 0 -199 72.5t-84 204.5z" />
    <glyph glyph-name="obreve" unicode="&#x14f;" horiz-adv-x="1189" 
d="M637 979q201 0 329.5 -127.5t128.5 -322.5q0 -147 -70.5 -272t-195.5 -199t-276 -74q-201 0 -329.5 127t-128.5 323q0 147 70.5 272t195.5 199t276 74zM628 869q-115 0 -210 -58.5t-149 -157t-54 -213.5q0 -152 97 -249.5t248 -97.5q175 0 295.5 126.5t120.5 303.5
q0 151 -97.5 248.5t-250.5 97.5zM411 1389l95 28q5 -100 59 -153t140 -53q166 0 264 206l93 -28q-131 -277 -368 -277q-122 0 -199 72.5t-84 204.5z" />
    <glyph glyph-name="Ohungarumlaut" unicode="&#x150;" horiz-adv-x="1701" 
d="M953 1449q143 0 267.5 -47t216 -132t144 -210t52.5 -273q0 -162 -58.5 -309.5t-160.5 -256t-249.5 -173t-315.5 -64.5q-143 0 -268 47t-216.5 132t-144 210t-52.5 273q0 217 99.5 400.5t280.5 293t405 109.5zM943 1329q-139 0 -260.5 -55t-204.5 -147t-131 -215t-48 -257
q0 -165 74 -291.5t200.5 -193t285.5 -66.5q139 0 260 54.5t204.5 147t131 215.5t47.5 257q0 249 -158.5 400t-400.5 151zM1202 1533h-121l264 307h141zM853 1533h-123l252 307h136z" />
    <glyph glyph-name="ohungarumlaut" unicode="&#x151;" horiz-adv-x="1189" 
d="M637 979q201 0 329.5 -127.5t128.5 -322.5q0 -147 -70.5 -272t-195.5 -199t-276 -74q-201 0 -329.5 127t-128.5 323q0 147 70.5 272t195.5 199t276 74zM628 869q-115 0 -210 -58.5t-149 -157t-54 -213.5q0 -152 97 -249.5t248 -97.5q175 0 295.5 126.5t120.5 303.5
q0 151 -97.5 248.5t-250.5 97.5zM902 1108h-121l263 307h142zM553 1108h-123l252 307h136z" />
    <glyph glyph-name="OE" unicode="&#x152;" horiz-adv-x="2233" 
d="M2114 780l-26 -116h-812l-117 -546h844l-26 -118h-1153q-313 0 -489 160t-176 431q0 177 61 330t175 267.5t290.5 180t396.5 65.5h1189l-24 -118h-833l-114 -536h814zM290 602q0 -223 140.5 -353t407.5 -130h194l255 1196h-218q-186 0 -335.5 -54.5t-245.5 -151
t-147 -226t-51 -281.5z" />
    <glyph glyph-name="oe" unicode="&#x153;" horiz-adv-x="1979" 
d="M1729 214l58 -81q-85 -76 -178.5 -112.5t-215.5 -36.5q-146 0 -247.5 67t-144.5 182q-71 -115 -188.5 -182t-259.5 -67q-201 0 -329.5 127t-128.5 323q0 147 70.5 272t195.5 199t276 74q147 0 257.5 -74t158.5 -199q69 124 186 198.5t269 74.5q176 0 284.5 -104
t108.5 -276q0 -80 -26 -160h-793q-1 -12 -1 -36q0 -142 87 -229.5t237 -87.5q187 0 324 128zM628 869q-115 0 -210 -58.5t-149 -157t-54 -213.5q0 -152 97 -249.5t248 -97.5q175 0 295.5 126.5t120.5 303.5q0 151 -97.5 248.5t-250.5 97.5zM1503 876q-105 0 -190.5 -49
t-136.5 -122.5t-76 -164.5h681q4 25 4 56q0 128 -77.5 204t-204.5 76z" />
    <glyph glyph-name="Racute" unicode="&#x154;" horiz-adv-x="1348" 
d="M408 1434h506q207 0 321 -95t114 -250q0 -90 -32.5 -169.5t-97 -144t-173 -102t-248.5 -37.5h-92l473 -636h-150l-462 636h-202l-136 -636h-127zM902 1315h-393l-121 -565h414q210 0 313 89.5t103 235.5q0 110 -82 175t-234 65zM816 1533h-121l259 307h152z" />
    <glyph glyph-name="racute" unicode="&#x155;" horiz-adv-x="806" 
d="M396 964l-26 -126q120 142 301 142q105 0 179 -44l-52 -106q-59 38 -148 38q-124 0 -217 -87t-126 -240l-114 -541h-117l205 964h115zM577 1109h-121l259 307h151z" />
    <glyph glyph-name="Rcommaaccent" unicode="&#x156;" horiz-adv-x="1348" 
d="M408 1434h506q207 0 321 -95t114 -250q0 -90 -32.5 -169.5t-97 -144t-173 -102t-248.5 -37.5h-92l473 -636h-150l-462 636h-202l-136 -636h-127zM902 1315h-393l-121 -565h414q210 0 313 89.5t103 235.5q0 110 -82 175t-234 65zM551 -90h130l-138 -349h-111z" />
    <glyph glyph-name="rcommaaccent" unicode="&#x157;" horiz-adv-x="806" 
d="M396 964l-26 -126q120 142 301 142q105 0 179 -44l-52 -106q-59 38 -148 38q-124 0 -217 -87t-126 -240l-114 -541h-117l205 964h115zM63 -90h131l-139 -349h-110z" />
    <glyph glyph-name="Rcaron" unicode="&#x158;" horiz-adv-x="1348" 
d="M408 1434h506q207 0 321 -95t114 -250q0 -90 -32.5 -169.5t-97 -144t-173 -102t-248.5 -37.5h-92l473 -636h-150l-462 636h-202l-136 -636h-127zM902 1315h-393l-121 -565h414q210 0 313 89.5t103 235.5q0 110 -82 175t-234 65zM577 1825h122l157 -218l246 218h133
l-310 -288h-153z" />
    <glyph glyph-name="rcaron" unicode="&#x159;" horiz-adv-x="806" 
d="M396 964l-26 -126q120 142 301 142q105 0 179 -44l-52 -106q-59 38 -148 38q-124 0 -217 -87t-126 -240l-114 -541h-117l205 964h115zM306 1400h123l157 -218l245 218h134l-311 -288h-152z" />
    <glyph glyph-name="Sacute" unicode="&#x15a;" horiz-adv-x="1349" 
d="M1329 1281l-69 -100q-200 149 -474 149q-102 0 -181.5 -26.5t-125 -70t-68.5 -94.5t-23 -105q0 -100 72 -161t224 -86l130 -21q187 -32 293.5 -117.5t106.5 -232.5q0 -89 -37.5 -166.5t-107.5 -137t-180.5 -94t-246.5 -34.5q-132 0 -287 45t-274 143l75 101
q100 -88 238 -129.5t253 -41.5q206 0 321 86.5t115 212.5q0 98 -77.5 157.5t-233.5 86.5l-132 23q-188 32 -286 120.5t-98 230.5q0 81 32.5 156t96 137t169.5 99.5t240 37.5q315 0 535 -168zM809 1533h-121l259 307h152z" />
    <glyph glyph-name="sacute" unicode="&#x15b;" horiz-adv-x="972" 
d="M930 869l-62 -89q-56 41 -146.5 69t-180.5 28q-111 0 -185 -43t-83 -117q-9 -72 38 -114t152 -59l97 -15q151 -24 221.5 -94t58.5 -178q-15 -126 -125.5 -199t-279.5 -73q-112 0 -226 37t-189 97l66 86q64 -52 156.5 -85.5t190.5 -33.5q122 0 200 44t87 126
q15 136 -192 169l-99 15q-155 24 -221.5 95t-54.5 177q15 126 121 196.5t268 70.5q117 0 218.5 -30.5t169.5 -79.5zM606 1109h-121l259 307h152z" />
    <glyph glyph-name="Scircumflex" unicode="&#x15c;" horiz-adv-x="1349" 
d="M1329 1281l-69 -100q-200 149 -474 149q-102 0 -181.5 -26.5t-125 -70t-68.5 -94.5t-23 -105q0 -100 72 -161t224 -86l130 -21q187 -32 293.5 -117.5t106.5 -232.5q0 -89 -37.5 -166.5t-107.5 -137t-180.5 -94t-246.5 -34.5q-132 0 -287 45t-274 143l75 101
q100 -88 238 -129.5t253 -41.5q206 0 321 86.5t115 212.5q0 98 -77.5 157.5t-233.5 86.5l-132 23q-188 32 -286 120.5t-98 230.5q0 81 32.5 156t96 137t169.5 99.5t240 37.5q315 0 535 -168zM1155 1539h-123l-158 218l-244 -218h-132l309 289h154z" />
    <glyph glyph-name="scircumflex" unicode="&#x15d;" horiz-adv-x="972" 
d="M930 869l-62 -89q-56 41 -146.5 69t-180.5 28q-111 0 -185 -43t-83 -117q-9 -72 38 -114t152 -59l97 -15q151 -24 221.5 -94t58.5 -178q-15 -126 -125.5 -199t-279.5 -73q-112 0 -226 37t-189 97l66 86q64 -52 156.5 -85.5t190.5 -33.5q122 0 200 44t87 126
q15 136 -192 169l-99 15q-155 24 -221.5 95t-54.5 177q15 126 121 196.5t268 70.5q117 0 218.5 -30.5t169.5 -79.5zM934 1114h-123l-158 218l-244 -218h-133l310 289h153z" />
    <glyph glyph-name="Scedilla" unicode="&#x15e;" horiz-adv-x="1349" 
d="M1329 1281l-69 -100q-200 149 -474 149q-102 0 -181.5 -26.5t-125 -70t-68.5 -94.5t-23 -105q0 -100 72 -161t224 -86l130 -21q187 -32 293.5 -117.5t106.5 -232.5q0 -169 -127.5 -288.5t-356.5 -139.5l-163 -319h-135l170 316q-130 6 -271 51t-250 136l75 101
q100 -88 238 -129.5t253 -41.5q206 0 321 86.5t115 212.5q0 98 -77.5 157.5t-233.5 86.5l-132 23q-188 32 -286 120.5t-98 230.5q0 81 32.5 156t96 137t169.5 99.5t240 37.5q315 0 535 -168z" />
    <glyph glyph-name="scedilla" unicode="&#x15f;" horiz-adv-x="972" 
d="M930 869l-62 -89q-56 41 -146.5 69t-180.5 28q-111 0 -185 -43t-83 -117q-9 -72 38 -114t152 -59l97 -15q151 -24 221.5 -94t58.5 -178q-13 -114 -106.5 -185.5t-238.5 -83.5l-163 -319h-130l172 319q-100 9 -195 44t-159 87l66 86q64 -52 156.5 -85.5t190.5 -33.5
q122 0 200 44t87 126q15 136 -192 169l-99 15q-155 24 -221.5 95t-54.5 177q15 126 121 196.5t268 70.5q117 0 218.5 -30.5t169.5 -79.5z" />
    <glyph glyph-name="Scaron" unicode="&#x160;" horiz-adv-x="1349" 
d="M1329 1281l-69 -100q-200 149 -474 149q-102 0 -181.5 -26.5t-125 -70t-68.5 -94.5t-23 -105q0 -100 72 -161t224 -86l130 -21q187 -32 293.5 -117.5t106.5 -232.5q0 -89 -37.5 -166.5t-107.5 -137t-180.5 -94t-246.5 -34.5q-132 0 -287 45t-274 143l75 101
q100 -88 238 -129.5t253 -41.5q206 0 321 86.5t115 212.5q0 98 -77.5 157.5t-233.5 86.5l-132 23q-188 32 -286 120.5t-98 230.5q0 81 32.5 156t96 137t169.5 99.5t240 37.5q315 0 535 -168zM569 1825h123l157 -218l246 218h133l-310 -288h-153z" />
    <glyph glyph-name="scaron" unicode="&#x161;" horiz-adv-x="972" 
d="M930 869l-62 -89q-56 41 -146.5 69t-180.5 28q-111 0 -185 -43t-83 -117q-9 -72 38 -114t152 -59l97 -15q151 -24 221.5 -94t58.5 -178q-15 -126 -125.5 -199t-279.5 -73q-112 0 -226 37t-189 97l66 86q64 -52 156.5 -85.5t190.5 -33.5q122 0 200 44t87 126
q15 136 -192 169l-99 15q-155 24 -221.5 95t-54.5 177q15 126 121 196.5t268 70.5q117 0 218.5 -30.5t169.5 -79.5zM336 1400h123l156 -218l246 218h133l-310 -288h-153z" />
    <glyph glyph-name="Tcommaaccent" unicode="&#x162;" horiz-adv-x="1216" 
d="M1378 1434l-25 -119h-500l-280 -1315h-4l-169 -331h-135l181 335l279 1311h-507l26 119h1134z" />
    <glyph glyph-name="tcommaaccent" unicode="&#x163;" horiz-adv-x="909" 
d="M915 964l-22 -107h-423l-106 -504q-28 -128 21 -193.5t145 -65.5q117 0 222 77l49 -90q-119 -90 -260 -95l-162 -317h-130l176 327q-112 27 -161.5 119t-17.5 241l106 501h-219l23 107h219l67 314h117l-66 -314h422z" />
    <glyph glyph-name="Tcaron" unicode="&#x164;" horiz-adv-x="1216" 
d="M1378 1434l-25 -119h-500l-280 -1315h-128l280 1315h-507l26 119h1134zM555 1825h123l157 -218l245 218h133l-310 -288h-152z" />
    <glyph glyph-name="tcaron" unicode="&#x165;" horiz-adv-x="909" 
d="M915 964l-22 -107h-423l-106 -504q-28 -128 21 -193.5t145 -65.5q117 0 222 77l49 -90q-127 -96 -284 -96q-155 0 -232 96.5t-39 274.5l106 501h-219l23 107h219l67 314h117l-66 -314h422zM758 1076h-98l95 399h130z" />
    <glyph glyph-name="Tbar" unicode="&#x166;" horiz-adv-x="1216" 
d="M1092 781l-26 -118h-352l-141 -663h-128l141 663h-327l26 118h326l114 534h-507l26 119h1134l-25 -119h-500l-114 -534h353z" />
    <glyph glyph-name="tbar" unicode="&#x167;" horiz-adv-x="909" 
d="M915 964l-22 -107h-423l-56 -265h352l-23 -106h-352l-27 -133q-27 -128 21.5 -193.5t144.5 -65.5q117 0 222 77l49 -90q-127 -96 -284 -96q-155 0 -232 96.5t-39 274.5l27 130h-173l23 106h173l56 265h-219l23 107h219l67 314h117l-66 -314h422z" />
    <glyph glyph-name="Utilde" unicode="&#x168;" horiz-adv-x="1504" 
d="M1522 1434l-187 -881q-61 -287 -233 -427.5t-425 -140.5q-103 0 -191 26.5t-155.5 78t-106 135.5t-38.5 193q0 72 18 156l183 860h128l-183 -857q-16 -74 -16 -139q0 -169 102.5 -251.5t272.5 -82.5q195 0 332 114.5t186 343.5l185 872h128zM710 1604l-67 69
q51 58 103 84.5t118 26.5q47 0 86.5 -14t62 -30t52.5 -30t61 -14q78 0 154 79l67 -70q-51 -57 -103.5 -84t-118.5 -27q-47 0 -86 14t-61 30.5t-52.5 30.5t-62.5 14q-76 0 -153 -79z" />
    <glyph glyph-name="utilde" unicode="&#x169;" horiz-adv-x="1192" 
d="M1127 964l-120 -571q-42 -201 -176 -304.5t-319 -103.5q-162 0 -265.5 87t-103.5 245q0 47 13 110l114 537h118l-116 -543q-11 -52 -11 -91q0 -116 73 -176t191 -60q136 0 235.5 82.5t132.5 237.5l117 550h117zM456 1179l-67 69q51 58 103 84.5t118 26.5q47 0 86.5 -13.5
t62 -30.5t52.5 -30.5t61 -13.5q78 0 154 79l67 -70q-51 -57 -103.5 -84t-118.5 -27q-47 0 -86 14t-61 30.5t-52.5 30.5t-62.5 14q-76 0 -153 -79z" />
    <glyph glyph-name="Umacron" unicode="&#x16a;" horiz-adv-x="1504" 
d="M1522 1434l-187 -881q-61 -287 -233 -427.5t-425 -140.5q-103 0 -191 26.5t-155.5 78t-106 135.5t-38.5 193q0 72 18 156l183 860h128l-183 -857q-16 -74 -16 -139q0 -169 102.5 -251.5t272.5 -82.5q195 0 332 114.5t186 343.5l185 872h128zM687 1633l21 96h599l-21 -96
h-599z" />
    <glyph glyph-name="umacron" unicode="&#x16b;" horiz-adv-x="1192" 
d="M1127 964l-120 -571q-42 -201 -176 -304.5t-319 -103.5q-162 0 -265.5 87t-103.5 245q0 47 13 110l114 537h118l-116 -543q-11 -52 -11 -91q0 -116 73 -176t191 -60q136 0 235.5 82.5t132.5 237.5l117 550h117zM445 1208l21 96h599l-21 -96h-599z" />
    <glyph glyph-name="Ubreve" unicode="&#x16c;" horiz-adv-x="1504" 
d="M1522 1434l-187 -881q-61 -287 -233 -427.5t-425 -140.5q-103 0 -191 26.5t-155.5 78t-106 135.5t-38.5 193q0 72 18 156l183 860h128l-183 -857q-16 -74 -16 -139q0 -169 102.5 -251.5t272.5 -82.5q195 0 332 114.5t186 343.5l185 872h128zM690 1814l95 28
q5 -100 59 -153t140 -53q166 0 264 206l93 -28q-131 -277 -367 -277q-122 0 -199.5 72.5t-84.5 204.5z" />
    <glyph glyph-name="ubreve" unicode="&#x16d;" horiz-adv-x="1192" 
d="M1127 964l-120 -571q-42 -201 -176 -304.5t-319 -103.5q-162 0 -265.5 87t-103.5 245q0 47 13 110l114 537h118l-116 -543q-11 -52 -11 -91q0 -116 73 -176t191 -60q136 0 235.5 82.5t132.5 237.5l117 550h117zM442 1389l96 28q5 -100 58.5 -153t139.5 -53q166 0 264 206
l94 -28q-131 -277 -368 -277q-122 0 -199.5 72.5t-84.5 204.5z" />
    <glyph glyph-name="Uring" unicode="&#x16e;" horiz-adv-x="1504" 
d="M1522 1434l-187 -881q-61 -287 -233 -427.5t-425 -140.5q-103 0 -191 26.5t-155.5 78t-106 135.5t-38.5 193q0 72 18 156l183 860h128l-183 -857q-16 -74 -16 -139q0 -169 102.5 -251.5t272.5 -82.5q195 0 332 114.5t186 343.5l185 872h128zM985 1517q-91 0 -155.5 63.5
t-64.5 154.5q0 90 64.5 154t155.5 64t155.5 -64t64.5 -154q0 -91 -64.5 -154.5t-155.5 -63.5zM985 1591q59 0 100 42t41 102q0 59 -41 100.5t-100 41.5t-100 -41.5t-41 -100.5q0 -60 41 -102t100 -42z" />
    <glyph glyph-name="uring" unicode="&#x16f;" horiz-adv-x="1192" 
d="M1127 964l-120 -571q-42 -201 -176 -304.5t-319 -103.5q-162 0 -265.5 87t-103.5 245q0 47 13 110l114 537h118l-116 -543q-11 -52 -11 -91q0 -116 73 -176t191 -60q136 0 235.5 82.5t132.5 237.5l117 550h117zM732 1092q-91 0 -155.5 63.5t-64.5 154.5q0 90 64.5 154
t155.5 64t155.5 -64t64.5 -154q0 -91 -64.5 -154.5t-155.5 -63.5zM732 1166q59 0 100 42t41 102q0 59 -41 100.5t-100 41.5t-100 -41.5t-41 -100.5q0 -60 41 -102t100 -42z" />
    <glyph glyph-name="Uhungarumlaut" unicode="&#x170;" horiz-adv-x="1504" 
d="M1522 1434l-187 -881q-61 -287 -233 -427.5t-425 -140.5q-103 0 -191 26.5t-155.5 78t-106 135.5t-38.5 193q0 72 18 156l183 860h128l-183 -857q-16 -74 -16 -139q0 -169 102.5 -251.5t272.5 -82.5q195 0 332 114.5t186 343.5l185 872h128zM1178 1533h-121l263 307h141z
M828 1533h-122l251 307h137z" />
    <glyph glyph-name="uhungarumlaut" unicode="&#x171;" horiz-adv-x="1192" 
d="M1127 964l-120 -571q-42 -201 -176 -304.5t-319 -103.5q-162 0 -265.5 87t-103.5 245q0 47 13 110l114 537h118l-116 -543q-11 -52 -11 -91q0 -116 73 -176t191 -60q136 0 235.5 82.5t132.5 237.5l117 550h117zM934 1108h-121l263 307h142zM585 1108h-123l252 307h136z
" />
    <glyph glyph-name="Uogonek" unicode="&#x172;" horiz-adv-x="1504" 
d="M1006 -266l54 -78q-93 -78 -214 -78q-111 0 -178.5 54t-67.5 138q0 128 146 218q-35 -3 -69 -3q-103 0 -191 26.5t-155.5 78t-106 135.5t-38.5 193q0 72 18 156l183 860h128l-183 -857q-16 -74 -16 -139q0 -169 102.5 -251.5t272.5 -82.5q195 0 332 114.5t186 343.5
l185 872h128l-187 -881q-82 -386 -369 -513q-250 -111 -250 -250q0 -51 37 -82t99 -31q83 0 154 57z" />
    <glyph glyph-name="uogonek" unicode="&#x173;" horiz-adv-x="1192" 
d="M796 -266l54 -78q-93 -78 -214 -78q-111 0 -178.5 54t-67.5 138q0 128 142 215h-20q-162 0 -265.5 87t-103.5 245q0 47 13 110l114 537h118l-116 -543q-11 -52 -11 -91q0 -116 73 -176t191 -60q136 0 235.5 82.5t132.5 237.5l117 550h117l-120 -571q-56 -268 -283 -369
q-218 -99 -218 -234q0 -51 37 -82t99 -31q83 0 154 57z" />
    <glyph glyph-name="Wcircumflex" unicode="&#x174;" horiz-adv-x="2251" 
d="M2378 1434l-773 -1434h-150l-158 1266l-675 -1266h-155l-187 1434h127l163 -1298l691 1300h136l157 -1296l692 1294h132zM1655 1539h-123l-158 218l-245 -218h-132l310 289h153z" />
    <glyph glyph-name="wcircumflex" unicode="&#x175;" horiz-adv-x="1739" 
d="M1010 964l161 -842l495 842h128l-572 -964h-139l-155 841l-459 -841h-136l-181 964h117l153 -841l459 841h129zM1300 1114h-122l-158 218l-245 -218h-132l309 289h154z" />
    <glyph glyph-name="Ycircumflex" unicode="&#x176;" horiz-adv-x="1278" 
d="M1467 1434l-737 -821l-130 -613h-127l132 625l-388 809h135l336 -697l621 697h158zM1157 1539h-123l-157 218l-245 -218h-132l309 289h154z" />
    <glyph glyph-name="ycircumflex" unicode="&#x177;" horiz-adv-x="1036" 
d="M1122 964l-998 -1377h-133l471 643l-337 734h124l288 -629l452 629h133zM950 1114h-123l-157 218l-245 -218h-132l309 289h154z" />
    <glyph glyph-name="Ydieresis" unicode="&#x178;" horiz-adv-x="1278" 
d="M1467 1434l-737 -821l-130 -613h-127l132 625l-388 809h135l336 -697l621 697h158zM668 1766q35 0 59.5 -25t24.5 -60t-24.5 -59t-59.5 -24t-59 24t-24 59t24 60t59 25zM1086 1766q35 0 60 -25t25 -60t-25 -59t-60 -24t-58.5 24t-23.5 59q0 36 23.5 60.5t58.5 24.5z" />
    <glyph glyph-name="Zacute" unicode="&#x179;" horiz-adv-x="1341" 
d="M1403 1434l-21 -100l-1139 -1215h919l-25 -119h-1088l24 105l1137 1210h-910l26 119h1077zM821 1533h-121l259 307h152z" />
    <glyph glyph-name="zacute" unicode="&#x17a;" horiz-adv-x="1047" 
d="M1017 964l-20 -90l-781 -769h644l-22 -105h-803l18 91l787 766h-635l23 107h789zM625 1109h-121l259 307h151z" />
    <glyph glyph-name="Zdotaccent" unicode="&#x17b;" horiz-adv-x="1341" 
d="M1403 1434l-21 -100l-1139 -1215h919l-25 -119h-1088l24 105l1137 1210h-910l26 119h1077zM876 1776q37 0 62.5 -26t25.5 -63t-25.5 -62.5t-62.5 -25.5t-62.5 25.5t-25.5 62.5t25.5 63t62.5 26z" />
    <glyph glyph-name="zdotaccent" unicode="&#x17c;" horiz-adv-x="1047" 
d="M1017 964l-20 -90l-781 -769h644l-22 -105h-803l18 91l787 766h-635l23 107h789zM671 1395q35 0 59.5 -25t24.5 -60t-24.5 -59t-59.5 -24t-59 24t-24 59t24 60t59 25z" />
    <glyph glyph-name="Zcaron" unicode="&#x17d;" horiz-adv-x="1341" 
d="M1403 1434l-21 -100l-1139 -1215h919l-25 -119h-1088l24 105l1137 1210h-910l26 119h1077zM582 1825h123l156 -218l246 218h133l-310 -288h-153z" />
    <glyph glyph-name="zcaron" unicode="&#x17e;" horiz-adv-x="1047" 
d="M1017 964l-20 -90l-781 -769h644l-22 -105h-803l18 91l787 766h-635l23 107h789zM354 1400h123l157 -218l246 218h133l-311 -288h-152z" />
    <glyph glyph-name="longs" unicode="&#x17f;" horiz-adv-x="653" 
d="M898 1412l-57 -91q-73 59 -179 59q-87 0 -148 -58t-86 -177l-244 -1145h-117l246 1160q34 162 123.5 246t226.5 84q140 0 235 -78z" />
    <glyph glyph-name="uni018F" unicode="&#x18f;" horiz-adv-x="1639" 
d="M389 1093l-74 92q252 263 588 263q143 0 267 -49t212 -135.5t138.5 -209.5t50.5 -266q0 -217 -98 -401t-274 -293.5t-390 -109.5q-190 0 -337.5 82t-228 229t-80.5 336q0 49 13 144h1264v2q0 242 -154.5 396t-391.5 154q-289 0 -505 -234zM819 104q232 0 402.5 158
t208.5 395h-1133v-31q0 -228 145.5 -375t376.5 -147z" />
    <glyph glyph-name="florin" unicode="&#x192;" horiz-adv-x="1433" 
d="M1160 796l-21 -107h-322l-86 -389q-35 -159 -110.5 -237t-203.5 -78q-125 0 -211 67l51 94q29 -25 73 -40.5t87 -15.5q153 0 200 211l86 388h-292l22 107h294l75 338q35 159 110.5 237t203.5 78q121 0 212 -68l-52 -94q-29 25 -73 40.5t-87 15.5q-154 0 -201 -210
l-74 -337h319z" />
    <glyph glyph-name="uni01B5" unicode="&#x1b5;" horiz-adv-x="1341" 
d="M1403 1434l-21 -100l-524 -559h284l-25 -116h-367l-507 -540h919l-25 -119h-1088l24 105l524 559h-289l25 114h373l504 537h-910l26 119h1077z" />
    <glyph glyph-name="uni01B6" unicode="&#x1b6;" horiz-adv-x="1047" 
d="M1017 964l-20 -90l-347 -340h203l-19 -91h-275l-343 -338h644l-22 -105h-803l18 91l367 356h-204l20 91h275l329 319h-635l23 107h789z" />
    <glyph glyph-name="uni01CD" unicode="&#x1cd;" horiz-adv-x="1439" 
d="M997 1434l292 -1434h-128l-84 419h-735l-260 -419h-136l898 1434h153zM898 1310l-482 -772h637zM660 1825h123l157 -218l246 218h133l-310 -288h-153z" />
    <glyph glyph-name="uni01CE" unicode="&#x1ce;" horiz-adv-x="1239" 
d="M640 979q135 0 229 -66t130 -174l49 225h115l-205 -964h-115l31 146q-145 -161 -367 -161q-181 0 -299 120.5t-118 304.5q0 151 72 281.5t199.5 209t278.5 78.5zM527 94q158 0 277.5 108t145.5 271q26 167 -63.5 281.5t-249.5 114.5q-177 0 -302 -132t-125 -316
q0 -142 86.5 -234.5t230.5 -92.5zM422 1400h123l156 -218l246 218h133l-310 -288h-153z" />
    <glyph glyph-name="uni01CF" unicode="&#x1cf;" horiz-adv-x="536" 
d="M535 1434l-306 -1434h-127l306 1434h127zM212 1825h123l157 -218l245 218h133l-310 -288h-152z" />
    <glyph glyph-name="uni01D0" unicode="&#x1d0;" horiz-adv-x="474" 
d="M398 964l-205 -964h-117l205 964h117zM95 1400h123l157 -218l246 218h133l-311 -288h-152z" />
    <glyph glyph-name="uni01D1" unicode="&#x1d1;" horiz-adv-x="1701" 
d="M953 1449q143 0 267.5 -47t216 -132t144 -210t52.5 -273q0 -162 -58.5 -309.5t-160.5 -256t-249.5 -173t-315.5 -64.5q-143 0 -268 47t-216.5 132t-144 210t-52.5 273q0 217 99.5 400.5t280.5 293t405 109.5zM943 1329q-139 0 -260.5 -55t-204.5 -147t-131 -215t-48 -257
q0 -165 74 -291.5t200.5 -193t285.5 -66.5q139 0 260 54.5t204.5 147t131 215.5t47.5 257q0 249 -158.5 400t-400.5 151zM720 1825h123l156 -218l246 218h133l-310 -288h-153z" />
    <glyph glyph-name="uni01D2" unicode="&#x1d2;" horiz-adv-x="1189" 
d="M637 979q201 0 329.5 -127.5t128.5 -322.5q0 -147 -70.5 -272t-195.5 -199t-276 -74q-201 0 -329.5 127t-128.5 323q0 147 70.5 272t195.5 199t276 74zM628 869q-115 0 -210 -58.5t-149 -157t-54 -213.5q0 -152 97 -249.5t248 -97.5q175 0 295.5 126.5t120.5 303.5
q0 151 -97.5 248.5t-250.5 97.5zM418 1400h123l156 -218l246 218h133l-310 -288h-153z" />
    <glyph glyph-name="uni01D3" unicode="&#x1d3;" horiz-adv-x="1504" 
d="M1522 1434l-187 -881q-61 -287 -233 -427.5t-425 -140.5q-103 0 -191 26.5t-155.5 78t-106 135.5t-38.5 193q0 72 18 156l183 860h128l-183 -857q-16 -74 -16 -139q0 -169 102.5 -251.5t272.5 -82.5q195 0 332 114.5t186 343.5l185 872h128zM695 1825h123l157 -218
l246 218h133l-311 -288h-152z" />
    <glyph glyph-name="uni01D4" unicode="&#x1d4;" horiz-adv-x="1192" 
d="M1127 964l-120 -571q-42 -201 -176 -304.5t-319 -103.5q-162 0 -265.5 87t-103.5 245q0 47 13 110l114 537h118l-116 -543q-11 -52 -11 -91q0 -116 73 -176t191 -60q136 0 235.5 82.5t132.5 237.5l117 550h117zM450 1400h122l157 -218l246 218h133l-310 -288h-153z" />
    <glyph glyph-name="uni01D5" unicode="&#x1d5;" horiz-adv-x="1504" 
d="M1522 1434l-187 -881q-61 -287 -233 -427.5t-425 -140.5q-103 0 -191 26.5t-155.5 78t-106 135.5t-38.5 193q0 72 18 156l183 860h128l-183 -857q-16 -74 -16 -139q0 -169 102.5 -251.5t272.5 -82.5q195 0 332 114.5t186 343.5l185 872h128zM752 1973l20 95h599l-20 -95
h-599zM792 1766q35 0 59.5 -25t24.5 -60t-24.5 -59t-59.5 -24t-59 24t-24 59t24 60t59 25zM1210 1766q35 0 60 -25t25 -60t-25 -59t-60 -24t-59 24t-24 59t24 60t59 25z" />
    <glyph glyph-name="uni01D6" unicode="&#x1d6;" horiz-adv-x="1192" 
d="M1127 964l-120 -571q-42 -201 -176 -304.5t-319 -103.5q-162 0 -265.5 87t-103.5 245q0 47 13 110l114 537h118l-116 -543q-11 -52 -11 -91q0 -116 73 -176t191 -60q136 0 235.5 82.5t132.5 237.5l117 550h117zM546 1341q35 0 59.5 -25t24.5 -60t-24.5 -58.5t-59.5 -23.5
t-59 23.5t-24 58.5t24 60t59 25zM965 1341q35 0 60 -25t25 -60t-24.5 -58.5t-60.5 -23.5q-35 0 -59 23.5t-24 58.5t24 60t59 25zM509 1541l20 95h599l-20 -95h-599z" />
    <glyph glyph-name="uni01D7" unicode="&#x1d7;" horiz-adv-x="1504" 
d="M1522 1434l-187 -881q-61 -287 -233 -427.5t-425 -140.5q-103 0 -191 26.5t-155.5 78t-106 135.5t-38.5 193q0 72 18 156l183 860h128l-183 -857q-16 -74 -16 -139q0 -169 102.5 -251.5t272.5 -82.5q195 0 332 114.5t186 343.5l185 872h128zM1012 1949h-121l259 307h152z
M792 1766q35 0 59.5 -25t24.5 -60t-24.5 -59t-59.5 -24t-59 24t-24 59t24 60t59 25zM1210 1766q35 0 60 -25t25 -60t-25 -59t-60 -24t-59 24t-24 59t24 60t59 25z" />
    <glyph glyph-name="uni01D8" unicode="&#x1d8;" horiz-adv-x="1192" 
d="M1127 964l-120 -571q-42 -201 -176 -304.5t-319 -103.5q-162 0 -265.5 87t-103.5 245q0 47 13 110l114 537h118l-116 -543q-11 -52 -11 -91q0 -116 73 -176t191 -60q136 0 235.5 82.5t132.5 237.5l117 550h117zM546 1341q35 0 59.5 -25t24.5 -60t-24.5 -58.5t-59.5 -23.5
t-59 23.5t-24 58.5t24 60t59 25zM965 1341q35 0 60 -25t25 -60t-24.5 -58.5t-60.5 -23.5q-35 0 -59 23.5t-24 58.5t24 60t59 25zM769 1517h-121l259 307h152z" />
    <glyph glyph-name="uni01D9" unicode="&#x1d9;" horiz-adv-x="1504" 
d="M1522 1434l-187 -881q-61 -287 -233 -427.5t-425 -140.5q-103 0 -191 26.5t-155.5 78t-106 135.5t-38.5 193q0 72 18 156l183 860h128l-183 -857q-16 -74 -16 -139q0 -169 102.5 -251.5t272.5 -82.5q195 0 332 114.5t186 343.5l185 872h128zM770 2241h123l157 -219
l245 219h133l-310 -288h-152zM792 1766q35 0 59.5 -25t24.5 -60t-24.5 -59t-59.5 -24t-59 24t-24 59t24 60t59 25zM1210 1766q35 0 60 -25t25 -60t-25 -59t-60 -24t-59 24t-24 59t24 60t59 25z" />
    <glyph glyph-name="uni01DA" unicode="&#x1da;" horiz-adv-x="1192" 
d="M1127 964l-120 -571q-42 -201 -176 -304.5t-319 -103.5q-162 0 -265.5 87t-103.5 245q0 47 13 110l114 537h118l-116 -543q-11 -52 -11 -91q0 -116 73 -176t191 -60q136 0 235.5 82.5t132.5 237.5l117 550h117zM546 1341q35 0 59.5 -25t24.5 -60t-24.5 -58.5t-59.5 -23.5
t-59 23.5t-24 58.5t24 60t59 25zM965 1341q35 0 60 -25t25 -60t-24.5 -58.5t-60.5 -23.5q-35 0 -59 23.5t-24 58.5t24 60t59 25zM527 1808h123l157 -218l246 218h133l-310 -287h-153z" />
    <glyph glyph-name="uni01DB" unicode="&#x1db;" horiz-adv-x="1504" 
d="M1522 1434l-187 -881q-61 -287 -233 -427.5t-425 -140.5q-103 0 -191 26.5t-155.5 78t-106 135.5t-38.5 193q0 72 18 156l183 860h128l-183 -857q-16 -74 -16 -139q0 -169 102.5 -251.5t272.5 -82.5q195 0 332 114.5t186 343.5l185 872h128zM1057 1949l-257 307h147
l225 -307h-115zM792 1766q35 0 59.5 -25t24.5 -60t-24.5 -59t-59.5 -24t-59 24t-24 59t24 60t59 25zM1210 1766q35 0 60 -25t25 -60t-25 -59t-60 -24t-59 24t-24 59t24 60t59 25z" />
    <glyph glyph-name="uni01DC" unicode="&#x1dc;" horiz-adv-x="1192" 
d="M1127 964l-120 -571q-42 -201 -176 -304.5t-319 -103.5q-162 0 -265.5 87t-103.5 245q0 47 13 110l114 537h118l-116 -543q-11 -52 -11 -91q0 -116 73 -176t191 -60q136 0 235.5 82.5t132.5 237.5l117 550h117zM546 1341q35 0 59.5 -25t24.5 -60t-24.5 -58.5t-59.5 -23.5
t-59 23.5t-24 58.5t24 60t59 25zM965 1341q35 0 60 -25t25 -60t-24.5 -58.5t-60.5 -23.5q-35 0 -59 23.5t-24 58.5t24 60t59 25zM814 1517l-257 307h148l225 -307h-116z" />
    <glyph glyph-name="uni01E2" unicode="&#x1e2;" horiz-adv-x="2294" 
d="M2064 118l-25 -118h-970l85 399h-674l-384 -399h-159l1382 1434h1014l-25 -118h-832l-114 -536h813l-26 -116h-812l-116 -546h843zM595 518h584l166 778zM1504 1633l21 96h599l-21 -96h-599z" />
    <glyph glyph-name="uni01E3" unicode="&#x1e3;" horiz-adv-x="1826" 
d="M1576 214l58 -81q-85 -76 -178.5 -112.5t-215.5 -36.5q-136 0 -234.5 56.5t-148.5 155.5q-91 -101 -207 -156t-246 -55q-147 0 -237.5 69.5t-90.5 184.5q0 129 103.5 215t305.5 86h343l2 10q13 63 13 95q0 109 -71 168.5t-199 59.5q-153 0 -300 -94l-44 92
q165 108 364 108q135 0 222.5 -56t119.5 -163q69 101 176.5 160t244.5 59q176 0 284 -104t108 -276q0 -84 -27 -160h-791q-1 -12 -1 -36q0 -142 86.5 -229.5t236.5 -87.5q187 0 324 128zM1351 876q-154 0 -260 -97t-144 -239h681q4 25 4 56q0 128 -77 204t-204 76zM419 87
q109 0 216 52.5t188 149.5q-12 52 -12 110q0 15 2 43h-320q-148 0 -219.5 -56.5t-71.5 -135.5q0 -77 58.5 -120t158.5 -43zM718 1208l20 96h599l-20 -96h-599z" />
    <glyph glyph-name="Gcaron" unicode="&#x1e6;" horiz-adv-x="1651" 
d="M1485 1204l-94 -85q-84 109 -203 158.5t-243 49.5q-133 0 -252 -51t-205.5 -139t-137.5 -213.5t-51 -268.5q0 -245 156 -397t400 -152q234 0 389 141.5t193 387.5h-483l26 116h602q0 -19 -4 -59q-38 -317 -238 -511.5t-496 -194.5q-192 0 -346 83.5t-242 234t-88 339.5
q0 170 61.5 320t166.5 256t250.5 167.5t308.5 61.5q59 0 120 -10t135.5 -34.5t147 -75.5t127.5 -124zM695 1825h123l157 -218l246 218h133l-311 -288h-152z" />
    <glyph glyph-name="gcaron" unicode="&#x1e7;" horiz-adv-x="1240" 
d="M1163 964l-191 -906q-49 -229 -191.5 -352.5t-336.5 -123.5q-251 0 -414 151l67 87q138 -132 349 -132q151 0 264 100t147 278l17 88q-140 -156 -352 -156q-191 0 -310.5 118.5t-119.5 299.5q0 114 43 218t115.5 179.5t174 120.5t213.5 45q137 0 231 -66t130 -175l49 226
h115zM527 106q166 0 285.5 111.5t137.5 284.5q17 156 -72.5 261.5t-240.5 105.5q-179 0 -301.5 -127t-122.5 -315q0 -140 87.5 -230.5t226.5 -90.5zM418 1400h123l156 -218l246 218h133l-310 -288h-153z" />
    <glyph glyph-name="Aringacute" unicode="&#x1fa;" horiz-adv-x="1439" 
d="M82 0h-136l873 1397q-51 28 -80.5 78t-29.5 111q0 90 64.5 154t155.5 64t155.5 -64t64.5 -154q0 -69 -39 -124.5t-102 -79.5l281 -1382h-128l-84 419h-735zM898 1312l-482 -774h637zM929 1443q59 0 100 41.5t41 101.5q0 59 -41.5 101t-99.5 42q-59 0 -100.5 -42
t-41.5 -101q0 -60 41.5 -101.5t100.5 -41.5zM928 1861h-121l259 307h152z" />
    <glyph glyph-name="aringacute" unicode="&#x1fb;" horiz-adv-x="1239" 
d="M640 979q135 0 229 -66t130 -174l49 225h115l-205 -964h-115l31 146q-145 -161 -367 -161q-181 0 -299 120.5t-118 304.5q0 151 72 281.5t199.5 209t278.5 78.5zM527 94q158 0 277.5 108t145.5 271q26 167 -63.5 281.5t-249.5 114.5q-177 0 -302 -132t-125 -316
q0 -142 86.5 -234.5t230.5 -92.5zM736 1061q-91 0 -155.5 63.5t-64.5 154.5q0 90 64.5 154t155.5 64t155.5 -64t64.5 -154q0 -91 -64.5 -154.5t-155.5 -63.5zM736 1136q59 0 100.5 41.5t41.5 101.5q0 59 -41.5 100.5t-100.5 41.5t-100 -41.5t-41 -100.5q0 -60 41 -101.5
t100 -41.5zM736 1558h-121l259 307h152z" />
    <glyph glyph-name="AEacute" unicode="&#x1fc;" horiz-adv-x="2294" 
d="M2064 118l-25 -118h-970l85 399h-674l-384 -399h-159l1382 1434h1014l-25 -118h-832l-114 -536h813l-26 -116h-812l-116 -546h843zM595 518h584l166 778zM1752 1533h-121l259 307h152z" />
    <glyph glyph-name="aeacute" unicode="&#x1fd;" horiz-adv-x="1826" 
d="M1576 214l58 -81q-85 -76 -178.5 -112.5t-215.5 -36.5q-136 0 -234.5 56.5t-148.5 155.5q-91 -101 -207 -156t-246 -55q-147 0 -237.5 69.5t-90.5 184.5q0 129 103.5 215t305.5 86h343l2 10q13 63 13 95q0 109 -71 168.5t-199 59.5q-153 0 -300 -94l-44 92
q165 108 364 108q135 0 222.5 -56t119.5 -163q69 101 176.5 160t244.5 59q176 0 284 -104t108 -276q0 -84 -27 -160h-791q-1 -12 -1 -36q0 -142 86.5 -229.5t236.5 -87.5q187 0 324 128zM1351 876q-154 0 -260 -97t-144 -239h681q4 25 4 56q0 128 -77 204t-204 76zM419 87
q109 0 216 52.5t188 149.5q-12 52 -12 110q0 15 2 43h-320q-148 0 -219.5 -56.5t-71.5 -135.5q0 -77 58.5 -120t158.5 -43zM992 1109h-121l259 307h152z" />
    <glyph glyph-name="Oslashacute" unicode="&#x1fe;" horiz-adv-x="1701" 
d="M953 1449q145 0 271.5 -48t218.5 -137l209 186l75 -84l-210 -188q116 -163 116 -391q0 -162 -58.5 -309.5t-160.5 -256t-249.5 -173t-315.5 -64.5q-288 0 -478 174l-197 -174l-75 84l196 174q-127 171 -127 404q0 217 99.5 400.5t280.5 293t405 109.5zM943 1329
q-139 0 -260.5 -55t-204.5 -147t-131 -215t-48 -257q0 -186 95 -325l952 847q-155 152 -403 152zM1502 778q0 176 -86 311l-948 -844q155 -141 391 -141q139 0 260 54.5t204.5 147t131 215.5t47.5 257zM967 1533h-121l259 307h151z" />
    <glyph glyph-name="oslashacute" unicode="&#x1ff;" horiz-adv-x="1189" 
d="M637 979q190 0 318 -117l145 129l64 -71l-146 -132q77 -113 77 -259q0 -147 -70.5 -272t-195.5 -199t-276 -74q-188 0 -313 111l-140 -124l-64 72l139 125q-80 115 -80 266q0 147 70.5 272t195.5 199t276 74zM628 869q-115 0 -210 -58.5t-149 -157t-54 -213.5
q0 -109 51 -191l600 534q-96 86 -238 86zM976 523q0 105 -49 185l-598 -533q93 -82 231 -82q175 0 295.5 126.5t120.5 303.5zM703 1109h-120l259 307h151z" />
    <glyph glyph-name="Scommaaccent" unicode="&#x218;" horiz-adv-x="1349" 
d="M1329 1281l-69 -100q-200 149 -474 149q-102 0 -181.5 -26.5t-125 -70t-68.5 -94.5t-23 -105q0 -100 72 -161t224 -86l130 -21q187 -32 293.5 -117.5t106.5 -232.5q0 -89 -37.5 -166.5t-107.5 -137t-180.5 -94t-246.5 -34.5q-132 0 -287 45t-274 143l75 101
q100 -88 238 -129.5t253 -41.5q206 0 321 86.5t115 212.5q0 98 -77.5 157.5t-233.5 86.5l-132 23q-188 32 -286 120.5t-98 230.5q0 81 32.5 156t96 137t169.5 99.5t240 37.5q315 0 535 -168zM601 -90h130l-138 -349h-111z" />
    <glyph glyph-name="scommaaccent" unicode="&#x219;" horiz-adv-x="972" 
d="M930 869l-62 -89q-56 41 -146.5 69t-180.5 28q-111 0 -185 -43t-83 -117q-9 -72 38 -114t152 -59l97 -15q151 -24 221.5 -94t58.5 -178q-15 -126 -125.5 -199t-279.5 -73q-112 0 -226 37t-189 97l66 86q64 -52 156.5 -85.5t190.5 -33.5q122 0 200 44t87 126
q15 136 -192 169l-99 15q-155 24 -221.5 95t-54.5 177q15 126 121 196.5t268 70.5q117 0 218.5 -30.5t169.5 -79.5zM372 -90h130l-138 -349h-111z" />
    <glyph glyph-name="uni021A" unicode="&#x21a;" horiz-adv-x="1216" 
d="M1378 1434l-25 -119h-500l-280 -1315h-128l280 1315h-507l26 119h1134zM434 -90h130l-138 -349h-111z" />
    <glyph glyph-name="uni021B" unicode="&#x21b;" horiz-adv-x="909" 
d="M915 964l-22 -107h-423l-106 -504q-28 -128 21 -193.5t145 -65.5q117 0 222 77l49 -90q-127 -96 -284 -96q-155 0 -232 96.5t-39 274.5l106 501h-219l23 107h219l67 314h117l-66 -314h422zM419 -90h130l-138 -349h-111z" />
    <glyph glyph-name="uni0232" unicode="&#x232;" horiz-adv-x="1278" 
d="M1467 1434l-737 -821l-130 -613h-127l132 625l-388 809h135l336 -697l621 697h158zM563 1633l21 96h599l-21 -96h-599z" />
    <glyph glyph-name="uni0233" unicode="&#x233;" horiz-adv-x="1036" 
d="M1122 964l-998 -1377h-133l471 643l-337 734h124l288 -629l452 629h133zM348 1208l21 96h599l-21 -96h-599z" />
    <glyph glyph-name="uni0237" unicode="&#x237;" horiz-adv-x="479" 
d="M403 964l-244 -1151q-24 -116 -90 -175.5t-164 -59.5q-86 0 -146 42l44 95q42 -27 95 -27q57 0 94.5 35.5t51.5 104.5l242 1136h117z" />
    <glyph glyph-name="uni0259" unicode="&#x259;" horiz-adv-x="1103" 
d="M244 744l-51 86q85 77 179 113.5t215 36.5q199 0 314 -117t115 -299q0 -105 -38 -207.5t-106 -185.5t-173 -134.5t-228 -51.5q-176 0 -284 104t-108 276q0 82 25 159h793q1 12 1 36q0 142 -87 230t-237 88q-188 0 -330 -134zM476 88q79 0 148 27.5t119 75.5t84.5 107
t52.5 126h-681q-4 -25 -4 -56q0 -128 77 -204t204 -76z" />
    <glyph glyph-name="uni02BB" unicode="&#x2bb;" horiz-adv-x="486" 
d="M388 980h-135l196 495h108z" />
    <glyph glyph-name="afii57929" unicode="&#x2bc;" horiz-adv-x="486" 
d="M415 1475h135l-196 -495h-108z" />
    <glyph glyph-name="uni02BE" unicode="&#x2be;" horiz-adv-x="552" 
d="M334 1377l23 107q124 -10 205.5 -102.5t81.5 -220.5q0 -148 -105 -255t-258 -107q-37 0 -68 6l23 105q23 -5 51 -5q100 0 171 76.5t71 177.5q0 89 -55.5 151.5t-139.5 66.5z" />
    <glyph glyph-name="uni02BF" unicode="&#x2bf;" horiz-adv-x="552" 
d="M500 905l-24 -106q-124 10 -205.5 102t-81.5 220q0 148 105.5 255.5t258.5 107.5q37 0 68 -6l-23 -106q-22 5 -51 5q-100 0 -171.5 -76.5t-71.5 -177.5q0 -89 56 -151.5t140 -66.5z" />
    <glyph glyph-name="circumflex" unicode="&#x2c6;" horiz-adv-x="925" 
d="M921 1114h-123l-158 218l-245 -218h-132l309 289h154z" />
    <glyph glyph-name="caron" unicode="&#x2c7;" horiz-adv-x="925" 
d="M314 1400h123l157 -218l246 218h133l-310 -288h-153z" />
    <glyph glyph-name="breve" unicode="&#x2d8;" horiz-adv-x="925" 
d="M323 1389l95 28q5 -100 58.5 -153t139.5 -53q167 0 265 206l93 -28q-131 -277 -368 -277q-122 0 -199 72.5t-84 204.5z" />
    <glyph glyph-name="dotaccent" unicode="&#x2d9;" horiz-adv-x="527" 
d="M439 1395q35 0 59.5 -25t24.5 -60t-24.5 -59t-59.5 -24t-59 24t-24 59t24 60t59 25z" />
    <glyph glyph-name="ring" unicode="&#x2da;" horiz-adv-x="925" 
d="M638 1092q-91 0 -155.5 63.5t-64.5 154.5q0 90 64.5 154t155.5 64t155.5 -64t64.5 -154q0 -91 -64.5 -154.5t-155.5 -63.5zM638 1166q59 0 100 42t41 102q0 59 -41 100.5t-100 41.5t-100 -41.5t-41 -100.5q0 -60 41 -102t100 -42z" />
    <glyph glyph-name="ogonek" unicode="&#x2db;" horiz-adv-x="1101" 
d="M839 -266l54 -78q-93 -78 -214 -78q-111 0 -178.5 54t-67.5 138q0 96 82 170.5t277 139.5l12 -37q-255 -115 -255 -253q0 -51 37 -82t99 -31q83 0 154 57z" />
    <glyph glyph-name="tilde" unicode="&#x2dc;" horiz-adv-x="925" 
d="M351 1179l-66 69q51 58 103 84.5t118 26.5q47 0 86.5 -13.5t62 -30.5t52.5 -30.5t61 -13.5q78 0 154 79l66 -70q-51 -58 -103 -84.5t-118 -26.5q-47 0 -86 14t-61 30.5t-52.5 30.5t-62.5 14q-77 0 -154 -79z" />
    <glyph glyph-name="hungarumlaut" unicode="&#x2dd;" horiz-adv-x="925" 
d="M734 1108h-121l264 307h141zM385 1108h-123l252 307h136z" />
    <glyph glyph-name="gravecomb" unicode="&#x300;" 
d="M-495 1108l-257 307h148l225 -307h-116z" />
    <glyph glyph-name="acutecomb" unicode="&#x301;" 
d="M-502 1109h-121l259 307h152z" />
    <glyph glyph-name="uni0302" unicode="&#x302;" 
d="M-174 1114h-123l-158 218l-244 -218h-132l309 289h153z" />
    <glyph glyph-name="tildecomb" unicode="&#x303;" 
d="M-766 1179l-67 69q51 57 103.5 84t118.5 27q47 0 86.5 -13.5t62 -30.5t52.5 -30.5t61 -13.5q77 0 153 79l67 -70q-51 -58 -103 -84.5t-118 -26.5q-47 0 -86 14t-61 30.5t-52.5 30.5t-62.5 14q-77 0 -154 -79z" />
    <glyph glyph-name="uni0304" unicode="&#x304;" 
d="M-776 1208l20 96h599l-20 -96h-599z" />
    <glyph glyph-name="uni0306" unicode="&#x306;" 
d="M-779 1389l95 28q5 -100 59 -153t140 -53q166 0 264 206l93 -28q-131 -277 -368 -277q-122 0 -199 72.5t-84 204.5z" />
    <glyph glyph-name="uni0307" unicode="&#x307;" 
d="M-456 1395q35 0 59.5 -25t24.5 -60t-24.5 -59t-59.5 -24t-59 24t-24 59t24 60t59 25z" />
    <glyph glyph-name="uni0308" unicode="&#x308;" 
d="M-676 1341q35 0 59.5 -25t24.5 -60t-24.5 -58.5t-59.5 -23.5t-59 23.5t-24 58.5t24 60t59 25zM-257 1341q35 0 60 -25t25 -60t-24.5 -58.5t-60.5 -23.5q-35 0 -59 23.5t-24 58.5t24 60t59 25z" />
    <glyph glyph-name="uni030A" unicode="&#x30a;" 
d="M-489 1092q-91 0 -156 64t-65 154t65 154t156 64t155.5 -64t64.5 -154q0 -91 -64.5 -154.5t-155.5 -63.5zM-489 1166q59 0 100 42t41 102q0 59 -41 100.5t-100 41.5t-100.5 -41.5t-41.5 -100.5q0 -60 41.5 -102t100.5 -42z" />
    <glyph glyph-name="uni030B" unicode="&#x30b;" 
d="M-288 1108h-121l264 307h141zM-637 1108h-123l252 307h136z" />
    <glyph glyph-name="uni030C" unicode="&#x30c;" 
d="M-772 1400h123l156 -218l246 218h133l-310 -288h-153z" />
    <glyph glyph-name="uni0312" unicode="&#x312;" 
d="M-433 1108h-130l138 348h111z" />
    <glyph glyph-name="dotbelowcomb" unicode="&#x323;" 
d="M-553 -183q35 0 59.5 -25t24.5 -60t-24.5 -59t-59.5 -24t-59 24t-24 59t24 60t59 25z" />
    <glyph glyph-name="uni0326" unicode="&#x326;" 
d="M-624 -90h130l-138 -349h-110z" />
    <glyph glyph-name="uni0327" unicode="&#x327;" 
d="M-401 5l-172 -336h-130l182 337z" />
    <glyph glyph-name="uni0328" unicode="&#x328;" 
d="M-377 -266l54 -78q-93 -78 -214 -78q-111 0 -178 54t-67 138q0 96 81.5 170.5t276.5 139.5l12 -37q-255 -115 -255 -253q0 -51 37 -82t100 -31q82 0 153 57z" />
    <glyph glyph-name="uni032E" unicode="&#x32e;" 
d="M-900 -141l95 27q6 -100 59.5 -152.5t140.5 -52.5q166 0 264 205l93 -27q-130 -277 -367 -277q-123 0 -200.5 72.5t-84.5 204.5z" />
    <glyph glyph-name="uni0331" unicode="&#x331;" 
d="M-920 -315l21 95h599l-21 -95h-599z" />
    <glyph glyph-name="uni0335" unicode="&#x335;" 
d="M-225 592l-22 -106h-718l22 106h718z" />
    <glyph glyph-name="uni0336" unicode="&#x336;" 
d="M170 592l-20 -106h-1509l22 106h1507z" />
    <glyph glyph-name="uni0394" unicode="&#x394;" horiz-adv-x="1445" 
d="M1002 1436l280 -1339l-20 -97h-1281l19 97l850 1339h152zM1151 119l-247 1189l-752 -1189h999z" />
    <glyph glyph-name="uni03A9" unicode="&#x3a9;" horiz-adv-x="1748" 
d="M1630 119l-24 -119h-598l21 105q150 35 264 134t175 239.5t61 302.5q0 157 -71.5 282t-202 196.5t-296.5 71.5q-183 0 -332 -89t-233 -243.5t-84 -342.5q0 -203 105.5 -348t282.5 -198l-22 -110h-604l24 119h406q-150 79 -236 222t-86 327q0 224 106.5 404.5t286 279.5
t394.5 99q199 0 357.5 -84t248 -236t89.5 -344q0 -220 -106.5 -397.5t-303.5 -270.5h378z" />
    <glyph glyph-name="uni03BC" unicode="&#x3bc;" horiz-adv-x="1205" 
d="M95 -410h-118l294 1374h117l-116 -543q-10 -52 -10 -89q0 -107 66 -172t191 -65q141 0 243.5 87.5t134.5 237.5l116 544h116l-204 -964h-116l29 136q-131 -151 -338 -151q-97 0 -173.5 35t-118.5 100z" />
    <glyph glyph-name="pi" unicode="&#x3c0;" horiz-adv-x="1203" 
d="M1138 964l-205 -964h-117l182 857h-623l-184 -857h-115l205 964h857z" />
    <glyph glyph-name="uni1E0C" unicode="&#x1e0c;" horiz-adv-x="1596" 
d="M408 1434h463q314 0 490.5 -160t176.5 -431q0 -177 -61 -330t-175.5 -267.5t-291.5 -180t-397 -65.5h-511zM858 1315h-349l-255 -1196h373q186 0 335.5 54.5t245.5 151t147 225.5t51 281q0 223 -140.5 353.5t-407.5 130.5zM662 -183q35 0 59 -25t24 -60t-24 -59t-59 -24
t-59 24t-24 59t24 60t59 25z" />
    <glyph glyph-name="uni1E0D" unicode="&#x1e0d;" horiz-adv-x="1240" 
d="M640 979q135 -1 229.5 -66.5t129.5 -173.5l157 736h117l-314 -1475h-115l30 148q-143 -163 -367 -163q-181 0 -299 120.5t-118 304.5q0 151 72 281.5t199.5 209t278.5 78.5zM527 94q158 0 277.5 108t145.5 271q26 167 -63.5 281.5t-249.5 114.5q-177 0 -302 -132
t-125 -316q0 -142 86.5 -234.5t230.5 -92.5zM498 -183q35 0 59.5 -25t24.5 -60t-24.5 -59t-59.5 -24t-59 24t-24 59t24 60t59 25z" />
    <glyph glyph-name="uni1E0E" unicode="&#x1e0e;" horiz-adv-x="1596" 
d="M408 1434h463q314 0 490.5 -160t176.5 -431q0 -177 -61 -330t-175.5 -267.5t-291.5 -180t-397 -65.5h-511zM858 1315h-349l-255 -1196h373q186 0 335.5 54.5t245.5 151t147 225.5t51 281q0 223 -140.5 353.5t-407.5 130.5zM353 -315l21 95h599l-21 -95h-599z" />
    <glyph glyph-name="uni1E0F" unicode="&#x1e0f;" horiz-adv-x="1240" 
d="M640 979q135 -1 229.5 -66.5t129.5 -173.5l157 736h117l-314 -1475h-115l30 148q-143 -163 -367 -163q-181 0 -299 120.5t-118 304.5q0 151 72 281.5t199.5 209t278.5 78.5zM527 94q158 0 277.5 108t145.5 271q26 167 -63.5 281.5t-249.5 114.5q-177 0 -302 -132
t-125 -316q0 -142 86.5 -234.5t230.5 -92.5zM188 -315l21 95h599l-21 -95h-599z" />
    <glyph glyph-name="uni1E24" unicode="&#x1e24;" horiz-adv-x="1573" 
d="M535 1434l-140 -653h910l139 653h128l-306 -1434h-127l140 663h-909l-141 -663h-127l306 1434h127zM626 -183q35 0 59.5 -25t24.5 -60t-24.5 -59t-59.5 -24t-59 24t-24 59t24 60t59 25z" />
    <glyph glyph-name="uni1E25" unicode="&#x1e25;" horiz-adv-x="1204" 
d="M706 979q166 0 261 -92t95 -241q0 -46 -13 -108l-115 -538h-117l116 543q10 52 10 89q0 107 -66 171.5t-191 64.5q-141 0 -243.5 -87.5t-134.5 -236.5l-115 -544h-117l313 1475h117l-137 -646q131 150 337 150zM449 -183q35 0 59 -25t24 -60t-24 -59t-59 -24t-59 24
t-24 59t24 60t59 25z" />
    <glyph glyph-name="uni1E28" unicode="&#x1e28;" horiz-adv-x="1573" 
d="M535 1434l-140 -653h910l139 653h128l-306 -1434h-127l140 663h-909l-141 -663h-2l-169 -331h-135l179 332l306 1433h127z" />
    <glyph glyph-name="uni1E29" unicode="&#x1e29;" horiz-adv-x="1204" 
d="M308 544l-115 -544h-2l-168 -331h-131l184 331l313 1475h117l-137 -646q131 150 337 150q166 0 261 -92t95 -241q0 -46 -13 -108l-115 -538h-117l116 543q10 52 10 89q0 107 -66 171.5t-191 64.5q-141 0 -243.5 -87.5t-134.5 -236.5z" />
    <glyph glyph-name="uni1E2A" unicode="&#x1e2a;" horiz-adv-x="1573" 
d="M535 1434l-140 -653h910l139 653h128l-306 -1434h-127l140 663h-909l-141 -663h-127l306 1434h127zM337 -141l95 27q6 -100 59.5 -152.5t140.5 -52.5q166 0 264 205l93 -27q-130 -277 -367 -277q-123 0 -200.5 72.5t-84.5 204.5z" />
    <glyph glyph-name="uni1E2B" unicode="&#x1e2b;" horiz-adv-x="1204" 
d="M706 979q166 0 261 -92t95 -241q0 -46 -13 -108l-115 -538h-117l116 543q10 52 10 89q0 107 -66 171.5t-191 64.5q-141 0 -243.5 -87.5t-134.5 -236.5l-115 -544h-117l313 1475h117l-137 -646q131 150 337 150zM159 -141l95 27q6 -100 59.5 -152.5t140.5 -52.5
q166 0 264 205l93 -27q-130 -277 -368 -277q-123 0 -200 72t-84 205z" />
    <glyph glyph-name="uni1E32" unicode="&#x1e32;" horiz-adv-x="1366" 
d="M535 1434l-140 -654h174l724 654h168l-797 -711l582 -723h-152l-533 662h-191l-141 -662h-127l306 1434h127zM596 -183q35 0 59.5 -25t24.5 -60t-24.5 -59t-59.5 -24t-59 24t-24 59t24 60t59 25z" />
    <glyph glyph-name="uni1E33" unicode="&#x1e33;" horiz-adv-x="1037" 
d="M506 1475l-196 -918h153l456 407h153l-530 -466l358 -498h-132l-321 452h-159l-95 -452h-117l313 1475h117zM410 -183q35 0 59.5 -25t24.5 -60t-24.5 -59t-59.5 -24t-59 24t-24 59t24 60t59 25z" />
    <glyph glyph-name="uni1E36" unicode="&#x1e36;" horiz-adv-x="1202" 
d="M535 1434l-281 -1315h829l-24 -119h-957l306 1434h127zM547 -183q35 0 59.5 -25t24.5 -60t-24.5 -59t-59.5 -24t-59 24t-24 59t24 60t59 25z" />
    <glyph glyph-name="uni1E37" unicode="&#x1e37;" horiz-adv-x="473" 
d="M506 1475l-313 -1475h-117l313 1475h117zM77 -183q35 0 59.5 -25t24.5 -60t-24.5 -59t-59.5 -24t-59 24t-24 59t24 60t59 25z" />
    <glyph glyph-name="uni1E38" unicode="&#x1e38;" horiz-adv-x="1202" 
d="M535 1434l-281 -1315h829l-24 -119h-957l306 1434h127zM547 -183q35 0 59.5 -25t24.5 -60t-24.5 -59t-59.5 -24t-59 24t-24 59t24 60t59 25zM204 1633l20 96h599l-20 -96h-599z" />
    <glyph glyph-name="uni1E39" unicode="&#x1e39;" horiz-adv-x="473" 
d="M506 1475l-313 -1475h-117l313 1475h117zM190 1678l21 96h599l-20 -96h-600zM77 -183q35 0 59.5 -25t24.5 -60t-24.5 -59t-59.5 -24t-59 24t-24 59t24 60t59 25z" />
    <glyph glyph-name="uni1E3A" unicode="&#x1e3a;" horiz-adv-x="1202" 
d="M535 1434l-281 -1315h829l-24 -119h-957l306 1434h127zM239 -315l20 95h599l-20 -95h-599z" />
    <glyph glyph-name="uni1E3B" unicode="&#x1e3b;" horiz-adv-x="473" 
d="M506 1475l-313 -1475h-117l313 1475h117zM-232 -315l20 95h599l-20 -95h-599z" />
    <glyph glyph-name="uni1E40" unicode="&#x1e40;" horiz-adv-x="1856" 
d="M1855 1434l-305 -1434h-127l273 1280l-753 -1110h-132l-308 1113l-274 -1283h-127l306 1434h181l308 -1121l765 1121h193zM1150 1776q37 0 62.5 -26t25.5 -63t-25.5 -62.5t-62.5 -25.5t-62 25.5t-25 62.5t25 63t62 26z" />
    <glyph glyph-name="uni1E41" unicode="&#x1e41;" horiz-adv-x="1947" 
d="M1448 979q166 0 261 -92t95 -241q0 -51 -12 -108l-117 -538h-116l115 543q10 44 10 89q0 107 -65.5 171.5t-191.5 64.5q-141 0 -242.5 -87t-133.5 -237l-117 -544h-117l116 543q30 140 -32 232t-215 92q-141 0 -243.5 -87.5t-134.5 -236.5l-115 -544h-117l205 964h115
l-28 -135q67 76 154.5 113.5t183.5 37.5q132 0 217.5 -58t118.5 -158q71 109 178.5 162.5t227.5 53.5zM1152 1412q35 0 59.5 -25t24.5 -60t-24.5 -59t-59.5 -24t-59 24t-24 59t24 60t59 25z" />
    <glyph glyph-name="uni1E42" unicode="&#x1e42;" horiz-adv-x="1856" 
d="M1855 1434l-305 -1434h-127l273 1280l-753 -1110h-132l-308 1113l-274 -1283h-127l306 1434h181l308 -1121l765 1121h193zM801 -183q35 0 59.5 -25t24.5 -60t-24.5 -59t-59.5 -24t-59 24t-24 59t24 60t59 25z" />
    <glyph glyph-name="uni1E43" unicode="&#x1e43;" horiz-adv-x="1947" 
d="M1448 979q166 0 261 -92t95 -241q0 -51 -12 -108l-117 -538h-116l115 543q10 44 10 89q0 107 -65.5 171.5t-191.5 64.5q-141 0 -242.5 -87t-133.5 -237l-117 -544h-117l116 543q30 140 -32 232t-215 92q-141 0 -243.5 -87.5t-134.5 -236.5l-115 -544h-117l205 964h115
l-28 -135q67 76 154.5 113.5t183.5 37.5q132 0 217.5 -58t118.5 -158q71 109 178.5 162.5t227.5 53.5zM818 -183q35 0 59.5 -25t24.5 -60t-24.5 -59t-59.5 -24t-59 24t-24 59t24 60t59 25z" />
    <glyph glyph-name="uni1E44" unicode="&#x1e44;" horiz-adv-x="1576" 
d="M1575 1434l-306 -1434h-116l-660 1237l-264 -1237h-127l306 1434h117l659 -1237l263 1237h128zM1017 1776q37 0 62.5 -26t25.5 -63t-25.5 -62.5t-62.5 -25.5t-62 25.5t-25 62.5t25 63t62 26z" />
    <glyph glyph-name="uni1E45" unicode="&#x1e45;" horiz-adv-x="1204" 
d="M706 979q166 0 261 -92t95 -241q0 -46 -13 -108l-115 -538h-117l116 543q10 52 10 89q0 107 -66 171.5t-191 64.5q-141 0 -243.5 -87.5t-134.5 -236.5l-115 -544h-117l205 964h115l-28 -137q132 152 338 152zM769 1395q35 0 59.5 -25t24.5 -60t-24.5 -59t-59.5 -24
t-59 24t-24 59t24 60t59 25z" />
    <glyph glyph-name="uni1E46" unicode="&#x1e46;" horiz-adv-x="1576" 
d="M1575 1434l-306 -1434h-116l-660 1237l-264 -1237h-127l306 1434h117l659 -1237l263 1237h128zM650 -183q35 0 59.5 -25t24.5 -60t-24.5 -59t-59.5 -24t-59 24t-24 59t24 60t59 25z" />
    <glyph glyph-name="uni1E47" unicode="&#x1e47;" horiz-adv-x="1204" 
d="M706 979q166 0 261 -92t95 -241q0 -46 -13 -108l-115 -538h-117l116 543q10 52 10 89q0 107 -66 171.5t-191 64.5q-141 0 -243.5 -87.5t-134.5 -236.5l-115 -544h-117l205 964h115l-28 -137q132 152 338 152zM447 -183q35 0 59.5 -25t24.5 -60t-24.5 -59t-59.5 -24
t-58.5 24t-23.5 59q0 36 23.5 60.5t58.5 24.5z" />
    <glyph glyph-name="uni1E48" unicode="&#x1e48;" horiz-adv-x="1576" 
d="M1575 1434l-306 -1434h-116l-660 1237l-264 -1237h-127l306 1434h117l659 -1237l263 1237h128zM342 -315l20 95h600l-21 -95h-599z" />
    <glyph glyph-name="uni1E49" unicode="&#x1e49;" horiz-adv-x="1204" 
d="M706 979q166 0 261 -92t95 -241q0 -46 -13 -108l-115 -538h-117l116 543q10 52 10 89q0 107 -66 171.5t-191 64.5q-141 0 -243.5 -87.5t-134.5 -236.5l-115 -544h-117l205 964h115l-28 -137q132 152 338 152zM138 -315l21 95h599l-21 -95h-599z" />
    <glyph glyph-name="uni1E58" unicode="&#x1e58;" horiz-adv-x="1348" 
d="M408 1434h506q207 0 321 -95t114 -250q0 -90 -32.5 -169.5t-97 -144t-173 -102t-248.5 -37.5h-92l473 -636h-150l-462 636h-202l-136 -636h-127zM902 1315h-393l-121 -565h414q210 0 313 89.5t103 235.5q0 110 -82 175t-234 65zM870 1776q37 0 62.5 -26t25.5 -63
t-25.5 -62.5t-62.5 -25.5t-62 25.5t-25 62.5t25 63t62 26z" />
    <glyph glyph-name="uni1E59" unicode="&#x1e59;" horiz-adv-x="806" 
d="M396 964l-26 -126q120 142 301 142q105 0 179 -44l-52 -106q-59 38 -148 38q-124 0 -217 -87t-126 -240l-114 -541h-117l205 964h115zM623 1395q35 0 59.5 -25t24.5 -60t-24.5 -59t-59.5 -24t-59 24t-24 59t24 60t59 25z" />
    <glyph glyph-name="uni1E5A" unicode="&#x1e5a;" horiz-adv-x="1348" 
d="M408 1434h506q207 0 321 -95t114 -250q0 -90 -32.5 -169.5t-97 -144t-173 -102t-248.5 -37.5h-92l473 -636h-150l-462 636h-202l-136 -636h-127zM902 1315h-393l-121 -565h414q210 0 313 89.5t103 235.5q0 110 -82 175t-234 65zM567 -183q35 0 59.5 -25t24.5 -60
t-24.5 -59t-59.5 -24t-59 24t-24 59t24 60t59 25z" />
    <glyph glyph-name="uni1E5B" unicode="&#x1e5b;" horiz-adv-x="806" 
d="M396 964l-26 -126q120 142 301 142q105 0 179 -44l-52 -106q-59 38 -148 38q-124 0 -217 -87t-126 -240l-114 -541h-117l205 964h115zM77 -183q35 0 59.5 -25t24.5 -60t-24.5 -59t-59.5 -24t-59 24t-24 59t24 60t59 25z" />
    <glyph glyph-name="uni1E5C" unicode="&#x1e5c;" horiz-adv-x="1348" 
d="M408 1434h506q207 0 321 -95t114 -250q0 -90 -32.5 -169.5t-97 -144t-173 -102t-248.5 -37.5h-92l473 -636h-150l-462 636h-202l-136 -636h-127zM902 1315h-393l-121 -565h414q210 0 313 89.5t103 235.5q0 110 -82 175t-234 65zM567 -183q35 0 59.5 -25t24.5 -60
t-24.5 -59t-59.5 -24t-59 24t-24 59t24 60t59 25zM568 1633l21 96h599l-21 -96h-599z" />
    <glyph glyph-name="uni1E5D" unicode="&#x1e5d;" horiz-adv-x="806" 
d="M396 964l-26 -126q120 142 301 142q105 0 179 -44l-52 -106q-59 38 -148 38q-124 0 -217 -87t-126 -240l-114 -541h-117l205 964h115zM302 1208l21 96h599l-21 -96h-599zM77 -183q35 0 59.5 -25t24.5 -60t-24.5 -59t-59.5 -24t-59 24t-24 59t24 60t59 25z" />
    <glyph glyph-name="uni1E5E" unicode="&#x1e5e;" horiz-adv-x="1348" 
d="M408 1434h506q207 0 321 -95t114 -250q0 -90 -32.5 -169.5t-97 -144t-173 -102t-248.5 -37.5h-92l473 -636h-150l-462 636h-202l-136 -636h-127zM902 1315h-393l-121 -565h414q210 0 313 89.5t103 235.5q0 110 -82 175t-234 65zM259 -315l21 95h599l-21 -95h-599z" />
    <glyph glyph-name="uni1E5F" unicode="&#x1e5f;" horiz-adv-x="806" 
d="M396 964l-26 -126q120 142 301 142q105 0 179 -44l-52 -106q-59 38 -148 38q-124 0 -217 -87t-126 -240l-114 -541h-117l205 964h115zM-232 -315l20 95h599l-20 -95h-599z" />
    <glyph glyph-name="uni1E62" unicode="&#x1e62;" horiz-adv-x="1349" 
d="M1329 1281l-69 -100q-200 149 -474 149q-102 0 -181.5 -26.5t-125 -70t-68.5 -94.5t-23 -105q0 -100 72 -161t224 -86l130 -21q187 -32 293.5 -117.5t106.5 -232.5q0 -89 -37.5 -166.5t-107.5 -137t-180.5 -94t-246.5 -34.5q-132 0 -287 45t-274 143l75 101
q100 -88 238 -129.5t253 -41.5q206 0 321 86.5t115 212.5q0 98 -77.5 157.5t-233.5 86.5l-132 23q-188 32 -286 120.5t-98 230.5q0 81 32.5 156t96 137t169.5 99.5t240 37.5q315 0 535 -168zM617 -183q35 0 59.5 -25t24.5 -60t-24.5 -59t-59.5 -24t-58.5 24t-23.5 59
q0 36 23.5 60.5t58.5 24.5z" />
    <glyph glyph-name="uni1E63" unicode="&#x1e63;" horiz-adv-x="972" 
d="M930 869l-62 -89q-56 41 -146.5 69t-180.5 28q-111 0 -185 -43t-83 -117q-9 -72 38 -114t152 -59l97 -15q151 -24 221.5 -94t58.5 -178q-15 -126 -125.5 -199t-279.5 -73q-112 0 -226 37t-189 97l66 86q64 -52 156.5 -85.5t190.5 -33.5q122 0 200 44t87 126
q15 136 -192 169l-99 15q-155 24 -221.5 95t-54.5 177q15 126 121 196.5t268 70.5q117 0 218.5 -30.5t169.5 -79.5zM385 -183q35 0 59.5 -25t24.5 -60t-24.5 -59t-59.5 -24t-59 24t-24 59t24 60t59 25z" />
    <glyph glyph-name="uni1E6C" unicode="&#x1e6c;" horiz-adv-x="1216" 
d="M1378 1434l-25 -119h-500l-280 -1315h-128l280 1315h-507l26 119h1134zM451 -183q35 0 59.5 -25t24.5 -60t-24.5 -59t-59.5 -24t-59 24t-24 59t24 60t59 25z" />
    <glyph glyph-name="uni1E6D" unicode="&#x1e6d;" horiz-adv-x="909" 
d="M915 964l-22 -107h-423l-106 -504q-28 -128 21 -193.5t145 -65.5q117 0 222 77l49 -90q-127 -96 -284 -96q-155 0 -232 96.5t-39 274.5l106 501h-219l23 107h219l67 314h117l-66 -314h422zM432 -183q35 0 59.5 -25t24.5 -60t-24.5 -59t-59.5 -24t-59 24t-24 59t24 60
t59 25z" />
    <glyph glyph-name="uni1E6E" unicode="&#x1e6e;" horiz-adv-x="1216" 
d="M1378 1434l-25 -119h-500l-280 -1315h-128l280 1315h-507l26 119h1134zM142 -315l21 95h599l-21 -95h-599z" />
    <glyph glyph-name="uni1E6F" unicode="&#x1e6f;" horiz-adv-x="909" 
d="M915 964l-22 -107h-423l-106 -504q-28 -128 21 -193.5t145 -65.5q117 0 222 77l49 -90q-127 -96 -284 -96q-155 0 -232 96.5t-39 274.5l106 501h-219l23 107h219l67 314h117l-66 -314h422zM123 -315l20 95h599l-20 -95h-599z" />
    <glyph glyph-name="Wgrave" unicode="&#x1e80;" horiz-adv-x="2251" 
d="M2378 1434l-773 -1434h-150l-158 1266l-675 -1266h-155l-187 1434h127l163 -1298l691 1300h136l157 -1296l692 1294h132zM1355 1533l-257 307h147l225 -307h-115z" />
    <glyph glyph-name="wgrave" unicode="&#x1e81;" horiz-adv-x="1739" 
d="M1010 964l161 -842l495 842h128l-572 -964h-139l-155 841l-459 -841h-136l-181 964h117l153 -841l459 841h129zM980 1108l-257 307h147l226 -307h-116z" />
    <glyph glyph-name="Wacute" unicode="&#x1e82;" horiz-adv-x="2251" 
d="M2378 1434l-773 -1434h-150l-158 1266l-675 -1266h-155l-187 1434h127l163 -1298l691 1300h136l157 -1296l692 1294h132zM1309 1533h-121l259 307h151z" />
    <glyph glyph-name="wacute" unicode="&#x1e83;" horiz-adv-x="1739" 
d="M1010 964l161 -842l495 842h128l-572 -964h-139l-155 841l-459 -841h-136l-181 964h117l153 -841l459 841h129zM973 1109h-121l259 307h152z" />
    <glyph glyph-name="Wdieresis" unicode="&#x1e84;" horiz-adv-x="2251" 
d="M2378 1434l-773 -1434h-150l-158 1266l-675 -1266h-155l-187 1434h127l163 -1298l691 1300h136l157 -1296l692 1294h132zM1165 1766q35 0 59.5 -25t24.5 -60t-24.5 -59t-59.5 -24t-59 24t-24 59t24 60t59 25zM1584 1766q35 0 60 -25t25 -60t-25 -59t-60 -24t-59 24
t-24 59t24 60t59 25z" />
    <glyph glyph-name="wdieresis" unicode="&#x1e85;" horiz-adv-x="1739" 
d="M1010 964l161 -842l495 842h128l-572 -964h-139l-155 841l-459 -841h-136l-181 964h117l153 -841l459 841h129zM799 1341q35 0 59.5 -25t24.5 -60t-24.5 -58.5t-59.5 -23.5t-59 23.5t-24 58.5t24 60t59 25zM1218 1341q35 0 60 -25t25 -60t-24.5 -58.5t-60.5 -23.5
q-35 0 -59 23.5t-24 58.5t24 60t59 25z" />
    <glyph glyph-name="uni1E88" unicode="&#x1e88;" horiz-adv-x="2251" 
d="M2378 1434l-773 -1434h-150l-158 1266l-675 -1266h-155l-187 1434h127l163 -1298l691 1300h136l157 -1296l692 1294h132zM1011 -183q35 0 59.5 -25t24.5 -60t-24.5 -59t-59.5 -24t-59 24t-24 59t24 60t59 25z" />
    <glyph glyph-name="uni1E89" unicode="&#x1e89;" horiz-adv-x="1739" 
d="M1010 964l161 -842l495 842h128l-572 -964h-139l-155 841l-459 -841h-136l-181 964h117l153 -841l459 841h129zM730 -183q35 0 59.5 -25t24.5 -60t-24.5 -59t-59.5 -24t-59 24t-24 59t24 60t59 25z" />
    <glyph glyph-name="uni1E92" unicode="&#x1e92;" horiz-adv-x="1341" 
d="M1403 1434l-21 -100l-1139 -1215h919l-25 -119h-1088l24 105l1137 1210h-910l26 119h1077zM568 -183q35 0 59.5 -25t24.5 -60t-24.5 -59t-59.5 -24t-59 24t-24 59t24 60t59 25z" />
    <glyph glyph-name="uni1E93" unicode="&#x1e93;" horiz-adv-x="1047" 
d="M1017 964l-20 -90l-781 -769h644l-22 -105h-803l18 91l787 766h-635l23 107h789zM402 -183q35 0 59.5 -25t24.5 -60t-24.5 -59t-59.5 -24t-59 24t-24 59t24 60t59 25z" />
    <glyph glyph-name="uni1E94" unicode="&#x1e94;" horiz-adv-x="1341" 
d="M1403 1434l-21 -100l-1139 -1215h919l-25 -119h-1088l24 105l1137 1210h-910l26 119h1077zM260 -315l21 95h599l-21 -95h-599z" />
    <glyph glyph-name="uni1E95" unicode="&#x1e95;" horiz-adv-x="1047" 
d="M1017 964l-20 -90l-781 -769h644l-22 -105h-803l18 91l787 766h-635l23 107h789zM93 -315l21 95h599l-21 -95h-599z" />
    <glyph glyph-name="uni1E96" unicode="&#x1e96;" horiz-adv-x="1204" 
d="M706 979q166 0 261 -92t95 -241q0 -46 -13 -108l-115 -538h-117l116 543q10 52 10 89q0 107 -66 171.5t-191 64.5q-141 0 -243.5 -87.5t-134.5 -236.5l-115 -544h-117l313 1475h117l-137 -646q131 150 337 150zM139 -315l21 95h599l-21 -95h-599z" />
    <glyph glyph-name="uni1E9E" unicode="&#x1e9e;" horiz-adv-x="1487" 
d="M82 0l203 953q47 223 207 359.5t392 136.5q187 0 328.5 -76.5t212.5 -204.5l-476 -402q200 -30 308 -142.5t86 -277.5q-23 -167 -169 -264t-347 -97q-210 0 -369 72l47 116q142 -68 322 -68q159 0 264 66t121 184q17 132 -90 220.5t-294 88.5h-69l20 98l483 409
q-62 74 -162.5 116t-223.5 42q-174 0 -301.5 -106t-165.5 -286l-199 -937h-128z" />
    <glyph glyph-name="Ygrave" unicode="&#x1ef2;" horiz-adv-x="1278" 
d="M1467 1434l-737 -821l-130 -613h-127l132 625l-388 809h135l336 -697l621 697h158zM857 1533l-257 307h148l225 -307h-116z" />
    <glyph glyph-name="ygrave" unicode="&#x1ef3;" horiz-adv-x="1036" 
d="M1122 964l-998 -1377h-133l471 643l-337 734h124l288 -629l452 629h133zM630 1108l-257 307h147l225 -307h-115z" />
    <glyph glyph-name="uni1EF4" unicode="&#x1ef4;" horiz-adv-x="1278" 
d="M1467 1434l-737 -821l-130 -613h-127l132 625l-388 809h135l336 -697l621 697h158zM478 -183q35 0 59.5 -25t24.5 -60t-24.5 -59t-59.5 -24t-59 24t-24 59t24 60t59 25z" />
    <glyph glyph-name="uni1EF5" unicode="&#x1ef5;" horiz-adv-x="1036" 
d="M1122 964l-998 -1377h-133l471 643l-337 734h124l288 -629l452 629h133zM663 -183q35 0 59 -25t24 -60t-24 -59t-59 -24t-59 24t-24 59t24 60t59 25z" />
    <glyph glyph-name="uni2007" unicode="&#x2007;" horiz-adv-x="1441" 
 />
    <glyph glyph-name="uni2008" unicode="&#x2008;" horiz-adv-x="515" 
 />
    <glyph glyph-name="uni2009" unicode="&#x2009;" horiz-adv-x="181" 
 />
    <glyph glyph-name="uni200B" unicode="&#x200b;" horiz-adv-x="0" 
 />
    <glyph glyph-name="uni2010" unicode="&#x2010;" horiz-adv-x="833" 
d="M714 592l-23 -106h-546l22 106h547z" />
    <glyph glyph-name="uni2011" unicode="&#x2011;" horiz-adv-x="833" 
d="M714 592l-23 -106h-546l22 106h547z" />
    <glyph glyph-name="figuredash" unicode="&#x2012;" horiz-adv-x="1228" 
d="M1104 592l-22 -106h-958l21 106h959z" />
    <glyph glyph-name="endash" unicode="&#x2013;" horiz-adv-x="1205" 
d="M1105 592l-22 -106h-958l21 106h959z" />
    <glyph glyph-name="emdash" unicode="&#x2014;" horiz-adv-x="1637" 
d="M1597 592l-20 -106h-1514l22 106h1512z" />
    <glyph glyph-name="quoteleft" unicode="&#x2018;" horiz-adv-x="486" 
d="M388 980h-135l196 495h108z" />
    <glyph glyph-name="quoteright" unicode="&#x2019;" horiz-adv-x="486" 
d="M415 1475h135l-196 -495h-108z" />
    <glyph glyph-name="quotesinglbase" unicode="&#x201a;" horiz-adv-x="486" 
d="M153 240h135l-196 -495h-108z" />
    <glyph glyph-name="quotedblleft" unicode="&#x201c;" horiz-adv-x="827" 
d="M388 980h-135l196 495h108zM729 980h-135l196 495h108z" />
    <glyph glyph-name="quotedblright" unicode="&#x201d;" horiz-adv-x="827" 
d="M756 1475h135l-196 -495h-108zM415 1475h135l-196 -495h-108z" />
    <glyph glyph-name="quotedblbase" unicode="&#x201e;" horiz-adv-x="827" 
d="M494 240h135l-196 -495h-108zM153 240h135l-196 -495h-108z" />
    <glyph glyph-name="dagger" unicode="&#x2020;" horiz-adv-x="720" 
d="M460 718h-98l97 452h-209l19 96h209l45 209h98l-46 -209h210l-20 -96h-209z" />
    <glyph glyph-name="daggerdbl" unicode="&#x2021;" horiz-adv-x="721" 
d="M621 1475l-40 -189h210l-21 -94h-210l-41 -192h210l-20 -95h-209l-40 -187h-96l38 187h-208l19 95h210l40 192h-208l20 94h208l40 189h98z" />
    <glyph glyph-name="bullet" unicode="&#x2022;" horiz-adv-x="871" 
d="M454 735q80 0 137.5 -57t57.5 -138t-57.5 -138.5t-137.5 -57.5q-82 0 -139 57.5t-57 138.5q0 82 57 138.5t139 56.5z" />
    <glyph glyph-name="uni2023" unicode="&#x2023;" horiz-adv-x="1014" 
d="M841 540l-617 -319l135 636z" />
    <glyph glyph-name="ellipsis" unicode="&#x2026;" horiz-adv-x="1424" 
d="M176 182q40 0 69 -29t29 -68q0 -40 -29 -69.5t-69 -29.5q-39 0 -68.5 29.5t-29.5 69.5q0 39 29.5 68t68.5 29zM632 182q39 0 68 -29t29 -68q0 -40 -29 -69.5t-68 -29.5q-40 0 -69 29.5t-29 69.5q0 39 29 68t69 29zM1086 182q39 0 69 -29t30 -68q0 -40 -30 -69.5
t-69 -29.5t-68.5 29.5t-29.5 69.5q0 39 29.5 68t68.5 29z" />
    <glyph glyph-name="perthousand" unicode="&#x2030;" horiz-adv-x="2822" 
d="M604 1449q146 0 240 -93.5t94 -239.5q0 -160 -109.5 -274t-270.5 -114q-147 0 -241 93t-94 239q0 160 109.5 274.5t271.5 114.5zM598 1346q-114 0 -189.5 -82t-75.5 -198q0 -103 65 -169t165 -66q114 0 189.5 82t75.5 198q0 103 -64.5 169t-165.5 66zM1654 1434
l-1081 -1434h-130l1081 1434h130zM1538 705q146 0 240 -93t94 -239q0 -160 -109.5 -274.5t-270.5 -114.5q-147 0 -241 93t-94 239q0 160 109.5 274.5t271.5 114.5zM1532 601q-114 0 -189.5 -81.5t-75.5 -197.5q0 -103 65 -169t165 -66q114 0 189.5 82t75.5 198
q0 103 -64.5 168.5t-165.5 65.5zM2365 705q146 0 240 -93t94 -239q0 -160 -109.5 -274.5t-270.5 -114.5q-146 0 -240 93t-94 239q0 160 109.5 274.5t270.5 114.5zM2360 601q-115 0 -190.5 -81.5t-75.5 -197.5q0 -103 65 -169t165 -66q114 0 190 82t76 198q0 103 -65 168.5
t-165 65.5z" />
    <glyph glyph-name="minute" unicode="&#x2032;" horiz-adv-x="538" 
d="M476 1434h117l-267 -631h-118z" />
    <glyph glyph-name="second" unicode="&#x2033;" horiz-adv-x="847" 
d="M785 1434h117l-267 -631h-118zM476 1434h117l-267 -631h-118z" />
    <glyph glyph-name="uni2034" unicode="&#x2034;" horiz-adv-x="1103" 
d="M759 1434h117l-268 -631h-118zM1041 1434h117l-267 -631h-118zM476 1434h117l-267 -631h-118z" />
    <glyph glyph-name="guilsinglleft" unicode="&#x2039;" horiz-adv-x="633" 
d="M551 912l-287 -385l116 -360h-119l-119 373l277 372h132z" />
    <glyph glyph-name="guilsinglright" unicode="&#x203a;" horiz-adv-x="632" 
d="M108 167l286 385l-115 360h118l119 -372l-276 -373h-132z" />
    <glyph glyph-name="fraction" unicode="&#x2044;" horiz-adv-x="430" 
d="M820 1434l-1080 -1434h-124l1080 1434h124z" />
    <glyph glyph-name="uni2070" unicode="&#x2070;" horiz-adv-x="860" 
d="M611 1442q126 0 203.5 -83t77.5 -224q0 -86 -27 -172.5t-75 -159t-124 -118t-165 -45.5q-126 0 -203.5 83t-77.5 224q0 68 16.5 137.5t50 133.5t79.5 114t109.5 80t135.5 30zM607 1351q-87 0 -154.5 -63.5t-99.5 -152t-32 -179.5q0 -104 50 -164.5t134 -60.5
q87 0 154.5 63t100 151.5t32.5 179.5q0 105 -50.5 165.5t-134.5 60.5z" />
    <glyph glyph-name="uni2071" unicode="&#x2071;" horiz-adv-x="396" 
d="M427 1318l-141 -669h-97l142 669h96zM425 1618q28 0 47.5 -19t19.5 -47q0 -27 -19.5 -45.5t-47.5 -18.5q-27 0 -46 18.5t-19 45.5q0 28 19 47t46 19z" />
    <glyph glyph-name="uni2074" unicode="&#x2074;" horiz-adv-x="674" 
d="M640 1120l-47 -220h132l-18 -89h-134l-33 -162h-96l35 162h-364l15 77l370 544h109l-360 -532h249l47 220h95z" />
    <glyph glyph-name="uni2075" unicode="&#x2075;" horiz-adv-x="681" 
d="M740 1433l-18 -88h-332l-56 -225h88q145 0 211 -75.5t44 -185.5q-22 -106 -103 -162.5t-194 -56.5q-79 0 -145 30t-106 86l60 61q67 -89 195 -89q78 0 131 37t65 101q13 73 -31 121t-155 48h-166l96 398h416z" />
    <glyph glyph-name="uni2076" unicode="&#x2076;" horiz-adv-x="695" 
d="M635 1433l-237 -291q30 9 67 9q112 0 186 -65t74 -170q0 -115 -84 -195t-213 -80q-117 0 -194.5 67t-77.5 173q0 97 78 198l280 354h121zM450 1069q-85 0 -139.5 -53.5t-54.5 -130.5q0 -69 49 -113.5t127 -44.5q84 0 139 54t55 130q0 69 -50 113.5t-126 44.5z" />
    <glyph glyph-name="uni2077" unicode="&#x2077;" horiz-adv-x="647" 
d="M792 1433l-17 -80l-447 -704h-115l447 694h-422l18 90h536z" />
    <glyph glyph-name="uni2078" unicode="&#x2078;" horiz-adv-x="747" 
d="M566 1442q102 0 174.5 -51.5t72.5 -136.5q0 -73 -51 -130.5t-141 -83.5q59 -23 93 -63t34 -94q0 -103 -88.5 -173t-233.5 -70q-110 0 -185 51t-75 138q0 77 53 136.5t148 83.5q-108 46 -108 148t83.5 173.5t223.5 71.5zM481 1007q-95 0 -153.5 -45.5t-58.5 -115.5
q0 -56 47.5 -89t117.5 -33q94 0 153.5 45t59.5 115q0 55 -47.5 89t-118.5 34zM558 1356q-90 0 -144 -45t-54 -111q0 -52 41.5 -84t107.5 -32q89 0 145.5 44.5t56.5 109.5q0 54 -45 86t-108 32z" />
    <glyph glyph-name="uni2079" unicode="&#x2079;" horiz-adv-x="695" 
d="M298 649l236 291q-28 -9 -65 -9q-113 0 -187 64.5t-74 168.5q0 115 84.5 196t212.5 81q118 0 195 -67t77 -173q0 -99 -79 -199l-279 -353h-121zM484 1013q85 0 139.5 53.5t54.5 129.5q0 70 -49.5 114.5t-127.5 44.5q-84 0 -139 -54t-55 -131q0 -69 50.5 -113t126.5 -44z
" />
    <glyph glyph-name="uni207F" unicode="&#x207f;" horiz-adv-x="837" 
d="M617 1329q112 0 176 -63t64 -164q0 -32 -8 -74l-82 -379h-97l81 377q6 28 6 56q0 70 -42.5 113t-125.5 43q-91 0 -158 -57.5t-89 -160.5l-78 -371h-96l141 669h94l-23 -107q89 118 237 118z" />
    <glyph glyph-name="uni2080" unicode="&#x2080;" horiz-adv-x="860" 
d="M399 421q126 0 203.5 -83t77.5 -224q0 -86 -27 -172.5t-75 -159t-124 -118t-165 -45.5q-126 0 -203.5 83t-77.5 224q0 68 16.5 137.5t50 133.5t79.5 114t109.5 80t135.5 30zM395 330q-87 0 -154.5 -63.5t-99.5 -152t-32 -179.5q0 -104 50 -164.5t134 -60.5q87 0 154.5 63
t100 151.5t32.5 179.5q0 105 -50.5 165.5t-134.5 60.5z" />
    <glyph glyph-name="uni2081" unicode="&#x2081;" horiz-adv-x="524" 
d="M368 420l-168 -792h-96l141 659l-247 -86l20 99z" />
    <glyph glyph-name="uni2082" unicode="&#x2082;" horiz-adv-x="672" 
d="M93 236l-59 58q42 54 106 90.5t145 36.5q110 0 169.5 -61.5t59.5 -147.5q0 -74 -40.5 -136t-129.5 -138l-255 -221h357l-18 -89h-499l17 76l336 290q70 60 102 107.5t32 98.5q0 54 -38 92t-106 38q-102 0 -179 -94z" />
    <glyph glyph-name="uni2083" unicode="&#x2083;" horiz-adv-x="663" 
d="M71 248l-49 66q99 107 252 107q104 0 169.5 -54.5t65.5 -134.5q0 -70 -48 -130t-131 -83q55 -20 85 -62t30 -97q0 -101 -77.5 -171t-217.5 -70q-167 0 -242 99l64 60q59 -72 180 -72q97 0 146.5 45t49.5 111q0 55 -42.5 88t-110.5 33h-102l18 84h99q92 0 145.5 45.5
t53.5 105.5q0 51 -41.5 83.5t-106.5 32.5q-111 0 -190 -86z" />
    <glyph glyph-name="uni2084" unicode="&#x2084;" horiz-adv-x="674" 
d="M425 99l-47 -220h132l-18 -89h-134l-33 -162h-96l35 162h-364l15 77l370 544h109l-360 -532h249l47 220h95z" />
    <glyph glyph-name="uni2085" unicode="&#x2085;" horiz-adv-x="679" 
d="M526 412l-18 -88h-332l-56 -225h88q145 0 211 -75.5t44 -185.5q-22 -106 -103 -162.5t-194 -56.5q-79 0 -145 30t-106 86l60 61q67 -89 195 -89q78 0 131 37t65 101q13 73 -31 121t-155 48h-166l96 398h416z" />
    <glyph glyph-name="uni2086" unicode="&#x2086;" horiz-adv-x="695" 
d="M421 412l-237 -291q30 9 67 9q112 0 186 -64.5t74 -169.5q0 -115 -84 -195.5t-213 -80.5q-117 0 -194.5 67t-77.5 173q0 97 78 198l280 354h121zM236 48q-85 0 -139.5 -53.5t-54.5 -130.5q0 -69 49 -113.5t127 -44.5q84 0 139 54t55 130q0 69 -50 113.5t-126 44.5z" />
    <glyph glyph-name="uni2087" unicode="&#x2087;" horiz-adv-x="647" 
d="M578 412l-17 -80l-447 -704h-115l447 695h-422l18 89h536z" />
    <glyph glyph-name="uni2088" unicode="&#x2088;" horiz-adv-x="747" 
d="M353 421q102 0 174.5 -51.5t72.5 -136.5q0 -73 -51 -130.5t-141 -83.5q59 -23 93 -63t34 -94q0 -103 -88.5 -173t-233.5 -70q-110 0 -185 51.5t-75 138.5q0 77 53 135.5t148 83.5q-108 46 -108 148t83.5 173.5t223.5 71.5zM268 -14q-95 0 -153.5 -45.5t-58.5 -115.5
q0 -56 47.5 -89t117.5 -33q94 0 153.5 45t59.5 115q0 55 -47.5 89t-118.5 34zM345 335q-90 0 -144 -45t-54 -111q0 -52 41.5 -84t107.5 -32q89 0 145.5 44.5t56.5 109.5q0 54 -45 86t-108 32z" />
    <glyph glyph-name="uni2089" unicode="&#x2089;" horiz-adv-x="695" 
d="M78 -372l235 291q-29 -9 -64 -9q-113 0 -187 64.5t-74 168.5q0 115 84.5 196t212.5 81q118 0 195 -67t77 -173q0 -98 -79 -198l-279 -354h-121zM264 -8q85 0 139.5 53.5t54.5 129.5q0 70 -49.5 114.5t-127.5 44.5q-84 0 -139 -54t-55 -130q0 -69 50.5 -113.5t126.5 -44.5
z" />
    <glyph glyph-name="Euro" unicode="&#x20ac;" horiz-adv-x="1433" 
d="M1250 326l73 -76q-80 -124 -202.5 -192t-273.5 -68q-220 0 -373 134.5t-180 385.5h-188l21 97h162q0 69 9 144q3 28 13 82h-140l19 97h146q73 241 243.5 378.5t404.5 137.5q326 0 493 -262l-91 -75q-138 226 -409 226q-183 0 -317.5 -107t-198.5 -298h704l-20 -97h-710
q-9 -43 -15 -89q-8 -65 -8 -137h686l-21 -97h-659q14 -102 54.5 -182t99.5 -129t130.5 -74t151.5 -25q125 0 228.5 61t167.5 165z" />
    <glyph glyph-name="uni20BA" unicode="&#x20ba;" horiz-adv-x="1433" 
d="M1178 420l98 -52q-41 -104 -103 -177.5t-140 -114.5t-163.5 -59.5t-186.5 -18.5h-408l78 368l-223 -100l22 111l225 101l49 232l-225 -101l22 111l227 101l131 613h120l-117 -552l552 246l-23 -111l-553 -247l-49 -232l553 247l-22 -111l-555 -248l-66 -313h274
q82 0 151 15t132.5 49t114.5 95t85 148z" />
    <glyph glyph-name="uni2100" unicode="&#x2100;" horiz-adv-x="1900" 
d="M645 1450q120 0 189.5 -60t69.5 -166q0 -33 -8 -76l-81 -378h-94l18 88q-102 -99 -240 -99q-98 0 -158 48.5t-60 129.5q0 94 73 156.5t218 62.5h228q7 28 7 57q0 73 -46.5 112t-132.5 39q-106 0 -211 -67l-28 79q117 74 256 74zM525 840q64 0 126 28t106 78l28 137h-205
q-100 0 -148.5 -39.5t-48.5 -95.5q0 -51 38 -79.5t104 -28.5zM1641 1434l-1080 -1434h-124l1081 1434h123zM1768 541l-79 -49q-68 92 -190 92q-113 0 -191 -82t-78 -198q0 -100 62.5 -164.5t157.5 -64.5q107 0 187 78l62 -61q-101 -107 -253 -107q-139 0 -227.5 89
t-88.5 224q0 156 107 266t266 110q179 0 265 -133z" />
    <glyph glyph-name="uni2101" unicode="&#x2101;" horiz-adv-x="1900" 
d="M639 1450q120 0 189.5 -60t69.5 -166q0 -33 -8 -76l-81 -378h-94l18 88q-102 -99 -240 -99q-98 0 -158.5 48.5t-60.5 129.5q0 94 73.5 156.5t218.5 62.5h228q7 28 7 57q0 73 -46.5 112t-132.5 39q-106 0 -211 -67l-28 79q117 74 256 74zM519 840q64 0 126 28t106 78
l28 137h-206q-100 0 -148 -39t-48 -96q0 -51 38 -79.5t104 -28.5zM1635 1434l-1080 -1434h-124l1080 1434h124zM1741 598l-46 -72q-41 29 -104.5 48t-123.5 19q-72 0 -119.5 -27.5t-53.5 -75.5q-6 -47 25 -74t104 -38l66 -10q103 -18 151 -67.5t39 -124.5q-10 -90 -87 -141
t-198 -51q-78 0 -157.5 26t-132.5 67l49 71q45 -36 110 -58.5t132 -22.5q80 0 129.5 27t55.5 80q5 45 -26.5 73t-101.5 38l-67 10q-210 33 -190 192q10 89 84.5 138.5t188.5 49.5q162 0 273 -77z" />
    <glyph glyph-name="afii61248" unicode="&#x2105;" horiz-adv-x="1900" 
d="M882 1316l-80 -49q-68 92 -190 92q-113 0 -191 -82t-78 -198q0 -100 62.5 -164.5t157.5 -64.5q108 0 188 78l61 -61q-101 -107 -253 -107q-138 0 -226.5 89t-88.5 224q0 156 106.5 266t265.5 110q180 0 266 -133zM1577 1434l-1080 -1434h-124l1080 1434h124zM1439 675
q139 0 229.5 -88.5t90.5 -225.5q0 -156 -109 -266.5t-268 -110.5q-139 0 -229 88t-90 225q0 156 108.5 267t267.5 111zM1432 585q-114 0 -192 -83t-78 -200q0 -100 63.5 -164t163.5 -64q114 0 192.5 82.5t78.5 199.5q0 99 -64 164t-164 65z" />
    <glyph glyph-name="uni2106" unicode="&#x2106;" horiz-adv-x="1900" 
d="M886 1316l-80 -49q-68 92 -190 92q-113 0 -191 -82t-78 -198q0 -100 62.5 -164.5t157.5 -64.5q108 0 188 78l61 -61q-101 -107 -253 -107q-138 0 -226.5 89t-88.5 224q0 156 107 266t266 110q179 0 265 -133zM1570 1434l-1081 -1434h-123l1080 1434h124zM1800 670
l-83 -397q-29 -141 -122 -212t-221 -71q-115 0 -188 61t-73 173q0 40 8 77l79 369h97l-79 -376q-8 -35 -8 -60q0 -75 48 -114.5t125 -39.5q89 0 154 55t87 156l80 379h96z" />
    <glyph glyph-name="afii61289" unicode="&#x2113;" horiz-adv-x="1106" 
d="M237 394l-43 101q91 39 171 83l1 541q1 164 81.5 267.5t214.5 103.5q127 0 206.5 -84t79.5 -218q0 -132 -63 -257.5t-164 -224.5t-240 -185v-189q0 -120 54 -179.5t148 -59.5q117 0 210 78l48 -91q-115 -96 -268 -96q-147 0 -227.5 87t-80.5 258v126q-71 -37 -128 -61z
M482 1119l-1 -469q163 113 255.5 250.5t92.5 287.5q0 89 -45 141t-122 52q-80 0 -130 -71t-50 -191z" />
    <glyph glyph-name="afii61352" unicode="&#x2116;" horiz-adv-x="2414" 
d="M2359 589l-23 -106h-665l23 106h665zM2131 1444q145 0 236.5 -88.5t91.5 -226.5q0 -152 -107 -259.5t-264 -107.5q-144 0 -235.5 88t-91.5 224q0 153 106 261.5t264 108.5zM2127 1355q-115 0 -191.5 -81t-76.5 -194q0 -101 65 -165t168 -64q116 0 192.5 80t76.5 194
q0 101 -65.5 165.5t-168.5 64.5zM1575 1434l-306 -1434h-116l-660 1237l-264 -1237h-127l306 1434h117l659 -1237l263 1237h128z" />
    <glyph glyph-name="uni2117" unicode="&#x2117;" horiz-adv-x="1933" 
d="M962 -88q-124 0 -240 36t-211 104.5t-166.5 160t-111 208.5t-39.5 245q0 167 68.5 325t184.5 277.5t281 191.5t347 72q155 0 295.5 -57t244.5 -156t165.5 -240t61.5 -301q0 -167 -68.5 -325t-184.5 -277t-280.5 -191.5t-346.5 -72.5zM1067 1430q-158 0 -302 -63.5
t-244.5 -168.5t-160 -243t-59.5 -283q0 -139 53.5 -262.5t144.5 -209.5t213.5 -136t256.5 -50q159 0 302.5 64t244.5 168.5t160.5 242.5t59.5 283q0 140 -54 263t-144.5 209t-213.5 136t-257 50zM1155 1148q154 0 234 -82.5t53 -206.5q-25 -119 -121 -177t-244 -58h-246
l-70 -336h-105l183 860h316zM1150 1053h-227l-71 -336h225q228 0 260 152q17 83 -33 133.5t-154 50.5z" />
    <glyph glyph-name="uni2120" unicode="&#x2120;" horiz-adv-x="1406" 
d="M739 1373l-44 -66q-79 56 -193 56q-69 0 -104.5 -26t-35.5 -62q0 -67 118 -84l45 -6q79 -11 123.5 -48.5t44.5 -96.5q0 -79 -65.5 -129t-180.5 -50q-62 0 -129.5 19t-117.5 56l47 68q89 -66 207 -66q70 0 109.5 25.5t39.5 65.5q0 63 -121 81l-46 7q-79 12 -121.5 50
t-42.5 97q0 75 60 126t171 51q136 0 236 -68zM1407 868h-85l96 452l-264 -389h-88l-99 389l-96 -452h-85l121 567h116l104 -408l277 408h123z" />
    <glyph glyph-name="trademark" unicode="&#x2122;" horiz-adv-x="1373" 
d="M1373 868h-84l95 452l-264 -389h-87l-99 389l-96 -452h-84l119 567h116l105 -408l277 408h123zM445 868h-84l104 488h-197l17 78h477l-17 -78h-196z" />
    <glyph glyph-name="Omega" unicode="&#x2126;" horiz-adv-x="1748" 
d="M1630 119l-24 -119h-598l21 105q150 35 264 134t175 239.5t61 302.5q0 157 -71.5 282t-202 196.5t-296.5 71.5q-183 0 -332 -89t-233 -243.5t-84 -342.5q0 -203 105.5 -348t282.5 -198l-22 -110h-604l24 119h406q-150 79 -236 222t-86 327q0 224 106.5 404.5t286 279.5
t394.5 99q199 0 357.5 -84t248 -236t89.5 -344q0 -220 -106.5 -397.5t-303.5 -270.5h378z" />
    <glyph glyph-name="estimated" unicode="&#x212e;" horiz-adv-x="2048" 
d="M518 693v-361q0 -78 22 -133t78 -98q203 -156 476 -156q201 0 369.5 87.5t270.5 243.5l38 -28q-109 -165 -287.5 -257.5t-390.5 -92.5q-167 0 -315.5 59.5t-258.5 165t-174.5 260t-64.5 334.5t64.5 334.5t174.5 260t258.5 165t315.5 59.5t315.5 -59.5t258.5 -165
t174.5 -260t64.5 -334.5v-24h-1389zM518 740h1159v355q0 77 -22 132t-76 98q-206 164 -485 164q-272 0 -476 -157q-56 -43 -78 -97.5t-22 -132.5v-362z" />
    <glyph glyph-name="uni214D" unicode="&#x214d;" horiz-adv-x="1900" 
d="M726 1434l144 -747h-98l-37 199h-356l-120 -199h-106l458 747h115zM1788 665l-50 -77q-100 77 -246 77q-90 0 -136.5 -38.5t-46.5 -89.5q0 -48 38.5 -75.5t114.5 -40.5l58 -10q207 -38 207 -185q0 -102 -82 -168.5t-227 -66.5q-81 0 -165 24t-146 74l54 78
q116 -87 263 -87q95 0 146.5 38t51.5 95q0 45 -38.5 72t-116.5 41l-58 10q-206 36 -206 187q0 97 75.5 164t213.5 67q177 0 296 -89zM652 1339l-220 -364h287zM1656 1434l-1081 -1434h-123l1080 1434h124z" />
    <glyph glyph-name="uni2150" unicode="&#x2150;" horiz-adv-x="1634" 
d="M1360 1434l-1080 -1434h-124l1080 1434h124zM1639 783l-16 -80l-447 -703h-115l447 694h-423l19 89h535zM582 1441l-168 -792h-96l141 659l-247 -86l20 99z" />
    <glyph glyph-name="uni2151" unicode="&#x2151;" horiz-adv-x="1666" 
d="M1360 1434l-1080 -1434h-124l1080 1434h124zM1130 0l236 291q-28 -9 -64 -9q-113 0 -187.5 64.5t-74.5 168.5q0 115 84.5 196t212.5 81q118 0 195.5 -67t77.5 -173q0 -99 -79 -199l-280 -353h-121zM1317 364q84 0 138.5 53.5t54.5 129.5q0 70 -49.5 114.5t-127.5 44.5
q-84 0 -138.5 -54t-54.5 -131q0 -69 50.5 -113t126.5 -44zM582 1441l-168 -792h-96l141 659l-247 -86l20 99z" />
    <glyph glyph-name="uni2152" unicode="&#x2152;" horiz-adv-x="2367" 
d="M1360 1434l-1080 -1434h-124l1080 1434h124zM1417 792l-168 -792h-95l140 658l-246 -86l20 100zM1977 793q126 0 203.5 -83.5t77.5 -224.5q0 -86 -27 -172.5t-75 -158.5t-124 -117.5t-165 -45.5q-126 0 -203.5 83t-77.5 224q0 68 16.5 137.5t50 133.5t79.5 114t109.5 80
t135.5 30zM1973 701q-87 0 -154.5 -63t-99.5 -151.5t-32 -179.5q0 -104 50 -164.5t134 -60.5q87 0 154.5 63t100 151.5t32.5 179.5q0 105 -50.5 165t-134.5 60zM582 1441l-168 -792h-96l141 659l-247 -86l20 99z" />
    <glyph glyph-name="onethird" unicode="&#x2153;" horiz-adv-x="1631" 
d="M1360 1434l-1080 -1434h-124l1080 1434h124zM1115 620l-49 66q99 107 253 107q104 0 169 -54.5t65 -134.5q0 -70 -48 -130t-131 -83q55 -20 85.5 -62.5t30.5 -97.5q0 -101 -78 -170.5t-218 -69.5q-167 0 -242 99l65 60q59 -72 179 -72q97 0 147 45t50 110q0 55 -43 88
t-111 33h-101l17 84h99q91 0 145 46t54 106q0 51 -41 83.5t-106 32.5q-112 0 -191 -86zM582 1441l-168 -792h-96l141 659l-247 -86l20 99z" />
    <glyph glyph-name="twothirds" unicode="&#x2154;" horiz-adv-x="1795" 
d="M1524 1434l-1081 -1434h-124l1081 1434h124zM1280 620l-49 66q99 107 253 107q104 0 169 -54.5t65 -134.5q0 -70 -48 -130t-131 -83q55 -20 85.5 -62.5t30.5 -97.5q0 -101 -78 -170.5t-218 -69.5q-167 0 -242 99l65 60q59 -72 179 -72q97 0 147 45t50 110q0 55 -43 88
t-111 33h-101l17 84h99q91 0 145 46t54 106q0 51 -41.5 83.5t-106.5 32.5q-111 0 -190 -86zM307 1256l-59 59q42 54 106 90.5t145 36.5q110 0 169.5 -61.5t59.5 -147.5q0 -74 -41 -136.5t-129 -138.5l-255 -220h357l-18 -89h-499l17 76l336 290q70 60 102 107.5t32 98.5
q0 54 -38 92t-106 38q-101 0 -179 -95z" />
    <glyph glyph-name="uni2155" unicode="&#x2155;" horiz-adv-x="1651" 
d="M1360 1434l-1080 -1434h-124l1080 1434h124zM1571 783l-19 -88h-331l-57 -224h88q145 0 211 -75.5t44 -185.5q-22 -106 -103 -162.5t-194 -56.5q-79 0 -145 29.5t-106 85.5l61 62q67 -89 194 -89q78 0 131 37t65 101q13 73 -30.5 121t-154.5 48h-166l95 397h417z
M582 1441l-168 -792h-96l141 659l-247 -86l20 99z" />
    <glyph glyph-name="uni2156" unicode="&#x2156;" horiz-adv-x="1816" 
d="M1524 1434l-1081 -1434h-124l1081 1434h124zM1736 783l-19 -88h-332l-56 -224h88q145 0 211 -75.5t44 -185.5q-22 -106 -103 -162.5t-194 -56.5q-79 0 -145 29.5t-106 85.5l61 62q67 -89 194 -89q78 0 131 37t65 101q13 73 -30.5 121t-154.5 48h-166l95 397h417z
M307 1256l-59 59q42 54 106 90.5t145 36.5q110 0 169.5 -61.5t59.5 -147.5q0 -74 -41 -136.5t-129 -138.5l-255 -220h357l-18 -89h-499l17 76l336 290q70 60 102 107.5t32 98.5q0 54 -38 92t-106 38q-101 0 -179 -95z" />
    <glyph glyph-name="uni2157" unicode="&#x2157;" horiz-adv-x="1773" 
d="M1481 1434l-1081 -1434h-124l1081 1434h124zM1693 783l-19 -88h-332l-56 -224h88q145 0 211 -75.5t44 -185.5q-22 -106 -103 -162.5t-194 -56.5q-79 0 -145 29.5t-106 85.5l61 62q67 -89 194 -89q78 0 131 37t65 101q13 73 -30.5 121t-154.5 48h-166l95 397h417z
M285 1269l-49 66q99 107 252 107q104 0 169.5 -54.5t65.5 -134.5q0 -70 -48 -130t-131 -83q55 -20 85 -62t30 -97q0 -101 -77.5 -171t-217.5 -70q-167 0 -242 99l64 60q59 -72 180 -72q97 0 146.5 45t49.5 111q0 55 -42.5 88t-110.5 33h-102l18 83h99q91 0 145 46t54 106
q0 51 -41.5 83.5t-106.5 32.5q-111 0 -190 -86z" />
    <glyph glyph-name="uni2158" unicode="&#x2158;" horiz-adv-x="1802" 
d="M1510 1434l-1080 -1434h-124l1080 1434h124zM1721 783l-18 -88h-332l-56 -224h88q145 0 211 -75.5t44 -185.5q-22 -106 -103 -162.5t-194 -56.5q-79 0 -145 29.5t-106 85.5l60 62q67 -89 195 -89q78 0 131 37t65 101q13 73 -31 121t-155 48h-166l96 397h416zM640 1120
l-47 -220h132l-18 -89h-134l-33 -162h-96l35 162h-364l15 77l370 544h109l-360 -532h249l47 220h95z" />
    <glyph glyph-name="uni2159" unicode="&#x2159;" horiz-adv-x="1583" 
d="M1360 1434l-1080 -1434h-124l1080 1434h124zM1382 783l-236 -290q30 9 66 9q112 0 186.5 -65t74.5 -170q0 -115 -84 -195t-213 -80q-117 0 -195 66.5t-78 172.5q0 97 79 199l280 353h120zM1197 420q-85 0 -139 -53.5t-54 -130.5q0 -69 49 -113.5t127 -44.5
q84 0 138.5 53.5t54.5 130.5q0 69 -50 113.5t-126 44.5zM582 1441l-168 -792h-96l141 659l-247 -86l20 99z" />
    <glyph glyph-name="uni215A" unicode="&#x215a;" horiz-adv-x="1724" 
d="M1501 1434l-1080 -1434h-124l1080 1434h124zM1524 783l-237 -290q30 9 67 9q112 0 186 -65t74 -170q0 -115 -84 -195t-213 -80q-117 0 -195 66.5t-78 172.5q0 97 79 199l280 353h121zM1338 420q-85 0 -139 -53.5t-54 -130.5q0 -69 49 -113.5t127 -44.5q84 0 138.5 53.5
t54.5 130.5q0 69 -50 113.5t-126 44.5zM740 1433l-18 -88h-332l-56 -225h88q145 0 211 -75.5t44 -185.5q-22 -106 -103 -162.5t-194 -56.5q-79 0 -145 30t-106 86l60 61q67 -89 195 -89q78 0 131 37t65 101q13 73 -31 121t-155 48h-166l96 398h416z" />
    <glyph glyph-name="oneeighth" unicode="&#x215b;" horiz-adv-x="1686" 
d="M1360 1434l-1080 -1434h-124l1080 1434h124zM1365 793q102 0 174.5 -51.5t72.5 -136.5q0 -73 -51.5 -130.5t-141.5 -83.5q59 -22 93 -63t34 -95q0 -103 -88 -172.5t-233 -69.5q-110 0 -185 51t-75 138q0 77 52.5 136t147.5 83q-107 45 -107 149q0 102 83.5 173.5
t223.5 71.5zM1280 357q-95 0 -153.5 -45.5t-58.5 -114.5q0 -56 47.5 -89t117.5 -33q95 0 154 45t59 114q0 55 -47.5 89t-118.5 34zM1357 707q-90 0 -144 -45t-54 -111q0 -52 41.5 -84t107.5 -32q89 0 145 44.5t56 109.5q0 54 -44.5 86t-107.5 32zM582 1441l-168 -792h-96
l141 659l-247 -86l20 99z" />
    <glyph glyph-name="threeeighths" unicode="&#x215c;" horiz-adv-x="1807" 
d="M1481 1434l-1081 -1434h-124l1081 1434h124zM1487 793q102 0 174.5 -51.5t72.5 -136.5q0 -73 -51.5 -130.5t-141.5 -83.5q59 -22 93 -63t34 -95q0 -103 -88 -172.5t-233 -69.5q-111 0 -186 51.5t-75 137.5q0 77 53 135.5t148 83.5q-107 45 -107 149q0 102 83.5 173.5
t223.5 71.5zM1402 357q-95 0 -153.5 -45.5t-58.5 -114.5q0 -56 47.5 -89t117.5 -33q95 0 154 45t59 114q0 55 -47.5 89t-118.5 34zM1479 707q-90 0 -144 -45t-54 -111q0 -52 41.5 -84t107.5 -32q89 0 145 44.5t56 109.5q0 54 -44.5 86t-107.5 32zM285 1269l-49 66
q99 107 252 107q104 0 169.5 -54.5t65.5 -134.5q0 -70 -48 -130t-131 -83q55 -20 85 -62t30 -97q0 -101 -77.5 -171t-217.5 -70q-167 0 -242 99l64 60q59 -72 180 -72q97 0 146.5 45t49.5 111q0 55 -42.5 88t-110.5 33h-102l18 83h99q91 0 145 46t54 106q0 51 -41.5 83.5
t-106.5 32.5q-111 0 -190 -86z" />
    <glyph glyph-name="fiveeighths" unicode="&#x215d;" horiz-adv-x="1827" 
d="M1501 1434l-1080 -1434h-124l1080 1434h124zM1506 793q102 0 174.5 -51.5t72.5 -136.5q0 -73 -51 -130.5t-141 -83.5q59 -22 93 -63t34 -95q0 -103 -88.5 -172.5t-233.5 -69.5q-110 0 -185 51t-75 138q0 77 53 135.5t148 83.5q-108 46 -108 149q0 102 83.5 173.5
t223.5 71.5zM1421 357q-95 0 -153.5 -45.5t-58.5 -114.5q0 -56 47.5 -89t117.5 -33q95 0 154 45t59 114q0 55 -47.5 89t-118.5 34zM1498 707q-90 0 -144 -45t-54 -111q0 -52 41.5 -84t107.5 -32q89 0 145.5 44.5t56.5 109.5q0 54 -45 86t-108 32zM740 1433l-18 -88h-332
l-56 -225h88q145 0 211 -75.5t44 -185.5q-22 -106 -103 -162.5t-194 -56.5q-79 0 -145 30t-106 86l60 61q67 -89 195 -89q78 0 131 37t65 101q13 73 -31 121t-155 48h-166l96 398h416z" />
    <glyph glyph-name="seveneighths" unicode="&#x215e;" horiz-adv-x="1713" 
d="M1386 1434l-1080 -1434h-124l1081 1434h123zM1393 793q102 0 174 -51.5t72 -136.5q0 -73 -51 -130.5t-141 -83.5q59 -22 93 -63t34 -95q0 -103 -88.5 -172.5t-233.5 -69.5q-110 0 -185 51t-75 138q0 77 53 135.5t148 83.5q-108 46 -108 149q0 102 84 173.5t224 71.5z
M1308 357q-95 0 -153.5 -45.5t-58.5 -114.5q0 -56 47.5 -89t117.5 -33q95 0 154 45t59 114q0 55 -47.5 89t-118.5 34zM1384 707q-90 0 -143.5 -44.5t-53.5 -111.5q0 -52 41 -84t107 -32q89 0 145.5 44.5t56.5 109.5q0 54 -45 86t-108 32zM792 1433l-17 -80l-447 -704h-115
l447 694h-422l18 90h536z" />
    <glyph glyph-name="uni215F" unicode="&#x215f;" horiz-adv-x="969" 
d="M1360 1434l-1080 -1434h-124l1080 1434h124zM582 1441l-168 -792h-96l141 659l-247 -86l20 99z" />
    <glyph glyph-name="uni2189" unicode="&#x2189;" horiz-adv-x="1951" 
d="M1680 1434l-1080 -1434h-124l1080 1434h124zM1437 620l-49 66q99 107 252 107q104 0 169.5 -54.5t65.5 -134.5q0 -70 -48 -130t-131 -83q55 -20 85 -62t30 -98q0 -101 -77.5 -170.5t-217.5 -69.5q-167 0 -242 99l64 60q59 -72 180 -72q97 0 146.5 45t49.5 110
q0 55 -42.5 88t-110.5 33h-102l18 84h99q91 0 145 46t54 106q0 51 -41.5 83.5t-106.5 32.5q-111 0 -190 -86zM611 1442q126 0 203.5 -83t77.5 -224q0 -86 -27 -172.5t-75 -159t-124 -118t-165 -45.5q-126 0 -203.5 83t-77.5 224q0 68 16.5 137.5t50 133.5t79.5 114t109.5 80
t135.5 30zM607 1351q-87 0 -154.5 -63.5t-99.5 -152t-32 -179.5q0 -104 50 -164.5t134 -60.5q87 0 154.5 63t100 151.5t32.5 179.5q0 105 -50.5 165.5t-134.5 60.5z" />
    <glyph glyph-name="arrowleft" unicode="&#x2190;" horiz-adv-x="2048" 
d="M1851 609h-1220q-81 0 -152 4q64 -53 148 -137l364 -364l-75 -75l-624 625l624 625l75 -75l-364 -364q-91 -91 -148 -137q71 4 152 4h1220v-106z" />
    <glyph glyph-name="arrowup" unicode="&#x2191;" horiz-adv-x="2048" 
d="M1042 -59v1220q0 63 5 152q-46 -57 -137 -148l-364 -364l-76 75l626 624l625 -624l-75 -75l-365 364q-86 86 -136 148q4 -71 4 -152v-1220h-107z" />
    <glyph glyph-name="arrowright" unicode="&#x2192;" horiz-adv-x="2048" 
d="M302 715h1221q80 0 151 -5q-58 48 -147 137l-365 364l75 75l625 -624l-625 -626l-75 75l365 365q80 82 147 136q-71 -4 -151 -4h-1221v107z" />
    <glyph glyph-name="arrowdown" unicode="&#x2193;" horiz-adv-x="2048" 
d="M1097 1498v-1220q0 -81 -4 -152q48 58 137 147l364 366l75 -76l-625 -624l-625 624l75 76l364 -366q95 -95 137 -147q-4 71 -4 152v1220h106z" />
    <glyph glyph-name="uni2196" unicode="&#x2196;" horiz-adv-x="2048" 
d="M1594 80l-862 863q-67 70 -104 110q7 -67 7 -201v-516h-106v885h885v-107h-516q-124 0 -202 8q62 -55 111 -104l863 -863z" />
    <glyph glyph-name="uni2197" unicode="&#x2197;" horiz-adv-x="2048" 
d="M479 147l862 864q48 48 110 104q-77 -8 -201 -8h-515v106l884 -1v-883h-107v516q0 115 9 201q-56 -62 -104 -110l-864 -863z" />
    <glyph glyph-name="uni2198" unicode="&#x2198;" horiz-adv-x="2048" 
d="M553 1250l862 -863q95 -98 105 -109q-9 86 -9 201v515h107l-1 -883l-884 -1v106h516q134 0 202 -8q-74 67 -111 104l-863 864z" />
    <glyph glyph-name="uni2199" unicode="&#x2199;" horiz-adv-x="2048" 
d="M1683 1167l-863 -863q-57 -57 -109 -103q78 7 201 7h515v-107l-883 1l-1 884h106v-516q0 -133 -8 -201q58 64 104 110l864 863z" />
    <glyph glyph-name="partialdiff" unicode="&#x2202;" horiz-adv-x="1195" 
d="M393 1393l53 92q314 -123 487.5 -360t173.5 -522q0 -77 -14 -159q-33 -200 -183 -329.5t-347 -129.5q-204 0 -336.5 127t-132.5 319q0 142 69 264.5t189.5 195t262.5 72.5q126 0 224.5 -58t150.5 -159q-35 208 -192.5 378.5t-404.5 268.5zM628 852q-94 0 -173.5 -36.5
t-131 -96t-80 -133.5t-28.5 -150q0 -149 99 -245.5t256 -96.5q93 0 172.5 36t131.5 95t81 133t29 152q0 150 -99.5 246t-256.5 96z" />
    <glyph glyph-name="uni2300" unicode="&#x2205;" horiz-adv-x="1392" 
d="M1142 1042l75 -75l-135 -134q106 -133 106 -301q0 -130 -64.5 -240.5t-175 -175t-240.5 -64.5q-170 0 -300 106l-136 -135l-74 75l134 134q-106 132 -106 300q0 198 141.5 340t340.5 142q167 0 300 -107zM332 532q0 -127 79 -229l526 526q-102 79 -229 79
q-156 0 -266 -110.5t-110 -265.5zM708 158q155 0 264.5 109.5t109.5 264.5q0 128 -77 229l-527 -527q100 -76 230 -76z" />
    <glyph glyph-name="uni2300" unicode="&#x2300;" horiz-adv-x="1392" 
d="M1142 1042l75 -75l-135 -134q106 -133 106 -301q0 -130 -64.5 -240.5t-175 -175t-240.5 -64.5q-170 0 -300 106l-136 -135l-74 75l134 134q-106 132 -106 300q0 198 141.5 340t340.5 142q167 0 300 -107zM332 532q0 -127 79 -229l526 526q-102 79 -229 79
q-156 0 -266 -110.5t-110 -265.5zM708 158q155 0 264.5 109.5t109.5 264.5q0 128 -77 229l-527 -527q100 -76 230 -76z" />
    <glyph glyph-name="Delta" unicode="&#x2206;" horiz-adv-x="1445" 
d="M1002 1436l280 -1339l-20 -97h-1281l19 97l850 1339h152zM1151 119l-247 1189l-752 -1189h999z" />
    <glyph glyph-name="product" unicode="&#x220f;" horiz-adv-x="1832" 
d="M1468 1434v-1705h-126v1586h-810v-1586h-124v1705h1060z" />
    <glyph glyph-name="summation" unicode="&#x2211;" horiz-adv-x="1676" 
d="M1391 1434v-119h-904l598 -687v-70l-601 -711h910v-118h-1093v97l651 764l-648 746v98h1087z" />
    <glyph glyph-name="minus" unicode="&#x2212;" horiz-adv-x="1228" 
d="M1062 592l-23 -106h-872l22 106h873z" />
    <glyph glyph-name="uni2219" unicode="&#x2219;" horiz-adv-x="1228" 
d="M614 735q80 0 138 -57t58 -138t-58 -138.5t-138 -57.5q-82 0 -138.5 57.5t-56.5 138.5q0 82 56.5 138.5t138.5 56.5z" />
    <glyph glyph-name="radical" unicode="&#x221a;" horiz-adv-x="1101" 
d="M1266 1475l-601 -1746h-155l-420 1024h137l360 -877l551 1599h128z" />
    <glyph glyph-name="infinity" unicode="&#x221e;" horiz-adv-x="1664" 
d="M76 532q0 166 102.5 268.5t247.5 102.5q29 0 56 -4.5t55 -18t48.5 -23.5t51.5 -37t47 -41t52 -52t50.5 -54t56.5 -63q42 47 56.5 63t50.5 54t52 52t47 41t51.5 37t48.5 23.5t55 18t56 4.5q146 0 248 -102.5t102 -268.5t-102 -268t-248 -102q-33 0 -66 8.5t-57.5 18
t-59.5 36t-53.5 41t-59 57t-56.5 60t-65 71.5q-50 -57 -74 -83t-65.5 -68t-68.5 -61t-63.5 -41t-71.5 -30.5t-74 -8.5q-145 0 -247.5 102t-102.5 268zM187 532q0 -122 68.5 -193t170.5 -71q52 0 106.5 33.5t95 75t133.5 144.5q7 7 10 11q-60 68 -86.5 97t-68.5 70t-67 57
t-57.5 28.5t-65.5 12.5q-102 0 -170.5 -71.5t-68.5 -193.5zM1499 532q0 122 -68.5 193.5t-170.5 71.5q-52 0 -106.5 -34t-94.5 -74.5t-133 -144.5q-7 -8 -11 -12q41 -45 56 -62t47.5 -51.5t46 -47t39 -35.5t41 -31t36.5 -19t40 -14.5t39 -3.5q102 0 170.5 71t68.5 193z" />
    <glyph glyph-name="integral" unicode="&#x222b;" horiz-adv-x="342" 
d="M504 1437l-31 -106q-38 8 -74 8q-101 0 -147.5 -59.5t-46.5 -175.5v-1046q0 -160 -74 -252.5t-230 -92.5q-56 0 -113 13l32 105q38 -8 74 -8q101 0 147.5 59.5t46.5 175.5v1046q0 161 73.5 253t229.5 92q61 0 113 -12z" />
    <glyph glyph-name="congruent" unicode="&#x2245;" horiz-adv-x="1228" 
d="M1036 413l-23 -107h-873l24 107h872zM1113 772l-23 -105h-873l24 105h872zM1120 1177l52 -79q-66 -58 -130.5 -85.5t-141.5 -27.5q-60 0 -110 14.5t-79.5 32t-75 32t-97.5 14.5q-56 0 -102 -21.5t-101 -69.5l-53 79q130 113 272 113q60 0 110 -14.5t79.5 -32.5t75 -32.5
t97.5 -14.5q56 0 102.5 22t101.5 70z" />
    <glyph glyph-name="approxequal" unicode="&#x2248;" horiz-adv-x="1228" 
d="M1082 814l53 -79q-128 -112 -273 -112q-60 0 -110 14.5t-79.5 32t-75 32t-97.5 14.5q-56 0 -102 -21.5t-101 -69.5l-53 78q130 113 272 113q60 0 110.5 -14.5t80 -32t75 -32t97.5 -14.5q56 0 102 21.5t101 69.5zM1007 458l52 -79q-66 -58 -131 -85.5t-142 -27.5
q-60 0 -110 14.5t-79.5 32t-75 32t-97.5 14.5q-56 0 -102 -21.5t-101 -69.5l-53 79q130 113 272 113q60 0 110.5 -14.5t80 -32t75 -32t97.5 -14.5q56 0 103 22t101 69z" />
    <glyph glyph-name="uni2259" unicode="&#x2259;" horiz-adv-x="1228" 
d="M1036 413l-23 -107h-873l24 107h872zM1113 772l-23 -105h-873l24 105h872zM1027 961h-123l-158 218l-244 -218h-132l309 288h154z" />
    <glyph glyph-name="notequal" unicode="&#x2260;" horiz-adv-x="1228" 
d="M1036 413l-23 -107h-485l-162 -267h-113l163 267h-276l24 107h316l156 254h-419l24 105h459l163 267h112l-163 -267h301l-23 -105h-342l-155 -254h443z" />
    <glyph glyph-name="lessequal" unicode="&#x2264;" horiz-adv-x="1228" 
d="M1100 977l-718 -284l597 -284l-25 -118l-714 351l23 115l864 350zM141 180h790l-23 -106h-788z" />
    <glyph glyph-name="greaterequal" unicode="&#x2265;" horiz-adv-x="1228" 
d="M1080 757l-23 -116l-863 -350l26 130l719 285l-597 284l25 117zM169 180h789l-22 -106h-789z" />
    <glyph glyph-name="dotmath" unicode="&#x22c5;" horiz-adv-x="1228" 
d="M614 638q39 0 68.5 -29t29.5 -69q0 -39 -29.5 -69t-68.5 -30t-68.5 30t-29.5 69q0 40 29.5 69t68.5 29z" />
    <glyph glyph-name="uni2460" unicode="&#x2460;" horiz-adv-x="2099" 
d="M1111 1613q183 0 349.5 -71t287 -191t191.5 -285.5t71 -347.5q0 -122 -32.5 -238t-90 -214.5t-140.5 -181.5t-181.5 -140.5t-215.5 -90t-239 -32.5q-183 0 -350 71t-287 191.5t-191 286.5t-71 348t71 347.5t191 285.5t287 191t350 71zM1111 1504q-160 0 -305.5 -62
t-251 -167.5t-167.5 -251t-62 -305.5q0 -214 105 -395.5t286 -287.5t395 -106q160 0 305.5 62.5t251 168.5t168 252t62.5 306t-62.5 305.5t-168 251t-251 167.5t-305.5 62zM1218 1168v-867h-104v724l-286 -117v104z" />
    <glyph glyph-name="uni2461" unicode="&#x2461;" horiz-adv-x="2099" 
d="M1111 1613q183 0 349.5 -71t287 -191t191.5 -285.5t71 -347.5q0 -122 -32.5 -238t-90 -214.5t-140.5 -181.5t-181.5 -140.5t-215.5 -90t-239 -32.5q-183 0 -350 71t-287 191.5t-191 286.5t-71 348t71 347.5t191 285.5t287 191t350 71zM1111 1504q-160 0 -305.5 -62
t-251 -167.5t-167.5 -251t-62 -305.5q0 -214 105 -395.5t286 -287.5t395 -106q160 0 305.5 62.5t251 168.5t168 252t62.5 306t-62.5 305.5t-168 251t-251 167.5t-305.5 62zM891 955l-65 70q99 144 278 144q131 0 206 -73.5t75 -189.5q0 -73 -33.5 -131.5t-94.5 -120.5
l-256 -257h413v-96h-562v81l334 332q91 91 91 185q0 74 -48.5 122.5t-132.5 48.5q-123 0 -205 -115z" />
    <glyph glyph-name="uni2462" unicode="&#x2462;" horiz-adv-x="2099" 
d="M1111 1613q183 0 349.5 -71t287 -191t191.5 -285.5t71 -347.5q0 -122 -32.5 -238t-90 -214.5t-140.5 -181.5t-181.5 -140.5t-215.5 -90t-239 -32.5q-183 0 -350 71t-287 191.5t-191 286.5t-71 348t71 347.5t191 285.5t287 191t350 71zM1111 1504q-160 0 -305.5 -62
t-251 -167.5t-167.5 -251t-62 -305.5q0 -214 105 -395.5t286 -287.5t395 -106q160 0 305.5 62.5t251 168.5t168 252t62.5 306t-62.5 305.5t-168 251t-251 167.5t-305.5 62zM1095 1169q135 0 220 -64.5t85 -166.5q0 -77 -43.5 -129.5t-117.5 -74.5q83 -23 131 -76t48 -127
q0 -116 -92 -178.5t-224 -62.5q-179 0 -283 109l61 69q89 -86 217 -86q91 0 152.5 40.5t61.5 115.5q0 69 -61 110t-152 41h-122v91h122q86 0 140 39.5t54 110.5q0 65 -56 105.5t-146 40.5q-124 0 -203 -95l-65 67q99 121 273 121z" />
    <glyph glyph-name="uni2463" unicode="&#x2463;" horiz-adv-x="2099" 
d="M1111 1613q183 0 349.5 -71t287 -191t191.5 -285.5t71 -347.5q0 -122 -32.5 -238t-90 -214.5t-140.5 -181.5t-181.5 -140.5t-215.5 -90t-239 -32.5q-183 0 -350 71t-287 191.5t-191 286.5t-71 348t71 347.5t191 285.5t287 191t350 71zM1111 1504q-160 0 -305.5 -62
t-251 -167.5t-167.5 -251t-62 -305.5q0 -214 105 -395.5t286 -287.5t395 -106q160 0 305.5 62.5t251 168.5t168 252t62.5 306t-62.5 305.5t-168 251t-251 167.5t-305.5 62zM1281 817v-242h147v-97h-147v-177h-103v177h-418v75l311 606h116l-302 -584h293v242h103z" />
    <glyph glyph-name="uni2464" unicode="&#x2464;" horiz-adv-x="2099" 
d="M1111 1613q183 0 349.5 -71t287 -191t191.5 -285.5t71 -347.5q0 -122 -32.5 -238t-90 -214.5t-140.5 -181.5t-181.5 -140.5t-215.5 -90t-239 -32.5q-183 0 -350 71t-287 191.5t-191 286.5t-71 348t71 347.5t191 285.5t287 191t350 71zM1111 1504q-160 0 -305.5 -62
t-251 -167.5t-167.5 -251t-62 -305.5q0 -214 105 -395.5t286 -287.5t395 -106q160 0 305.5 62.5t251 168.5t168 252t62.5 306t-62.5 305.5t-168 251t-251 167.5t-305.5 62zM1379 1160v-96h-387l-10 -247h119q155 0 237.5 -68.5t82.5 -188.5q0 -122 -86 -196t-221 -74
q-184 0 -298 125l57 74q42 -47 105.5 -75t134.5 -28q93 0 146.5 46t53.5 121q0 172 -240 172h-185l12 435h479z" />
    <glyph glyph-name="uni2465" unicode="&#x2465;" horiz-adv-x="2099" 
d="M1111 1613q183 0 349.5 -71t287 -191t191.5 -285.5t71 -347.5q0 -122 -32.5 -238t-90 -214.5t-140.5 -181.5t-181.5 -140.5t-215.5 -90t-239 -32.5q-183 0 -350 71t-287 191.5t-191 286.5t-71 348t71 347.5t191 285.5t287 191t350 71zM1111 1504q-160 0 -305.5 -62
t-251 -167.5t-167.5 -251t-62 -305.5q0 -214 105 -395.5t286 -287.5t395 -106q160 0 305.5 62.5t251 168.5t168 252t62.5 306t-62.5 305.5t-168 251t-251 167.5t-305.5 62zM1234 1160l-217 -329q53 20 103 20q131 0 215.5 -79.5t84.5 -198.5q0 -122 -89 -202.5t-224 -80.5
q-136 0 -226 80t-90 201q0 92 61 186l257 403h125zM1107 762q-90 0 -149 -54t-59 -136t59 -135.5t149 -53.5q89 0 147.5 53.5t58.5 135.5t-58.5 136t-147.5 54z" />
    <glyph glyph-name="uni2466" unicode="&#x2466;" horiz-adv-x="2099" 
d="M1111 1613q183 0 349.5 -71t287 -191t191.5 -285.5t71 -347.5q0 -122 -32.5 -238t-90 -214.5t-140.5 -181.5t-181.5 -140.5t-215.5 -90t-239 -32.5q-183 0 -350 71t-287 191.5t-191 286.5t-71 348t71 347.5t191 285.5t287 191t350 71zM1111 1504q-160 0 -305.5 -62
t-251 -167.5t-167.5 -251t-62 -305.5q0 -214 105 -395.5t286 -287.5t395 -106q160 0 305.5 62.5t251 168.5t168 252t62.5 306t-62.5 305.5t-168 251t-251 167.5t-305.5 62zM1443 1160v-82l-391 -777h-123l391 762h-481v97h604z" />
    <glyph glyph-name="uni2467" unicode="&#x2467;" horiz-adv-x="2099" 
d="M1111 1613q183 0 349.5 -71t287 -191t191.5 -285.5t71 -347.5q0 -122 -32.5 -238t-90 -214.5t-140.5 -181.5t-181.5 -140.5t-215.5 -90t-239 -32.5q-183 0 -350 71t-287 191.5t-191 286.5t-71 348t71 347.5t191 285.5t287 191t350 71zM1111 1504q-160 0 -305.5 -62
t-251 -167.5t-167.5 -251t-62 -305.5q0 -214 105 -395.5t286 -287.5t395 -106q160 0 305.5 62.5t251 168.5t168 252t62.5 306t-62.5 305.5t-168 251t-251 167.5t-305.5 62zM1111 1169q130 0 217.5 -61.5t87.5 -168.5q0 -75 -45 -127t-118 -77q83 -25 134 -77t51 -130
q0 -111 -93.5 -174.5t-233.5 -63.5t-233.5 63.5t-93.5 174.5q0 78 51 130t134 77q-74 25 -118.5 76.5t-44.5 127.5q0 107 87.5 168.5t217.5 61.5zM1111 694q-92 0 -153 -41t-61 -114q0 -74 61 -115.5t153 -41.5t153 41.5t61 115.5q0 73 -61 114t-153 41zM1111 1077
q-85 0 -140.5 -38.5t-55.5 -108.5q0 -72 55.5 -112t140.5 -40t140.5 40t55.5 112q0 70 -55.5 108.5t-140.5 38.5z" />
    <glyph glyph-name="uni2468" unicode="&#x2468;" horiz-adv-x="2099" 
d="M1111 1613q183 0 349.5 -71t287 -191t191.5 -285.5t71 -347.5q0 -122 -32.5 -238t-90 -214.5t-140.5 -181.5t-181.5 -140.5t-215.5 -90t-239 -32.5q-183 0 -350 71t-287 191.5t-191 286.5t-71 348t71 347.5t191 285.5t287 191t350 71zM1111 1504q-160 0 -305.5 -62
t-251 -167.5t-167.5 -251t-62 -305.5q0 -214 105 -395.5t286 -287.5t395 -106q160 0 305.5 62.5t251 168.5t168 252t62.5 306t-62.5 305.5t-168 251t-251 167.5t-305.5 62zM997 301l217 327q-51 -19 -103 -19q-132 0 -216.5 79.5t-84.5 198.5q0 122 89.5 202t225.5 80
q135 0 225 -79.5t90 -199.5q0 -93 -61 -187l-257 -402h-125zM1125 699q89 0 148 53.5t59 135.5t-59 135t-148 53q-90 0 -148 -53t-58 -135t58 -135.5t148 -53.5z" />
    <glyph glyph-name="uni24EA" unicode="&#x24ea;" horiz-adv-x="2099" 
d="M1111 1613q183 0 349.5 -71t287 -191t191.5 -285.5t71 -347.5q0 -122 -32.5 -238t-90 -214.5t-140.5 -181.5t-181.5 -140.5t-215.5 -90t-239 -32.5q-183 0 -350 71t-287 191.5t-191 286.5t-71 348t71 347.5t191 285.5t287 191t350 71zM1111 1504q-160 0 -305.5 -62
t-251 -167.5t-167.5 -251t-62 -305.5q0 -214 105 -395.5t286 -287.5t395 -106q160 0 305.5 62.5t251 168.5t168 252t62.5 306t-62.5 305.5t-168 251t-251 167.5t-305.5 62zM1111 1169q160 0 267 -119.5t107 -319.5t-107 -320t-267 -120q-159 0 -266 120t-107 320t107 319.5
t266 119.5zM1111 1070q-114 0 -189.5 -91t-75.5 -249t75.5 -249t189.5 -91t190 91t76 249t-76 249t-190 91z" />
    <glyph glyph-name="uni24FF" unicode="&#x24ff;" horiz-adv-x="2099" 
d="M1112 1169q-160 0 -267 -119.5t-107 -319.5t107 -320t267 -120q159 0 266.5 120t107.5 320t-107.5 319.5t-266.5 119.5zM1112 1070q114 0 189.5 -91t75.5 -249t-75.5 -249t-189.5 -91t-189.5 91t-75.5 249t75.5 249t189.5 91zM1111 1602q181 0 345.5 -70t283.5 -188.5
t189 -282.5t70 -343q0 -180 -70 -344t-189 -282.5t-283.5 -189t-345.5 -70.5q-180 0 -344.5 70.5t-283.5 189t-189 282.5t-70 344q0 144 44.5 278.5t127 243.5t191.5 191t244 126.5t280 44.5z" />
    <glyph glyph-name="uni2715" unicode="&#x2573;" horiz-adv-x="2146" 
d="M1964 -275l-92 -77l-776 987l-1211 -997l-68 88l1202 991l-781 991l92 78l777 -987l1210 997l69 -88l-1202 -991z" />
    <glyph glyph-name="uni2715" unicode="&#x2715;" horiz-adv-x="2146" 
d="M1964 -275l-92 -77l-776 987l-1211 -997l-68 88l1202 991l-781 991l92 78l777 -987l1210 997l69 -88l-1202 -991z" />
    <glyph glyph-name="uni25AE" unicode="&#x258c;" horiz-adv-x="1843" 
d="M254 1434h717v-1434h-717v1434z" />
    <glyph glyph-name="uni25AE" unicode="&#x25ae;" horiz-adv-x="1843" 
d="M254 1434h717v-1434h-717v1434z" />
    <glyph glyph-name="filledbox" unicode="&#x25a0;" horiz-adv-x="1843" 
d="M254 1434h1434v-1434h-1434v1434z" />
    <glyph glyph-name="H22073" unicode="&#x25a1;" horiz-adv-x="1843" 
d="M254 1434h1434v-1434h-1434v1434zM361 1325v-1216h1218v1216h-1218z" />
    <glyph glyph-name="triagup" unicode="&#x25b2;" horiz-adv-x="1843" 
d="M905 1454l840 -1454h-1679z" />
    <glyph glyph-name="uni25B3" unicode="&#x25b3;" horiz-adv-x="1843" 
d="M905 1454l840 -1454h-1679zM905 1238l-652 -1129h1306z" />
    <glyph glyph-name="uni25B4" unicode="&#x25b4;" horiz-adv-x="1228" 
d="M632 936l317 -548h-636z" />
    <glyph glyph-name="uni25B8" unicode="&#x25b8;" horiz-adv-x="1228" 
d="M981 662l-549 -319v636z" />
    <glyph glyph-name="triagdn" unicode="&#x25bc;" horiz-adv-x="1843" 
d="M1055 -20l-840 1454h1679z" />
    <glyph glyph-name="uni25BD" unicode="&#x25bd;" horiz-adv-x="1843" 
d="M1055 -20l-840 1454h1679zM1055 196l652 1129h-1305z" />
    <glyph glyph-name="uni25BE" unicode="&#x25be;" horiz-adv-x="1227" 
d="M674 387l-318 549h635z" />
    <glyph glyph-name="uni25C2" unicode="&#x25c2;" horiz-adv-x="1229" 
d="M325 662l548 317v-636z" />
    <glyph glyph-name="uni25C6" unicode="&#x25c6;" horiz-adv-x="1843" 
d="M982 1473l756 -756l-756 -756l-756 756z" />
    <glyph glyph-name="uni25C7" unicode="&#x25c7;" horiz-adv-x="1843" 
d="M982 1473l756 -756l-756 -756l-756 756zM982 1320l-603 -603l603 -603l603 603z" />
    <glyph glyph-name="lozenge" unicode="&#x25ca;" horiz-adv-x="1577" 
d="M1526 717l-620 -717h-135l-618 717l618 717h136zM1373 717l-536 610l-532 -609l536 -612z" />
    <glyph glyph-name="circle" unicode="&#x25cb;" horiz-adv-x="1843" 
d="M985 -40q-154 0 -294.5 60t-241.5 161.5t-161 241.5t-60 294t60 294t161 241.5t241.5 161.5t294.5 60q206 0 380 -101.5t275.5 -275.5t101.5 -380t-101.5 -380t-275.5 -275.5t-380 -101.5zM985 69q132 0 252 51.5t207 138t138.5 206.5t51.5 252t-51.5 252t-138.5 206.5
t-207 138t-252 51.5t-252 -51.5t-206.5 -138t-138 -206.5t-51.5 -252t51.5 -252t138 -206.5t206.5 -138t252 -51.5z" />
    <glyph glyph-name="H18533" unicode="&#x25cf;" horiz-adv-x="1843" 
d="M985 -40q-154 0 -294.5 60t-241.5 161.5t-161 241.5t-60 294t60 294t161 241.5t241.5 161.5t294.5 60q206 0 380 -101.5t275.5 -275.5t101.5 -380t-101.5 -380t-275.5 -275.5t-380 -101.5z" />
    <glyph glyph-name="uni25D0" unicode="&#x25d0;" horiz-adv-x="1843" 
d="M985 -40q-154 0 -294.5 60t-241.5 161.5t-161 241.5t-60 294t60 294t161 241.5t241.5 161.5t294.5 60q206 0 380 -101.5t275.5 -275.5t101.5 -380t-101.5 -380t-275.5 -275.5t-380 -101.5zM985 1365v-1296q132 0 252 51.5t207 138t138.5 206.5t51.5 252t-51.5 252
t-138.5 206.5t-207 138t-252 51.5z" />
    <glyph glyph-name="uni25D6" unicode="&#x25d6;" horiz-adv-x="1843" 
d="M985 1474v-1514q-154 0 -294.5 60t-241.5 161.5t-161 241.5t-60 294t60 294t161 241.5t241.5 161.5t294.5 60z" />
    <glyph glyph-name="uni25E7" unicode="&#x25e7;" horiz-adv-x="1843" 
d="M254 1434h1434v-1434h-1434v1434zM971 1325v-1216h608v1216h-608z" />
    <glyph glyph-name="uni2610" unicode="&#x2610;" horiz-adv-x="2252" 
d="M304 1584h1735v-1735h-1735v1735zM394 1494v-1554h1555v1554h-1555z" />
    <glyph glyph-name="uni2611" unicode="&#x2611;" horiz-adv-x="2252" 
d="M304 1584h1735v-1735h-1735v1735zM394 1494v-1554h1555v1554h-1555zM1684 1239l73 -53l-724 -1022l-415 528l70 58l341 -440z" />
    <glyph glyph-name="uni2612" unicode="&#x2612;" horiz-adv-x="2252" 
d="M2039 1584v-1735h-1735v1735h1735zM1949 1494h-1555v-1554h1555v1554zM668 273l440 441l-443 442l64 65l442 -444l444 444l64 -65l-444 -442l440 -441l-63 -63l-441 439l-439 -439z" />
    <glyph glyph-name="heart" unicode="&#x2665;" horiz-adv-x="1843" 
d="M1294 1201q120 0 199.5 -82t79.5 -203q0 -115 -78.5 -247.5t-199 -249.5t-275.5 -226q-155 109 -275.5 226t-199 249.5t-78.5 247.5q0 121 79 203t199 82q109 0 192 -64.5t83 -151.5q0 87 82.5 151.5t191.5 64.5z" />
    <glyph glyph-name="uni2713" unicode="&#x2713;" horiz-adv-x="2252" 
d="M1787 1299l85 -62l-830 -1121l-451 491l79 72l363 -397z" />
    <glyph glyph-name="uni2717" unicode="&#x2717;" horiz-adv-x="2252" 
d="M1252 717l483 -483l-75 -75l-482 483l-484 -483l-74 75l482 483l-482 482l74 76l484 -483l482 483l75 -76z" />
    <glyph glyph-name="uni278A" unicode="&#x2776;" horiz-adv-x="2099" 
d="M1218 1168l-389 -156v-104l285 117v-724h104v867zM1111 1602q181 0 345.5 -70t283.5 -188.5t189 -282.5t70 -343q0 -180 -70 -344t-189 -282.5t-283.5 -189t-345.5 -70.5q-180 0 -344.5 70.5t-283.5 189t-189 282.5t-70 344q0 144 44.5 278.5t127 243.5t191.5 191
t244 126.5t280 44.5z" />
    <glyph glyph-name="uni278A" unicode="&#x278a;" horiz-adv-x="2099" 
d="M1218 1168l-389 -156v-104l285 117v-724h104v867zM1111 1602q181 0 345.5 -70t283.5 -188.5t189 -282.5t70 -343q0 -180 -70 -344t-189 -282.5t-283.5 -189t-345.5 -70.5q-180 0 -344.5 70.5t-283.5 189t-189 282.5t-70 344q0 144 44.5 278.5t127 243.5t191.5 191
t244 126.5t280 44.5z" />
    <glyph glyph-name="uni278B" unicode="&#x2777;" horiz-adv-x="2099" 
d="M826 1025l70 -64q78 109 200 109q84 0 132.5 -48.5t48.5 -122.5q0 -94 -91 -185l-334 -332v-81h562v96h-413l257 257q60 60 93.5 119.5t33.5 132.5q0 116 -75 189.5t-206 73.5q-179 0 -278 -144zM1111 1602q180 0 344.5 -70t283.5 -188.5t189.5 -282.5t70.5 -343
q0 -180 -70.5 -344t-189.5 -282.5t-283.5 -189t-344.5 -70.5t-344.5 70.5t-283.5 189t-189.5 282.5t-70.5 344q0 179 70.5 343t189.5 282.5t283.5 188.5t344.5 70z" />
    <glyph glyph-name="uni278B" unicode="&#x278b;" horiz-adv-x="2099" 
d="M826 1025l70 -64q78 109 200 109q84 0 132.5 -48.5t48.5 -122.5q0 -94 -91 -185l-334 -332v-81h562v96h-413l257 257q60 60 93.5 119.5t33.5 132.5q0 116 -75 189.5t-206 73.5q-179 0 -278 -144zM1111 1602q180 0 344.5 -70t283.5 -188.5t189.5 -282.5t70.5 -343
q0 -180 -70.5 -344t-189.5 -282.5t-283.5 -189t-344.5 -70.5t-344.5 70.5t-283.5 189t-189.5 282.5t-70.5 344q0 179 70.5 343t189.5 282.5t283.5 188.5t344.5 70z" />
    <glyph glyph-name="uni278C" unicode="&#x2778;" horiz-adv-x="2099" 
d="M1111 1602q181 0 345.5 -70t283.5 -188.5t189 -282.5t70 -343q0 -180 -70 -344t-189 -282.5t-283.5 -189t-345.5 -70.5q-180 0 -344.5 70.5t-283.5 189t-189 282.5t-70 344q0 144 44.5 278.5t127 243.5t191.5 191t244 126.5t280 44.5zM1096 1169q-89 0 -159 -33t-114 -88
l64 -67q79 95 204 95q89 0 145.5 -40.5t56.5 -105.5q0 -71 -54 -110.5t-140 -39.5h-122v-91h121q92 0 153 -41t61 -110q0 -75 -61.5 -115.5t-152.5 -40.5q-129 0 -217 86l-61 -69q104 -109 282 -109q133 0 225 62.5t92 178.5q0 73 -48.5 126.5t-130.5 76.5q74 22 117 74.5
t43 129.5q0 102 -84.5 166.5t-219.5 64.5z" />
    <glyph glyph-name="uni278C" unicode="&#x278c;" horiz-adv-x="2099" 
d="M1111 1602q181 0 345.5 -70t283.5 -188.5t189 -282.5t70 -343q0 -180 -70 -344t-189 -282.5t-283.5 -189t-345.5 -70.5q-180 0 -344.5 70.5t-283.5 189t-189 282.5t-70 344q0 144 44.5 278.5t127 243.5t191.5 191t244 126.5t280 44.5zM1096 1169q-89 0 -159 -33t-114 -88
l64 -67q79 95 204 95q89 0 145.5 -40.5t56.5 -105.5q0 -71 -54 -110.5t-140 -39.5h-122v-91h121q92 0 153 -41t61 -110q0 -75 -61.5 -115.5t-152.5 -40.5q-129 0 -217 86l-61 -69q104 -109 282 -109q133 0 225 62.5t92 178.5q0 73 -48.5 126.5t-130.5 76.5q74 22 117 74.5
t43 129.5q0 102 -84.5 166.5t-219.5 64.5z" />
    <glyph glyph-name="uni278D" unicode="&#x2779;" horiz-adv-x="2099" 
d="M1111 1602q181 0 345.5 -70t283.5 -188.5t189 -282.5t70 -343q0 -180 -70 -344t-189 -282.5t-283.5 -189t-345.5 -70.5q-180 0 -344.5 70.5t-283.5 189t-189 282.5t-70 344q0 144 44.5 278.5t127 243.5t191.5 191t244 126.5t280 44.5zM1282 817h-104v-242h-293l302 584
h-115l-312 -606v-75h418v-177h104v177h146v97h-146v242z" />
    <glyph glyph-name="uni278D" unicode="&#x278d;" horiz-adv-x="2099" 
d="M1111 1602q181 0 345.5 -70t283.5 -188.5t189 -282.5t70 -343q0 -180 -70 -344t-189 -282.5t-283.5 -189t-345.5 -70.5q-180 0 -344.5 70.5t-283.5 189t-189 282.5t-70 344q0 144 44.5 278.5t127 243.5t191.5 191t244 126.5t280 44.5zM1282 817h-104v-242h-293l302 584
h-115l-312 -606v-75h418v-177h104v177h146v97h-146v242z" />
    <glyph glyph-name="uni278E" unicode="&#x277a;" horiz-adv-x="2099" 
d="M1379 1160h-478l-13 -435h186q240 0 240 -172q0 -75 -54 -121t-146 -46q-71 0 -135 28t-106 75l-56 -74q112 -125 297 -125q135 0 221 74t86 196q0 120 -82 188.5t-237 68.5h-120l10 247h387v96zM1111 1602q181 0 345.5 -70t283.5 -188.5t189 -282.5t70 -343
q0 -180 -70 -344t-189 -282.5t-283.5 -189t-345.5 -70.5q-180 0 -344.5 70.5t-283.5 189t-189 282.5t-70 344q0 144 44.5 278.5t127 243.5t191.5 191t244 126.5t280 44.5z" />
    <glyph glyph-name="uni278E" unicode="&#x278e;" horiz-adv-x="2099" 
d="M1379 1160h-478l-13 -435h186q240 0 240 -172q0 -75 -54 -121t-146 -46q-71 0 -135 28t-106 75l-56 -74q112 -125 297 -125q135 0 221 74t86 196q0 120 -82 188.5t-237 68.5h-120l10 247h387v96zM1111 1602q181 0 345.5 -70t283.5 -188.5t189 -282.5t70 -343
q0 -180 -70 -344t-189 -282.5t-283.5 -189t-345.5 -70.5q-180 0 -344.5 70.5t-283.5 189t-189 282.5t-70 344q0 144 44.5 278.5t127 243.5t191.5 191t244 126.5t280 44.5z" />
    <glyph glyph-name="uni278F" unicode="&#x277b;" horiz-adv-x="2099" 
d="M1111 1602q181 0 345.5 -70t283.5 -188.5t189 -282.5t70 -343q0 -180 -70 -344t-189 -282.5t-283.5 -189t-345.5 -70.5q-180 0 -344.5 70.5t-283.5 189t-189 282.5t-70 344q0 144 44.5 278.5t127 243.5t191.5 191t244 126.5t280 44.5zM1234 1160h-125l-257 -403
q-61 -94 -61 -186q0 -121 90 -201t226 -80q135 0 224.5 80.5t89.5 202.5q0 119 -84.5 198.5t-215.5 79.5q-51 0 -104 -20zM1107 762q89 0 148 -54t59 -136t-59 -135.5t-148 -53.5q-90 0 -149 53.5t-59 135.5t59 136t149 54z" />
    <glyph glyph-name="uni278F" unicode="&#x278f;" horiz-adv-x="2099" 
d="M1111 1602q181 0 345.5 -70t283.5 -188.5t189 -282.5t70 -343q0 -180 -70 -344t-189 -282.5t-283.5 -189t-345.5 -70.5q-180 0 -344.5 70.5t-283.5 189t-189 282.5t-70 344q0 144 44.5 278.5t127 243.5t191.5 191t244 126.5t280 44.5zM1234 1160h-125l-257 -403
q-61 -94 -61 -186q0 -121 90 -201t226 -80q135 0 224.5 80.5t89.5 202.5q0 119 -84.5 198.5t-215.5 79.5q-51 0 -104 -20zM1107 762q89 0 148 -54t59 -136t-59 -135.5t-148 -53.5q-90 0 -149 53.5t-59 135.5t59 136t149 54z" />
    <glyph glyph-name="uni2790" unicode="&#x277c;" horiz-adv-x="2099" 
d="M1444 1160h-605v-97h482l-392 -762h123l392 777v82zM1111 1602q181 0 345.5 -70t283.5 -188.5t189 -282.5t70 -343q0 -180 -70 -344t-189 -282.5t-283.5 -189t-345.5 -70.5q-180 0 -344.5 70.5t-283.5 189t-189 282.5t-70 344q0 144 44.5 278.5t127 243.5t191.5 191
t244 126.5t280 44.5z" />
    <glyph glyph-name="uni2790" unicode="&#x2790;" horiz-adv-x="2099" 
d="M1444 1160h-605v-97h482l-392 -762h123l392 777v82zM1111 1602q181 0 345.5 -70t283.5 -188.5t189 -282.5t70 -343q0 -180 -70 -344t-189 -282.5t-283.5 -189t-345.5 -70.5q-180 0 -344.5 70.5t-283.5 189t-189 282.5t-70 344q0 144 44.5 278.5t127 243.5t191.5 191
t244 126.5t280 44.5z" />
    <glyph glyph-name="uni2791" unicode="&#x277d;" horiz-adv-x="2099" 
d="M1111 1602q181 0 345.5 -70t283.5 -188.5t189 -282.5t70 -343q0 -180 -70 -344t-189 -282.5t-283.5 -189t-345.5 -70.5q-180 0 -344.5 70.5t-283.5 189t-189 282.5t-70 344q0 144 44.5 278.5t127 243.5t191.5 191t244 126.5t280 44.5zM1111 1168q-130 0 -217 -61.5
t-87 -168.5q0 -75 45 -126.5t118 -76.5q-83 -24 -134 -76t-51 -131q0 -110 93.5 -173.5t232.5 -63.5q140 0 233.5 63.5t93.5 173.5q0 78 -51 130t-134 77q73 25 118 76.5t45 126.5q0 107 -87.5 168.5t-217.5 61.5zM1111 694q92 0 153 -41t61 -114q0 -74 -61 -115t-153 -41
q-91 0 -152 41t-61 115q0 73 61 114t152 41zM1111 1076q85 0 140.5 -38.5t55.5 -108.5q0 -71 -55.5 -111t-140.5 -40q-83 0 -139 40t-56 111q0 70 55.5 108.5t139.5 38.5z" />
    <glyph glyph-name="uni2791" unicode="&#x2791;" horiz-adv-x="2099" 
d="M1111 1602q181 0 345.5 -70t283.5 -188.5t189 -282.5t70 -343q0 -180 -70 -344t-189 -282.5t-283.5 -189t-345.5 -70.5q-180 0 -344.5 70.5t-283.5 189t-189 282.5t-70 344q0 144 44.5 278.5t127 243.5t191.5 191t244 126.5t280 44.5zM1111 1168q-130 0 -217 -61.5
t-87 -168.5q0 -75 45 -126.5t118 -76.5q-83 -24 -134 -76t-51 -131q0 -110 93.5 -173.5t232.5 -63.5q140 0 233.5 63.5t93.5 173.5q0 78 -51 130t-134 77q73 25 118 76.5t45 126.5q0 107 -87.5 168.5t-217.5 61.5zM1111 694q92 0 153 -41t61 -114q0 -74 -61 -115t-153 -41
q-91 0 -152 41t-61 115q0 73 61 114t152 41zM1111 1076q85 0 140.5 -38.5t55.5 -108.5q0 -71 -55.5 -111t-140.5 -40q-83 0 -139 40t-56 111q0 70 55.5 108.5t139.5 38.5z" />
    <glyph glyph-name="uni2792" unicode="&#x277e;" horiz-adv-x="2099" 
d="M1111 1602q181 0 345.5 -70t283.5 -188.5t189 -282.5t70 -343q0 -180 -70 -344t-189 -282.5t-283.5 -189t-345.5 -70.5q-180 0 -344.5 70.5t-283.5 189t-189 282.5t-70 344q0 144 44.5 278.5t127 243.5t191.5 191t244 126.5t280 44.5zM997 301h126l256 402q62 95 62 187
q0 121 -90 200t-226 79t-225 -80t-89 -202q0 -119 84.5 -198.5t215.5 -79.5q53 0 102 19zM1125 699q-90 0 -148 53.5t-58 135.5t58 135t148 53t148.5 -53t58.5 -135t-59 -135.5t-148 -53.5z" />
    <glyph glyph-name="uni2792" unicode="&#x2792;" horiz-adv-x="2099" 
d="M1111 1602q181 0 345.5 -70t283.5 -188.5t189 -282.5t70 -343q0 -180 -70 -344t-189 -282.5t-283.5 -189t-345.5 -70.5q-180 0 -344.5 70.5t-283.5 189t-189 282.5t-70 344q0 144 44.5 278.5t127 243.5t191.5 191t244 126.5t280 44.5zM997 301h126l256 402q62 95 62 187
q0 121 -90 200t-226 79t-225 -80t-89 -202q0 -119 84.5 -198.5t215.5 -79.5q53 0 102 19zM1125 699q-90 0 -148 53.5t-58 135.5t58 135t148 53t148.5 -53t58.5 -135t-59 -135.5t-148 -53.5z" />
    <glyph glyph-name="uni2B51" unicode="&#x2b51;" horiz-adv-x="1843" 
d="M1144 881h518l-419 -306l161 -494l-420 306l-419 -306l160 494l-421 306h520l160 493z" />
    <glyph glyph-name="uni2B52" unicode="&#x2b52;" horiz-adv-x="1843" 
d="M1144 881h518l-419 -306l161 -494l-420 306l-419 -306l160 494l-421 306h520l160 493zM1091 808l-107 330l-106 -330h-349l281 -205l-107 -331l280 205l282 -205l-108 331l281 205h-347z" />
    <glyph glyph-name="uni2E17" unicode="&#x2e17;" horiz-adv-x="902" 
d="M803 891l-23 -109l-572 -208l23 109zM728 540l-22 -109l-574 -208l25 109z" />
    <glyph glyph-name="uni2E38" unicode="&#x2e38;" horiz-adv-x="720" 
d="M522 1475h98l-97 -453h209l-19 -95h-209l-45 -209h-98l46 209h-210l20 95h209z" />
    <glyph glyph-name="uniEA00" unicode="&#xea00;" horiz-adv-x="1843" 
d="M1144 881h518l-419 -306l161 -494l-420 306l-419 -306l160 494l-421 306h520l160 493zM1091 808l-107 330v-661l281 -205l-108 331l281 205h-347z" />
    <glyph glyph-name="uniEA01" unicode="&#xea01;" horiz-adv-x="1843" 
d="M984 387l-419 -306l160 494l-421 306h520l160 493v-987z" />
    <glyph glyph-name="uniFB00" unicode="&#xfb00;" horiz-adv-x="1688" 
d="M897 964l-23 -107h-391l-182 -857h-118l183 857h-232l22 107h232l42 196q34 162 123 246t226 84q69 0 131.5 -21t104.5 -57l-58 -91q-73 59 -179 59q-87 0 -147.5 -58t-85.5 -177l-39 -181h391zM1726 964l-22 -107h-391l-183 -857h-117l182 857h-231l21 107h233l42 196
q34 162 123 246t226 84q142 0 235 -78l-57 -91q-73 59 -179 59q-87 0 -148 -58t-86 -177l-39 -181h391z" />
    <glyph glyph-name="fi" unicode="&#xfb01;" horiz-adv-x="1333" 
d="M897 964l-23 -107h-391l-182 -857h-118l183 857h-232l22 107h232l42 196q34 162 123 246t226 84q69 0 131.5 -21t104.5 -57l-58 -91q-73 59 -179 59q-87 0 -147.5 -58t-85.5 -177l-39 -181h391zM1257 964l-205 -964h-117l205 964h117zM1271 1395q35 0 59.5 -25t24.5 -60
t-24.5 -59t-59.5 -24t-59 24t-24 59t24 60t59 25z" />
    <glyph glyph-name="fl" unicode="&#xfb02;" horiz-adv-x="1332" 
d="M897 964l-23 -107h-391l-182 -857h-118l183 857h-232l22 107h232l42 196q34 162 123 246t226 84q69 0 131.5 -21t104.5 -57l-58 -91q-73 59 -179 59q-87 0 -147.5 -58t-85.5 -177l-39 -181h391zM1365 1475l-313 -1475h-117l313 1475h117z" />
    <glyph glyph-name="uniFB03" unicode="&#xfb03;" horiz-adv-x="2162" 
d="M897 964l-23 -107h-391l-182 -857h-118l183 857h-232l22 107h232l42 196q34 162 123 246t226 84q69 0 131.5 -21t104.5 -57l-58 -91q-73 59 -179 59q-87 0 -147.5 -58t-85.5 -177l-39 -181h391zM1726 964l-22 -107h-391l-183 -857h-117l182 857h-231l21 107h233l42 196
q34 162 123 246t226 84q142 0 235 -78l-57 -91q-73 59 -179 59q-87 0 -148 -58t-86 -177l-39 -181h391zM2087 964l-206 -964h-117l205 964h118zM2100 1395q35 0 59.5 -25t24.5 -60t-24.5 -59t-59.5 -24t-59 24t-24 59t24 60t59 25z" />
    <glyph glyph-name="uniFB04" unicode="&#xfb04;" horiz-adv-x="2161" 
d="M897 964l-23 -107h-391l-182 -857h-118l183 857h-232l22 107h232l42 196q34 162 123 246t226 84q69 0 131.5 -21t104.5 -57l-58 -91q-73 59 -179 59q-87 0 -147.5 -58t-85.5 -177l-39 -181h391zM1726 964l-22 -107h-391l-183 -857h-117l182 857h-231l21 107h233l42 196
q34 162 123 246t226 84q142 0 235 -78l-57 -91q-73 59 -179 59q-87 0 -148 -58t-86 -177l-39 -181h391zM2194 1475l-313 -1475h-117l314 1475h116z" />
    <glyph glyph-name="uniFB05" unicode="&#xfb05;" horiz-adv-x="1469" 
d="M1476 964l-23 -107h-423l-106 -504q-27 -128 22.5 -193.5t145.5 -65.5q115 0 220 77l49 -90q-127 -96 -283 -96t-232.5 96t-38.5 275l105 501h-219l23 107h221l20 95q13 62 13 101q0 105 -63.5 162.5t-163.5 57.5q-121 0 -210 -79.5t-122 -234.5l-227 -1066h-117
l230 1081q43 202 166 305.5t290 103.5q145 0 238.5 -86t93.5 -236q0 -55 -13 -119l-18 -85h422z" />
    <glyph glyph-name="uniFB06" unicode="&#xfb06;" horiz-adv-x="1867" 
d="M930 869l-62 -89q-56 41 -146.5 69t-180.5 28q-111 0 -185 -43t-83 -117q-9 -72 38 -114t152 -59l97 -15q151 -24 221.5 -94t58.5 -178q-15 -126 -125.5 -199t-279.5 -73q-112 0 -226 37t-189 97l66 86q64 -52 156.5 -85.5t190.5 -33.5q122 0 200 44t87 126
q15 136 -192 169l-99 15q-155 24 -221.5 95t-54.5 177q15 126 121 196.5t268 70.5q117 0 218.5 -30.5t169.5 -79.5zM1874 964l-23 -107h-423l-106 -504q-28 -128 21.5 -193.5t145.5 -65.5q116 0 221 77l49 -90q-127 -96 -283 -96q-155 0 -232.5 96.5t-39.5 274.5l107 501
h-219l22 107h219l68 314h117l-67 -314h423z" />
    <glyph glyph-name="uniFEFF" unicode="&#xfeff;" horiz-adv-x="0" 
 />
    <glyph glyph-name="uni030C.alt001" 
d="M-543 1076h-97l94 399h130z" />
    <glyph glyph-name="uni0328.alt001" 
d="M-416 -269l55 -78q-81 -75 -179 -75q-90 0 -147 45.5t-57 119.5q0 80 58.5 148t210.5 152l30 -44q-104 -72 -146 -127t-42 -108q0 -39 28.5 -63t74.5 -24q58 0 114 54z" />
    <glyph glyph-name="uni0328.alt002" 
d="M-446 53l11 -44q-227 -98 -227 -223q0 -47 37.5 -77.5t99.5 -30.5q84 0 155 57l46 -81q-99 -75 -220 -75q-107 0 -172 51.5t-65 132.5q0 91 76.5 161t258.5 129z" />
    <glyph glyph-name="uni0328.alt003" 
d="M-415 -266l55 -76q-87 -80 -190 -80q-87 0 -140.5 43.5t-53.5 115.5q0 93 86 165t276 145l22 -47q-272 -113 -272 -237q0 -39 27 -62t71 -23q61 0 119 56z" />
    <glyph glyph-name="uni0328.alt004" 
d="M-377 -266l54 -78q-93 -78 -214 -78q-111 0 -178 55t-67 142q0 91 83 167.5t282 136.5l20 -44q-146 -58 -208 -117.5t-62 -125.5q0 -52 37 -83.5t100 -31.5q82 0 153 57z" />
    <glyph glyph-name="i.latn_TRK" horiz-adv-x="474" 
d="M398 964l-205 -964h-117l205 964h117zM412 1395q35 0 59.5 -25t24.5 -60t-24.5 -59t-59.5 -24t-59 24t-24 59t24 60t59 25z" />
    <glyph glyph-name="j.latn_NLD" horiz-adv-x="479" 
d="M403 964l-244 -1151q-24 -116 -90 -175.5t-164 -59.5q-86 0 -146 42l44 95q42 -27 95 -27q57 0 94.5 35.5t51.5 104.5l242 1136h117zM371 1109h-121l259 307h151z" />
    <glyph glyph-name="Ldot.latn_CAT" horiz-adv-x="1202" 
d="M535 1434l-281 -1315h829l-24 -119h-957l306 1434h127zM878 812q37 0 62.5 -26t25.5 -63t-25.5 -62t-62.5 -25t-62 25t-25 62t25 63t62 26z" />
    <glyph glyph-name="ldot.latn_CAT" horiz-adv-x="568" 
d="M506 1475l-313 -1475h-117l313 1475h117zM574 833q35 0 59.5 -25t24.5 -60t-24.5 -59t-59.5 -24t-58.5 24t-23.5 59q0 36 23.5 60.5t58.5 24.5z" />
    <glyph glyph-name="zero.numr" horiz-adv-x="860" 
d="M611 1442q126 0 203.5 -83t77.5 -224q0 -86 -27 -172.5t-75 -159t-124 -118t-165 -45.5q-126 0 -203.5 83t-77.5 224q0 68 16.5 137.5t50 133.5t79.5 114t109.5 80t135.5 30zM607 1351q-87 0 -154.5 -63.5t-99.5 -152t-32 -179.5q0 -104 50 -164.5t134 -60.5
q87 0 154.5 63t100 151.5t32.5 179.5q0 105 -50.5 165.5t-134.5 60.5z" />
    <glyph glyph-name="one.numr" horiz-adv-x="529" 
d="M582 1441l-168 -792h-96l141 659l-247 -86l20 99z" />
    <glyph glyph-name="two.numr" horiz-adv-x="672" 
d="M307 1256l-59 59q42 54 106 90.5t145 36.5q110 0 169.5 -61.5t59.5 -147.5q0 -74 -41 -136.5t-129 -138.5l-255 -220h357l-18 -89h-499l17 76l336 290q70 60 102 107.5t32 98.5q0 54 -38 92t-106 38q-101 0 -179 -95z" />
    <glyph glyph-name="three.numr" horiz-adv-x="660" 
d="M285 1269l-49 66q99 107 252 107q104 0 169.5 -54.5t65.5 -134.5q0 -70 -48 -130t-131 -83q55 -20 85 -62t30 -97q0 -101 -77.5 -171t-217.5 -70q-167 0 -242 99l64 60q59 -72 180 -72q97 0 146.5 45t49.5 111q0 55 -42.5 88t-110.5 33h-102l18 83h99q91 0 145 46t54 106
q0 51 -41.5 83.5t-106.5 32.5q-111 0 -190 -86z" />
    <glyph glyph-name="four.numr" horiz-adv-x="674" 
d="M640 1120l-47 -220h132l-18 -89h-134l-33 -162h-96l35 162h-364l15 77l370 544h109l-360 -532h249l47 220h95z" />
    <glyph glyph-name="five.numr" horiz-adv-x="681" 
d="M740 1433l-18 -88h-332l-56 -225h88q145 0 211 -75.5t44 -185.5q-22 -106 -103 -162.5t-194 -56.5q-79 0 -145 30t-106 86l60 61q67 -89 195 -89q78 0 131 37t65 101q13 73 -31 121t-155 48h-166l96 398h416z" />
    <glyph glyph-name="six.numr" horiz-adv-x="695" 
d="M635 1433l-237 -291q30 9 67 9q112 0 186 -65t74 -170q0 -115 -84 -195t-213 -80q-117 0 -194.5 67t-77.5 173q0 97 78 198l280 354h121zM450 1069q-85 0 -139.5 -53.5t-54.5 -130.5q0 -69 49 -113.5t127 -44.5q84 0 139 54t55 130q0 69 -50 113.5t-126 44.5z" />
    <glyph glyph-name="seven.numr" horiz-adv-x="647" 
d="M792 1433l-17 -80l-447 -704h-115l447 694h-422l18 90h536z" />
    <glyph glyph-name="eight.numr" horiz-adv-x="747" 
d="M566 1442q102 0 174.5 -51.5t72.5 -136.5q0 -73 -51 -130.5t-141 -83.5q59 -23 93 -63t34 -94q0 -103 -88.5 -173t-233.5 -70q-110 0 -185 51t-75 138q0 77 53 136.5t148 83.5q-108 46 -108 148t83.5 173.5t223.5 71.5zM481 1007q-95 0 -153.5 -45.5t-58.5 -115.5
q0 -56 47.5 -89t117.5 -33q94 0 153.5 45t59.5 115q0 55 -47.5 89t-118.5 34zM558 1356q-90 0 -144 -45t-54 -111q0 -52 41.5 -84t107.5 -32q89 0 145.5 44.5t56.5 109.5q0 54 -45 86t-108 32z" />
    <glyph glyph-name="nine.numr" horiz-adv-x="695" 
d="M298 649l236 291q-28 -9 -65 -9q-113 0 -187 64.5t-74 168.5q0 115 84.5 196t212.5 81q118 0 195 -67t77 -173q0 -99 -79 -199l-279 -353h-121zM484 1013q85 0 139.5 53.5t54.5 129.5q0 70 -49.5 114.5t-127.5 44.5q-84 0 -139 -54t-55 -131q0 -69 50.5 -113t126.5 -44z
" />
    </font>
</defs>
</svg>
