<svg id="Fijar_mapa" data-name="Fijar mapa" xmlns="http://www.w3.org/2000/svg" xmlns:xlink="http://www.w3.org/1999/xlink" width="46.4" height="55.914" viewBox="0 0 46.4 55.914">
  <defs>
    <clipPath id="clip-path">
      <rect id="Rectángulo_498" data-name="Rectángulo 498" width="46.4" height="55.914" transform="translate(0 0)" fill="none"/>
    </clipPath>
  </defs>
  <g id="Grupo_1467" data-name="Grupo 1467" transform="translate(0 0)" clip-path="url(#clip-path)">
    <path id="Trazado_2085" data-name="Trazado 2085" d="M39.583,6.786A23.2,23.2,0,0,0,6.775,39.594l16.4,16.32,16.405-16.4a23.046,23.046,0,0,0,0-32.724" fill="#0049ac"/>
    <path id="Trazado_2086" data-name="Trazado 2086" d="M23.178,42.891h0A19.828,19.828,0,1,1,43.049,23.1,19.883,19.883,0,0,1,23.178,42.891" fill="#f0f0f0"/>
    <path id="Trazado_2087" data-name="Trazado 2087" d="M11.468,22.746a2.252,2.252,0,0,1,.687-1.028q4.25-4.239,8.492-8.486a3.519,3.519,0,0,1,4.363-.557,3.96,3.96,0,0,1,.71.571c.827.811,1.642,1.635,2.462,2.453a.413.413,0,0,0,.057.041,1.58,1.58,0,0,0,.019-.177c0-.4-.008-.793.005-1.189a1.353,1.353,0,0,1,1.061-1.319,1.315,1.315,0,0,1,1.477.735,1.9,1.9,0,0,1,.142.731c.014,1.25,0,2.5.013,3.75a.526.526,0,0,0,.137.333c1.1,1.116,2.218,2.223,3.325,3.336a1.341,1.341,0,0,1-1.682,2.088,3.217,3.217,0,0,1-.287-.261q-4.286-4.284-8.57-8.57a.84.84,0,0,0-1.406.005q-4.309,4.31-8.62,8.618a1.352,1.352,0,0,1-1.74.29,1.549,1.549,0,0,1-.645-.907Z" fill="#0049ac"/>
    <path id="Trazado_2088" data-name="Trazado 2088" d="M25.367,33.954V28.008H21v5.946c-.1.005-.178.012-.258.012-1.166,0-2.333,0-3.5,0a2.42,2.42,0,0,1-2.528-2.529c0-1.814,0-3.628,0-5.442a.927.927,0,0,1,.3-.708q3.8-3.8,7.6-7.6a.689.689,0,0,1,1.138,0q3.8,3.8,7.6,7.6a.934.934,0,0,1,.3.71c-.007,1.852,0,3.7-.006,5.556a2.412,2.412,0,0,1-1.986,2.372,2.552,2.552,0,0,1-.454.037q-1.83,0-3.659,0c-.051,0-.1-.007-.174-.012" fill="#0049ac"/>
  </g>
</svg>
