<svg id="Ubicación" xmlns="http://www.w3.org/2000/svg" width="11.148" height="11.149" viewBox="0 0 11.148 11.149">
  <path id="Trazado_2050" data-name="Trazado 2050" d="M181.987,12.493a1.516,1.516,0,0,1,.208.13.423.423,0,0,1,.146.339c0,.159,0,.317,0,.456a4.751,4.751,0,0,1,4.186,4.19c.158,0,.336-.008.512,0a.46.46,0,0,1-.005.916c-.127.008-.254,0-.381,0h-.127a4.749,4.749,0,0,1-4.187,4.187c0,.145,0,.315,0,.484a.45.45,0,0,1-.323.419.438.438,0,0,1-.508-.173.661.661,0,0,1-.088-.283c-.014-.154,0-.311,0-.448a4.749,4.749,0,0,1-4.186-4.186c-.1,0-.212-.008-.327,0a.528.528,0,0,1-.6-.356v-.217a.528.528,0,0,1,.6-.356c.114.01.23,0,.351,0a4.669,4.669,0,0,1,4.162-4.161v-.482a.429.429,0,0,1,.161-.354,1.6,1.6,0,0,1,.192-.115Zm3.567,5.112a3.682,3.682,0,0,0-3.209-3.211c-.089.284-.23.423-.455.421a.471.471,0,0,1-.479-.426,3.681,3.681,0,0,0-3.2,3.216c.267.071.415.219.415.445a.613.613,0,0,1-.076.266.455.455,0,0,1-.345.214,3.685,3.685,0,0,0,3.21,3.211c.085-.279.22-.416.444-.42a.468.468,0,0,1,.489.426,3.684,3.684,0,0,0,3.2-3.217c-.276-.073-.423-.237-.42-.467a.478.478,0,0,1,.425-.458" transform="translate(-176.304 -12.493)" fill="#666"/>
  <path id="Trazado_2051" data-name="Trazado 2051" d="M181.808,20.39a2.324,2.324,0,1,1,2.392-2.247,2.328,2.328,0,0,1-2.392,2.247" transform="translate(-176.304 -12.493)" fill="#666"/>
</svg>
